solid CATIA STL
  facet normal  0.000000e+000  1.000000e+000  0.000000e+000
    outer loop
      vertex -1.500000e+001  3.000000e+000 -1.330000e+001
      vertex -7.598806e+000  3.000000e+000 -1.493264e+001
      vertex -8.683182e+000  3.000000e+000 -1.504945e+001
    endloop
  endfacet
  facet normal  0.000000e+000  1.000000e+000  0.000000e+000
    outer loop
      vertex  1.500000e+001  3.000000e+000 -1.930000e+001
      vertex -1.500000e+001  3.000000e+000 -1.930000e+001
      vertex -8.401194e+000  3.000000e+000 -1.766736e+001
    endloop
  endfacet
  facet normal  -0.000000e+000  1.000000e+000  0.000000e+000
    outer loop
      vertex  1.500000e+001  3.000000e+000 -1.930000e+001
      vertex -8.401194e+000  3.000000e+000 -1.766736e+001
      vertex -7.316819e+000  3.000000e+000 -1.755055e+001
    endloop
  endfacet
  facet normal  0.000000e+000  1.000000e+000  0.000000e+000
    outer loop
      vertex  1.500000e+001  3.000000e+000 -1.930000e+001
      vertex -7.316819e+000  3.000000e+000 -1.755055e+001
      vertex  7.598806e+000  3.000000e+000 -1.766736e+001
    endloop
  endfacet
  facet normal  -0.000000e+000  1.000000e+000  0.000000e+000
    outer loop
      vertex  1.500000e+001  3.000000e+000 -1.930000e+001
      vertex  7.598806e+000  3.000000e+000 -1.766736e+001
      vertex  8.683182e+000  3.000000e+000 -1.755055e+001
    endloop
  endfacet
  facet normal  -0.000000e+000  9.999999e-001  0.000000e+000
    outer loop
      vertex  1.500000e+001  3.000000e+000 -1.930000e+001
      vertex  8.683182e+000  3.000000e+000 -1.755055e+001
      vertex  9.367358e+000  3.000000e+000 -1.670119e+001
    endloop
  endfacet
  facet normal  -0.000000e+000  1.000000e+000  -0.000000e+000
    outer loop
      vertex  1.500000e+001  3.000000e+000 -1.930000e+001
      vertex  9.367358e+000  3.000000e+000 -1.670119e+001
      vertex  9.250555e+000  3.000000e+000 -1.561682e+001
    endloop
  endfacet
  facet normal  -0.000000e+000  1.000000e+000  -0.000000e+000
    outer loop
      vertex  1.500000e+001  3.000000e+000 -1.930000e+001
      vertex  9.250555e+000  3.000000e+000 -1.561682e+001
      vertex  8.401194e+000  3.000000e+000 -1.493264e+001
    endloop
  endfacet
  facet normal  -0.000000e+000  1.000000e+000  0.000000e+000
    outer loop
      vertex  1.500000e+001  3.000000e+000 -1.930000e+001
      vertex  8.401194e+000  3.000000e+000 -1.493264e+001
      vertex  1.500000e+001  3.000000e+000 -1.330000e+001
    endloop
  endfacet
  facet normal  0.000000e+000  1.000000e+000  -0.000000e+000
    outer loop
      vertex  1.500000e+001  3.000000e+000 -1.330000e+001
      vertex  8.401194e+000  3.000000e+000 -1.493264e+001
      vertex  7.316819e+000  3.000000e+000 -1.504945e+001
    endloop
  endfacet
  facet normal  0.000000e+000  1.000000e+000  -0.000000e+000
    outer loop
      vertex  1.500000e+001  3.000000e+000 -1.330000e+001
      vertex  7.316819e+000  3.000000e+000 -1.504945e+001
      vertex -6.749445e+000  3.000000e+000 -1.561682e+001
    endloop
  endfacet
  facet normal  0.000000e+000  1.000000e+000  -0.000000e+000
    outer loop
      vertex  1.500000e+001  3.000000e+000 -1.330000e+001
      vertex -6.749445e+000  3.000000e+000 -1.561682e+001
      vertex -7.598806e+000  3.000000e+000 -1.493264e+001
    endloop
  endfacet
  facet normal  0.000000e+000  1.000000e+000  -0.000000e+000
    outer loop
      vertex  1.500000e+001  3.000000e+000 -1.330000e+001
      vertex -7.598806e+000  3.000000e+000 -1.493264e+001
      vertex -1.500000e+001  3.000000e+000 -1.330000e+001
    endloop
  endfacet
  facet normal  0.000000e+000  1.000000e+000  0.000000e+000
    outer loop
      vertex -1.500000e+001  3.000000e+000 -1.930000e+001
      vertex -1.500000e+001  3.000000e+000 -1.330000e+001
      vertex -8.683182e+000  3.000000e+000 -1.504945e+001
    endloop
  endfacet
  facet normal  0.000000e+000  1.000000e+000  0.000000e+000
    outer loop
      vertex -1.500000e+001  3.000000e+000 -1.930000e+001
      vertex -8.683182e+000  3.000000e+000 -1.504945e+001
      vertex -9.367358e+000  3.000000e+000 -1.589881e+001
    endloop
  endfacet
  facet normal  0.000000e+000  1.000000e+000  0.000000e+000
    outer loop
      vertex -1.500000e+001  3.000000e+000 -1.930000e+001
      vertex -9.367358e+000  3.000000e+000 -1.589881e+001
      vertex -9.250555e+000  3.000000e+000 -1.698318e+001
    endloop
  endfacet
  facet normal  0.000000e+000  1.000000e+000  0.000000e+000
    outer loop
      vertex -1.500000e+001  3.000000e+000 -1.930000e+001
      vertex -9.250555e+000  3.000000e+000 -1.698318e+001
      vertex -8.401194e+000  3.000000e+000 -1.766736e+001
    endloop
  endfacet
  facet normal  -0.000000e+000  1.000000e+000  0.000000e+000
    outer loop
      vertex  7.598806e+000  3.000000e+000 -1.766736e+001
      vertex -7.316819e+000  3.000000e+000 -1.755055e+001
      vertex  6.749445e+000  3.000000e+000 -1.698318e+001
    endloop
  endfacet
  facet normal  0.000000e+000  1.000000e+000  0.000000e+000
    outer loop
      vertex  6.749445e+000  3.000000e+000 -1.698318e+001
      vertex -7.316819e+000  3.000000e+000 -1.755055e+001
      vertex -6.632642e+000  3.000000e+000 -1.670119e+001
    endloop
  endfacet
  facet normal  -0.000000e+000  9.999999e-001  0.000000e+000
    outer loop
      vertex  6.749445e+000  3.000000e+000 -1.698318e+001
      vertex -6.632642e+000  3.000000e+000 -1.670119e+001
      vertex  6.632642e+000  3.000000e+000 -1.589881e+001
    endloop
  endfacet
  facet normal  0.000000e+000  1.000000e+000  0.000000e+000
    outer loop
      vertex  6.632642e+000  3.000000e+000 -1.589881e+001
      vertex -6.632642e+000  3.000000e+000 -1.670119e+001
      vertex -6.749445e+000  3.000000e+000 -1.561682e+001
    endloop
  endfacet
  facet normal  -0.000000e+000  1.000000e+000  0.000000e+000
    outer loop
      vertex  6.632642e+000  3.000000e+000 -1.589881e+001
      vertex -6.749445e+000  3.000000e+000 -1.561682e+001
      vertex  7.316819e+000  3.000000e+000 -1.504945e+001
    endloop
  endfacet
  facet normal  0.000000e+000  0.000000e+000 -1.000000e+000
    outer loop
      vertex  1.500000e+001  2.300000e+001 -1.130000e+001
      vertex  1.500000e+001  5.000000e+000 -1.130000e+001
      vertex -1.500000e+001  2.300000e+001 -1.130000e+001
    endloop
  endfacet
  facet normal  0.000000e+000  0.000000e+000 -1.000000e+000
    outer loop
      vertex -1.500000e+001  2.300000e+001 -1.130000e+001
      vertex  1.500000e+001  5.000000e+000 -1.130000e+001
      vertex -1.500000e+001  5.000000e+000 -1.130000e+001
    endloop
  endfacet
  facet normal -1.000000e+000  -0.000000e+000  0.000000e+000
    outer loop
      vertex -1.500000e+001  9.000000e+000 -6.300000e+000
      vertex -1.500000e+001  9.585787e+000 -7.714213e+000
      vertex -1.500000e+001  5.000000e+000 -1.130000e+001
    endloop
  endfacet
  facet normal -1.000000e+000  0.000000e+000  0.000000e+000
    outer loop
      vertex -1.500000e+001  3.000000e+000 -1.930000e+001
      vertex -1.500000e+001  2.414214e+000 -2.071421e+001
      vertex -1.500000e+001  3.000000e+000 -1.330000e+001
    endloop
  endfacet
  facet normal -1.000000e+000  -0.000000e+000  -0.000000e+000
    outer loop
      vertex -1.500000e+001  5.000000e+000  1.130000e+001
      vertex -1.500000e+001  2.300000e+001  1.130000e+001
      vertex -1.500000e+001  2.300000e+001  1.030000e+001
    endloop
  endfacet
  facet normal -1.000000e+000  -0.000000e+000  0.000000e+000
    outer loop
      vertex -1.500000e+001  5.000000e+000  1.130000e+001
      vertex -1.500000e+001  2.300000e+001  1.030000e+001
      vertex -1.500000e+001  2.241421e+001  8.885786e+000
    endloop
  endfacet
  facet normal -1.000000e+000  -0.000000e+000  0.000000e+000
    outer loop
      vertex -1.500000e+001  5.000000e+000  1.130000e+001
      vertex -1.500000e+001  2.241421e+001  8.885786e+000
      vertex -1.500000e+001  2.100000e+001  8.300000e+000
    endloop
  endfacet
  facet normal -1.000000e+000  0.000000e+000  0.000000e+000
    outer loop
      vertex -1.500000e+001  5.000000e+000  1.130000e+001
      vertex -1.500000e+001  2.100000e+001  8.300000e+000
      vertex -1.500000e+001  1.100000e+001  8.300000e+000
    endloop
  endfacet
  facet normal -1.000000e+000  -0.000000e+000  -0.000000e+000
    outer loop
      vertex -1.500000e+001  3.585786e+000  1.188579e+001
      vertex -1.500000e+001  5.000000e+000  1.130000e+001
      vertex -1.500000e+001  1.100000e+001  8.300000e+000
    endloop
  endfacet
  facet normal -1.000000e+000  -0.000000e+000  0.000000e+000
    outer loop
      vertex -1.500000e+001  3.585786e+000  1.188579e+001
      vertex -1.500000e+001  1.100000e+001  8.300000e+000
      vertex -1.500000e+001  9.585787e+000  7.714213e+000
    endloop
  endfacet
  facet normal -1.000000e+000  -0.000000e+000  0.000000e+000
    outer loop
      vertex -1.500000e+001  3.585786e+000  1.188579e+001
      vertex -1.500000e+001  9.585787e+000  7.714213e+000
      vertex -1.500000e+001  9.000000e+000  6.300000e+000
    endloop
  endfacet
  facet normal -1.000000e+000  -0.000000e+000  -0.000000e+000
    outer loop
      vertex -1.500000e+001  3.585786e+000  1.188579e+001
      vertex -1.500000e+001  9.000000e+000  6.300000e+000
      vertex -1.500000e+001  9.000000e+000 -6.300000e+000
    endloop
  endfacet
  facet normal -9.999999e-001  0.000000e+000  0.000000e+000
    outer loop
      vertex -1.500000e+001  3.585786e+000  1.188579e+001
      vertex -1.500000e+001  9.000000e+000 -6.300000e+000
      vertex -1.500000e+001  3.000000e+000  1.330000e+001
    endloop
  endfacet
  facet normal -1.000000e+000  -0.000000e+000  -0.000000e+000
    outer loop
      vertex -1.500000e+001  1.100000e+001 -8.300000e+000
      vertex -1.500000e+001  2.100000e+001 -8.300000e+000
      vertex -1.500000e+001  2.241421e+001 -8.885786e+000
    endloop
  endfacet
  facet normal -1.000000e+000  -0.000000e+000  -0.000000e+000
    outer loop
      vertex -1.500000e+001  1.100000e+001 -8.300000e+000
      vertex -1.500000e+001  2.241421e+001 -8.885786e+000
      vertex -1.500000e+001  2.300000e+001 -1.030000e+001
    endloop
  endfacet
  facet normal -1.000000e+000  -0.000000e+000  -0.000000e+000
    outer loop
      vertex -1.500000e+001  1.100000e+001 -8.300000e+000
      vertex -1.500000e+001  2.300000e+001 -1.030000e+001
      vertex -1.500000e+001  2.300000e+001 -1.130000e+001
    endloop
  endfacet
  facet normal -1.000000e+000  0.000000e+000  0.000000e+000
    outer loop
      vertex -1.500000e+001  1.100000e+001 -8.300000e+000
      vertex -1.500000e+001  2.300000e+001 -1.130000e+001
      vertex -1.500000e+001  5.000000e+000 -1.130000e+001
    endloop
  endfacet
  facet normal -1.000000e+000  0.000000e+000  0.000000e+000
    outer loop
      vertex -1.500000e+001  1.100000e+001 -8.300000e+000
      vertex -1.500000e+001  5.000000e+000 -1.130000e+001
      vertex -1.500000e+001  9.585787e+000 -7.714213e+000
    endloop
  endfacet
  facet normal -1.000000e+000  -0.000000e+000  0.000000e+000
    outer loop
      vertex -1.500000e+001  3.000000e+000  1.330000e+001
      vertex -1.500000e+001  9.000000e+000 -6.300000e+000
      vertex -1.500000e+001  5.000000e+000 -1.130000e+001
    endloop
  endfacet
  facet normal -1.000000e+000  -0.000000e+000  0.000000e+000
    outer loop
      vertex -1.500000e+001  3.000000e+000  1.330000e+001
      vertex -1.500000e+001  5.000000e+000 -1.130000e+001
      vertex -1.500000e+001  3.585786e+000 -1.188579e+001
    endloop
  endfacet
  facet normal -1.000000e+000  -0.000000e+000  0.000000e+000
    outer loop
      vertex -1.500000e+001  3.000000e+000  1.330000e+001
      vertex -1.500000e+001  3.585786e+000 -1.188579e+001
      vertex -1.500000e+001  3.000000e+000 -1.330000e+001
    endloop
  endfacet
  facet normal -9.999999e-001  -0.000000e+000  0.000000e+000
    outer loop
      vertex -1.500000e+001  3.000000e+000  1.330000e+001
      vertex -1.500000e+001  3.000000e+000 -1.330000e+001
      vertex -1.500000e+001  2.414214e+000 -2.071421e+001
    endloop
  endfacet
  facet normal -1.000000e+000  -0.000000e+000  0.000000e+000
    outer loop
      vertex -1.500000e+001  3.000000e+000  1.330000e+001
      vertex -1.500000e+001  2.414214e+000 -2.071421e+001
      vertex -1.500000e+001  1.000000e+000 -2.130000e+001
    endloop
  endfacet
  facet normal -1.000000e+000  0.000000e+000  0.000000e+000
    outer loop
      vertex -1.500000e+001  3.000000e+000  1.330000e+001
      vertex -1.500000e+001  1.000000e+000 -2.130000e+001
      vertex -1.500000e+001  0.000000e+000 -2.130000e+001
    endloop
  endfacet
  facet normal -1.000000e+000  0.000000e+000  0.000000e+000
    outer loop
      vertex -1.500000e+001  3.000000e+000  1.330000e+001
      vertex -1.500000e+001  0.000000e+000 -2.130000e+001
      vertex -1.500000e+001  0.000000e+000  2.130000e+001
    endloop
  endfacet
  facet normal -1.000000e+000  0.000000e+000  0.000000e+000
    outer loop
      vertex -1.500000e+001  3.000000e+000  1.330000e+001
      vertex -1.500000e+001  0.000000e+000  2.130000e+001
      vertex -1.500000e+001  3.000000e+000  1.930000e+001
    endloop
  endfacet
  facet normal -1.000000e+000  0.000000e+000  0.000000e+000
    outer loop
      vertex -1.500000e+001  2.414214e+000  2.071421e+001
      vertex -1.500000e+001  3.000000e+000  1.930000e+001
      vertex -1.500000e+001  1.000000e+000  2.130000e+001
    endloop
  endfacet
  facet normal -1.000000e+000  -0.000000e+000  -0.000000e+000
    outer loop
      vertex -1.500000e+001  1.000000e+000  2.130000e+001
      vertex -1.500000e+001  3.000000e+000  1.930000e+001
      vertex -1.500000e+001  0.000000e+000  2.130000e+001
    endloop
  endfacet
  facet normal  1.000000e+000  0.000000e+000  0.000000e+000
    outer loop
      vertex  1.500000e+001  3.000000e+000  1.930000e+001
      vertex  1.500000e+001  2.414214e+000  2.071421e+001
      vertex  1.500000e+001  3.000000e+000  1.330000e+001
    endloop
  endfacet
  facet normal  1.000000e+000  0.000000e+000  0.000000e+000
    outer loop
      vertex  1.500000e+001  9.000000e+000  6.300000e+000
      vertex  1.500000e+001  9.585787e+000  7.714213e+000
      vertex  1.500000e+001  5.000000e+000  1.130000e+001
    endloop
  endfacet
  facet normal  1.000000e+000  0.000000e+000  -0.000000e+000
    outer loop
      vertex  1.500000e+001  5.000000e+000 -1.130000e+001
      vertex  1.500000e+001  2.300000e+001 -1.130000e+001
      vertex  1.500000e+001  2.300000e+001 -1.030000e+001
    endloop
  endfacet
  facet normal  1.000000e+000  0.000000e+000  0.000000e+000
    outer loop
      vertex  1.500000e+001  5.000000e+000 -1.130000e+001
      vertex  1.500000e+001  2.300000e+001 -1.030000e+001
      vertex  1.500000e+001  2.241421e+001 -8.885786e+000
    endloop
  endfacet
  facet normal  1.000000e+000  0.000000e+000  0.000000e+000
    outer loop
      vertex  1.500000e+001  5.000000e+000 -1.130000e+001
      vertex  1.500000e+001  2.241421e+001 -8.885786e+000
      vertex  1.500000e+001  2.100000e+001 -8.300000e+000
    endloop
  endfacet
  facet normal  1.000000e+000  0.000000e+000  0.000000e+000
    outer loop
      vertex  1.500000e+001  5.000000e+000 -1.130000e+001
      vertex  1.500000e+001  2.100000e+001 -8.300000e+000
      vertex  1.500000e+001  1.100000e+001 -8.300000e+000
    endloop
  endfacet
  facet normal  1.000000e+000  0.000000e+000  -0.000000e+000
    outer loop
      vertex  1.500000e+001  3.585786e+000 -1.188579e+001
      vertex  1.500000e+001  5.000000e+000 -1.130000e+001
      vertex  1.500000e+001  1.100000e+001 -8.300000e+000
    endloop
  endfacet
  facet normal  1.000000e+000  0.000000e+000  0.000000e+000
    outer loop
      vertex  1.500000e+001  3.585786e+000 -1.188579e+001
      vertex  1.500000e+001  1.100000e+001 -8.300000e+000
      vertex  1.500000e+001  9.585787e+000 -7.714213e+000
    endloop
  endfacet
  facet normal  1.000000e+000  0.000000e+000  0.000000e+000
    outer loop
      vertex  1.500000e+001  3.585786e+000 -1.188579e+001
      vertex  1.500000e+001  9.585787e+000 -7.714213e+000
      vertex  1.500000e+001  9.000000e+000 -6.300000e+000
    endloop
  endfacet
  facet normal  1.000000e+000  0.000000e+000  -0.000000e+000
    outer loop
      vertex  1.500000e+001  3.585786e+000 -1.188579e+001
      vertex  1.500000e+001  9.000000e+000 -6.300000e+000
      vertex  1.500000e+001  9.000000e+000  6.300000e+000
    endloop
  endfacet
  facet normal  9.999999e-001  0.000000e+000  0.000000e+000
    outer loop
      vertex  1.500000e+001  3.585786e+000 -1.188579e+001
      vertex  1.500000e+001  9.000000e+000  6.300000e+000
      vertex  1.500000e+001  3.000000e+000 -1.330000e+001
    endloop
  endfacet
  facet normal  1.000000e+000  0.000000e+000  -0.000000e+000
    outer loop
      vertex  1.500000e+001  1.100000e+001  8.300000e+000
      vertex  1.500000e+001  2.100000e+001  8.300000e+000
      vertex  1.500000e+001  2.241421e+001  8.885786e+000
    endloop
  endfacet
  facet normal  1.000000e+000  0.000000e+000  -0.000000e+000
    outer loop
      vertex  1.500000e+001  1.100000e+001  8.300000e+000
      vertex  1.500000e+001  2.241421e+001  8.885786e+000
      vertex  1.500000e+001  2.300000e+001  1.030000e+001
    endloop
  endfacet
  facet normal  1.000000e+000  0.000000e+000  -0.000000e+000
    outer loop
      vertex  1.500000e+001  1.100000e+001  8.300000e+000
      vertex  1.500000e+001  2.300000e+001  1.030000e+001
      vertex  1.500000e+001  2.300000e+001  1.130000e+001
    endloop
  endfacet
  facet normal  1.000000e+000  0.000000e+000  0.000000e+000
    outer loop
      vertex  1.500000e+001  1.100000e+001  8.300000e+000
      vertex  1.500000e+001  2.300000e+001  1.130000e+001
      vertex  1.500000e+001  5.000000e+000  1.130000e+001
    endloop
  endfacet
  facet normal  1.000000e+000  0.000000e+000  0.000000e+000
    outer loop
      vertex  1.500000e+001  1.100000e+001  8.300000e+000
      vertex  1.500000e+001  5.000000e+000  1.130000e+001
      vertex  1.500000e+001  9.585787e+000  7.714213e+000
    endloop
  endfacet
  facet normal  1.000000e+000  0.000000e+000  0.000000e+000
    outer loop
      vertex  1.500000e+001  3.000000e+000 -1.330000e+001
      vertex  1.500000e+001  9.000000e+000  6.300000e+000
      vertex  1.500000e+001  5.000000e+000  1.130000e+001
    endloop
  endfacet
  facet normal  1.000000e+000  0.000000e+000  0.000000e+000
    outer loop
      vertex  1.500000e+001  3.000000e+000 -1.330000e+001
      vertex  1.500000e+001  5.000000e+000  1.130000e+001
      vertex  1.500000e+001  3.585786e+000  1.188579e+001
    endloop
  endfacet
  facet normal  1.000000e+000  0.000000e+000  0.000000e+000
    outer loop
      vertex  1.500000e+001  3.000000e+000 -1.330000e+001
      vertex  1.500000e+001  3.585786e+000  1.188579e+001
      vertex  1.500000e+001  3.000000e+000  1.330000e+001
    endloop
  endfacet
  facet normal  9.999999e-001  0.000000e+000  0.000000e+000
    outer loop
      vertex  1.500000e+001  3.000000e+000 -1.330000e+001
      vertex  1.500000e+001  3.000000e+000  1.330000e+001
      vertex  1.500000e+001  2.414214e+000  2.071421e+001
    endloop
  endfacet
  facet normal  1.000000e+000  0.000000e+000  0.000000e+000
    outer loop
      vertex  1.500000e+001  3.000000e+000 -1.330000e+001
      vertex  1.500000e+001  2.414214e+000  2.071421e+001
      vertex  1.500000e+001  1.000000e+000  2.130000e+001
    endloop
  endfacet
  facet normal  1.000000e+000  0.000000e+000  0.000000e+000
    outer loop
      vertex  1.500000e+001  3.000000e+000 -1.330000e+001
      vertex  1.500000e+001  1.000000e+000  2.130000e+001
      vertex  1.500000e+001  0.000000e+000  2.130000e+001
    endloop
  endfacet
  facet normal  1.000000e+000  0.000000e+000  0.000000e+000
    outer loop
      vertex  1.500000e+001  3.000000e+000 -1.330000e+001
      vertex  1.500000e+001  0.000000e+000  2.130000e+001
      vertex  1.500000e+001  0.000000e+000 -2.130000e+001
    endloop
  endfacet
  facet normal  1.000000e+000  0.000000e+000  0.000000e+000
    outer loop
      vertex  1.500000e+001  3.000000e+000 -1.330000e+001
      vertex  1.500000e+001  0.000000e+000 -2.130000e+001
      vertex  1.500000e+001  3.000000e+000 -1.930000e+001
    endloop
  endfacet
  facet normal  1.000000e+000  0.000000e+000  0.000000e+000
    outer loop
      vertex  1.500000e+001  2.414214e+000 -2.071421e+001
      vertex  1.500000e+001  3.000000e+000 -1.930000e+001
      vertex  1.500000e+001  1.000000e+000 -2.130000e+001
    endloop
  endfacet
  facet normal  1.000000e+000  0.000000e+000  -0.000000e+000
    outer loop
      vertex  1.500000e+001  1.000000e+000 -2.130000e+001
      vertex  1.500000e+001  3.000000e+000 -1.930000e+001
      vertex  1.500000e+001  0.000000e+000 -2.130000e+001
    endloop
  endfacet
  facet normal  0.000000e+000  3.826831e-001 -9.238797e-001
    outer loop
      vertex  1.500000e+001  5.000000e+000 -1.130000e+001
      vertex  1.500000e+001  3.585786e+000 -1.188579e+001
      vertex -1.500000e+001  5.000000e+000 -1.130000e+001
    endloop
  endfacet
  facet normal  0.000000e+000  3.826831e-001 -9.238797e-001
    outer loop
      vertex -1.500000e+001  5.000000e+000 -1.130000e+001
      vertex  1.500000e+001  3.585786e+000 -1.188579e+001
      vertex -1.500000e+001  3.585786e+000 -1.188579e+001
    endloop
  endfacet
  facet normal  0.000000e+000  9.238796e-001 -3.826832e-001
    outer loop
      vertex  1.500000e+001  3.585786e+000 -1.188579e+001
      vertex  1.500000e+001  3.000000e+000 -1.330000e+001
      vertex -1.500000e+001  3.585786e+000 -1.188579e+001
    endloop
  endfacet
  facet normal  0.000000e+000  9.238796e-001 -3.826832e-001
    outer loop
      vertex -1.500000e+001  3.585786e+000 -1.188579e+001
      vertex  1.500000e+001  3.000000e+000 -1.330000e+001
      vertex -1.500000e+001  3.000000e+000 -1.330000e+001
    endloop
  endfacet
  facet normal  0.000000e+000  1.000000e+000  0.000000e+000
    outer loop
      vertex -1.500000e+001  3.000000e+000  1.930000e+001
      vertex -7.598806e+000  3.000000e+000  1.766736e+001
      vertex -8.683182e+000  3.000000e+000  1.755055e+001
    endloop
  endfacet
  facet normal  0.000000e+000  1.000000e+000  0.000000e+000
    outer loop
      vertex  1.500000e+001  3.000000e+000  1.330000e+001
      vertex -1.500000e+001  3.000000e+000  1.330000e+001
      vertex -8.401194e+000  3.000000e+000  1.493264e+001
    endloop
  endfacet
  facet normal  -0.000000e+000  1.000000e+000  0.000000e+000
    outer loop
      vertex  1.500000e+001  3.000000e+000  1.330000e+001
      vertex -8.401194e+000  3.000000e+000  1.493264e+001
      vertex -7.316819e+000  3.000000e+000  1.504945e+001
    endloop
  endfacet
  facet normal  0.000000e+000  1.000000e+000  0.000000e+000
    outer loop
      vertex  1.500000e+001  3.000000e+000  1.330000e+001
      vertex -7.316819e+000  3.000000e+000  1.504945e+001
      vertex  7.598806e+000  3.000000e+000  1.493264e+001
    endloop
  endfacet
  facet normal  -0.000000e+000  1.000000e+000  0.000000e+000
    outer loop
      vertex  1.500000e+001  3.000000e+000  1.330000e+001
      vertex  7.598806e+000  3.000000e+000  1.493264e+001
      vertex  8.683182e+000  3.000000e+000  1.504945e+001
    endloop
  endfacet
  facet normal  -0.000000e+000  1.000000e+000  0.000000e+000
    outer loop
      vertex  1.500000e+001  3.000000e+000  1.330000e+001
      vertex  8.683182e+000  3.000000e+000  1.504945e+001
      vertex  9.367358e+000  3.000000e+000  1.589881e+001
    endloop
  endfacet
  facet normal  -0.000000e+000  1.000000e+000  -0.000000e+000
    outer loop
      vertex  1.500000e+001  3.000000e+000  1.330000e+001
      vertex  9.367358e+000  3.000000e+000  1.589881e+001
      vertex  9.250555e+000  3.000000e+000  1.698318e+001
    endloop
  endfacet
  facet normal  -0.000000e+000  9.999999e-001  -0.000000e+000
    outer loop
      vertex  1.500000e+001  3.000000e+000  1.330000e+001
      vertex  9.250555e+000  3.000000e+000  1.698318e+001
      vertex  8.401194e+000  3.000000e+000  1.766736e+001
    endloop
  endfacet
  facet normal  -0.000000e+000  1.000000e+000  0.000000e+000
    outer loop
      vertex  1.500000e+001  3.000000e+000  1.330000e+001
      vertex  8.401194e+000  3.000000e+000  1.766736e+001
      vertex  1.500000e+001  3.000000e+000  1.930000e+001
    endloop
  endfacet
  facet normal  0.000000e+000  1.000000e+000  -0.000000e+000
    outer loop
      vertex  1.500000e+001  3.000000e+000  1.930000e+001
      vertex  8.401194e+000  3.000000e+000  1.766736e+001
      vertex  7.316819e+000  3.000000e+000  1.755055e+001
    endloop
  endfacet
  facet normal  0.000000e+000  1.000000e+000  -0.000000e+000
    outer loop
      vertex  1.500000e+001  3.000000e+000  1.930000e+001
      vertex  7.316819e+000  3.000000e+000  1.755055e+001
      vertex -6.749445e+000  3.000000e+000  1.698318e+001
    endloop
  endfacet
  facet normal  0.000000e+000  1.000000e+000  -0.000000e+000
    outer loop
      vertex  1.500000e+001  3.000000e+000  1.930000e+001
      vertex -6.749445e+000  3.000000e+000  1.698318e+001
      vertex -7.598806e+000  3.000000e+000  1.766736e+001
    endloop
  endfacet
  facet normal  0.000000e+000  1.000000e+000  -0.000000e+000
    outer loop
      vertex  1.500000e+001  3.000000e+000  1.930000e+001
      vertex -7.598806e+000  3.000000e+000  1.766736e+001
      vertex -1.500000e+001  3.000000e+000  1.930000e+001
    endloop
  endfacet
  facet normal  0.000000e+000  1.000000e+000  0.000000e+000
    outer loop
      vertex -1.500000e+001  3.000000e+000  1.330000e+001
      vertex -1.500000e+001  3.000000e+000  1.930000e+001
      vertex -8.683182e+000  3.000000e+000  1.755055e+001
    endloop
  endfacet
  facet normal  0.000000e+000  1.000000e+000  0.000000e+000
    outer loop
      vertex -1.500000e+001  3.000000e+000  1.330000e+001
      vertex -8.683182e+000  3.000000e+000  1.755055e+001
      vertex -9.367358e+000  3.000000e+000  1.670119e+001
    endloop
  endfacet
  facet normal  0.000000e+000  9.999999e-001  0.000000e+000
    outer loop
      vertex -1.500000e+001  3.000000e+000  1.330000e+001
      vertex -9.367358e+000  3.000000e+000  1.670119e+001
      vertex -9.250555e+000  3.000000e+000  1.561682e+001
    endloop
  endfacet
  facet normal  0.000000e+000  1.000000e+000  0.000000e+000
    outer loop
      vertex -1.500000e+001  3.000000e+000  1.330000e+001
      vertex -9.250555e+000  3.000000e+000  1.561682e+001
      vertex -8.401194e+000  3.000000e+000  1.493264e+001
    endloop
  endfacet
  facet normal  -0.000000e+000  1.000000e+000  0.000000e+000
    outer loop
      vertex  7.598806e+000  3.000000e+000  1.493264e+001
      vertex -7.316819e+000  3.000000e+000  1.504945e+001
      vertex  6.749445e+000  3.000000e+000  1.561682e+001
    endloop
  endfacet
  facet normal  0.000000e+000  1.000000e+000  0.000000e+000
    outer loop
      vertex  6.749445e+000  3.000000e+000  1.561682e+001
      vertex -7.316819e+000  3.000000e+000  1.504945e+001
      vertex -6.632642e+000  3.000000e+000  1.589881e+001
    endloop
  endfacet
  facet normal  -0.000000e+000  1.000000e+000  0.000000e+000
    outer loop
      vertex  6.749445e+000  3.000000e+000  1.561682e+001
      vertex -6.632642e+000  3.000000e+000  1.589881e+001
      vertex  6.632642e+000  3.000000e+000  1.670119e+001
    endloop
  endfacet
  facet normal  0.000000e+000  9.999999e-001  0.000000e+000
    outer loop
      vertex  6.632642e+000  3.000000e+000  1.670119e+001
      vertex -6.632642e+000  3.000000e+000  1.589881e+001
      vertex -6.749445e+000  3.000000e+000  1.698318e+001
    endloop
  endfacet
  facet normal  -0.000000e+000  1.000000e+000  0.000000e+000
    outer loop
      vertex  6.632642e+000  3.000000e+000  1.670119e+001
      vertex -6.749445e+000  3.000000e+000  1.698318e+001
      vertex  7.316819e+000  3.000000e+000  1.755055e+001
    endloop
  endfacet
  facet normal  0.000000e+000  0.000000e+000  1.000000e+000
    outer loop
      vertex -7.777149e+000  1.742256e+001  1.130000e+001
      vertex  1.500000e+001  2.300000e+001  1.130000e+001
      vertex -1.500000e+001  2.300000e+001  1.130000e+001
    endloop
  endfacet
  facet normal  0.000000e+000  0.000000e+000  9.999999e-001
    outer loop
      vertex -8.555430e+000  1.645638e+001  1.130000e+001
      vertex -7.777149e+000  1.742256e+001  1.130000e+001
      vertex -1.500000e+001  2.300000e+001  1.130000e+001
    endloop
  endfacet
  facet normal  0.000000e+000  0.000000e+000  1.000000e+000
    outer loop
      vertex -1.500000e+001  5.000000e+000  1.130000e+001
      vertex  1.500000e+001  5.000000e+000  1.130000e+001
      vertex -7.456376e+000  1.444457e+001  1.130000e+001
    endloop
  endfacet
  facet normal  0.000000e+000  0.000000e+000  1.000000e+000
    outer loop
      vertex -1.500000e+001  5.000000e+000  1.130000e+001
      vertex -7.456376e+000  1.444457e+001  1.130000e+001
      vertex -8.422562e+000  1.522285e+001  1.130000e+001
    endloop
  endfacet
  facet normal  0.000000e+000  0.000000e+000  1.000000e+000
    outer loop
      vertex -1.500000e+001  5.000000e+000  1.130000e+001
      vertex -8.422562e+000  1.522285e+001  1.130000e+001
      vertex -8.555430e+000  1.645638e+001  1.130000e+001
    endloop
  endfacet
  facet normal  0.000000e+000  0.000000e+000  9.999999e-001
    outer loop
      vertex -1.500000e+001  5.000000e+000  1.130000e+001
      vertex -8.555430e+000  1.645638e+001  1.130000e+001
      vertex -1.500000e+001  2.300000e+001  1.130000e+001
    endloop
  endfacet
  facet normal  0.000000e+000  0.000000e+000  1.000000e+000
    outer loop
      vertex  1.500000e+001  2.300000e+001  1.130000e+001
      vertex -7.777149e+000  1.742256e+001  1.130000e+001
      vertex -6.543624e+000  1.755543e+001  1.130000e+001
    endloop
  endfacet
  facet normal  -0.000000e+000  0.000000e+000  1.000000e+000
    outer loop
      vertex  1.500000e+001  2.300000e+001  1.130000e+001
      vertex -6.543624e+000  1.755543e+001  1.130000e+001
      vertex -5.577439e+000  1.677715e+001  1.130000e+001
    endloop
  endfacet
  facet normal  0.000000e+000  0.000000e+000  1.000000e+000
    outer loop
      vertex  1.500000e+001  2.300000e+001  1.130000e+001
      vertex -5.577439e+000  1.677715e+001  1.130000e+001
      vertex  7.222851e+000  1.742256e+001  1.130000e+001
    endloop
  endfacet
  facet normal  0.000000e+000  0.000000e+000  1.000000e+000
    outer loop
      vertex  1.500000e+001  2.300000e+001  1.130000e+001
      vertex  7.222851e+000  1.742256e+001  1.130000e+001
      vertex  8.456375e+000  1.755543e+001  1.130000e+001
    endloop
  endfacet
  facet normal  -0.000000e+000  0.000000e+000  1.000000e+000
    outer loop
      vertex  1.500000e+001  2.300000e+001  1.130000e+001
      vertex  8.456375e+000  1.755543e+001  1.130000e+001
      vertex  9.422562e+000  1.677715e+001  1.130000e+001
    endloop
  endfacet
  facet normal  -0.000000e+000  0.000000e+000  1.000000e+000
    outer loop
      vertex  1.500000e+001  2.300000e+001  1.130000e+001
      vertex  9.422562e+000  1.677715e+001  1.130000e+001
      vertex  9.555430e+000  1.554362e+001  1.130000e+001
    endloop
  endfacet
  facet normal  -0.000000e+000  0.000000e+000  1.000000e+000
    outer loop
      vertex  1.500000e+001  2.300000e+001  1.130000e+001
      vertex  9.555430e+000  1.554362e+001  1.130000e+001
      vertex  1.500000e+001  5.000000e+000  1.130000e+001
    endloop
  endfacet
  facet normal  0.000000e+000  0.000000e+000  1.000000e+000
    outer loop
      vertex  1.500000e+001  5.000000e+000  1.130000e+001
      vertex  9.555430e+000  1.554362e+001  1.130000e+001
      vertex  8.777149e+000  1.457744e+001  1.130000e+001
    endloop
  endfacet
  facet normal  0.000000e+000  0.000000e+000  1.000000e+000
    outer loop
      vertex  1.500000e+001  5.000000e+000  1.130000e+001
      vertex  8.777149e+000  1.457744e+001  1.130000e+001
      vertex  7.543624e+000  1.444457e+001  1.130000e+001
    endloop
  endfacet
  facet normal  0.000000e+000  0.000000e+000  1.000000e+000
    outer loop
      vertex  1.500000e+001  5.000000e+000  1.130000e+001
      vertex  7.543624e+000  1.444457e+001  1.130000e+001
      vertex  6.577439e+000  1.522285e+001  1.130000e+001
    endloop
  endfacet
  facet normal  0.000000e+000  0.000000e+000  1.000000e+000
    outer loop
      vertex  1.500000e+001  5.000000e+000  1.130000e+001
      vertex  6.577439e+000  1.522285e+001  1.130000e+001
      vertex -5.444570e+000  1.554362e+001  1.130000e+001
    endloop
  endfacet
  facet normal  0.000000e+000  0.000000e+000  1.000000e+000
    outer loop
      vertex  1.500000e+001  5.000000e+000  1.130000e+001
      vertex -5.444570e+000  1.554362e+001  1.130000e+001
      vertex -6.222851e+000  1.457744e+001  1.130000e+001
    endloop
  endfacet
  facet normal  0.000000e+000  0.000000e+000  1.000000e+000
    outer loop
      vertex  1.500000e+001  5.000000e+000  1.130000e+001
      vertex -6.222851e+000  1.457744e+001  1.130000e+001
      vertex -7.456376e+000  1.444457e+001  1.130000e+001
    endloop
  endfacet
  facet normal  0.000000e+000  0.000000e+000  1.000000e+000
    outer loop
      vertex  6.577439e+000  1.522285e+001  1.130000e+001
      vertex  6.444570e+000  1.645638e+001  1.130000e+001
      vertex -5.444570e+000  1.554362e+001  1.130000e+001
    endloop
  endfacet
  facet normal  0.000000e+000  0.000000e+000  1.000000e+000
    outer loop
      vertex -5.444570e+000  1.554362e+001  1.130000e+001
      vertex  6.444570e+000  1.645638e+001  1.130000e+001
      vertex  7.222851e+000  1.742256e+001  1.130000e+001
    endloop
  endfacet
  facet normal  0.000000e+000  0.000000e+000  1.000000e+000
    outer loop
      vertex -5.444570e+000  1.554362e+001  1.130000e+001
      vertex  7.222851e+000  1.742256e+001  1.130000e+001
      vertex -5.577439e+000  1.677715e+001  1.130000e+001
    endloop
  endfacet
  facet normal  0.000000e+000  9.238796e-001  3.826832e-001
    outer loop
      vertex  1.500000e+001  3.000000e+000  1.330000e+001
      vertex  1.500000e+001  3.585786e+000  1.188579e+001
      vertex -1.500000e+001  3.000000e+000  1.330000e+001
    endloop
  endfacet
  facet normal  0.000000e+000  9.238796e-001  3.826832e-001
    outer loop
      vertex -1.500000e+001  3.000000e+000  1.330000e+001
      vertex  1.500000e+001  3.585786e+000  1.188579e+001
      vertex -1.500000e+001  3.585786e+000  1.188579e+001
    endloop
  endfacet
  facet normal  0.000000e+000  3.826831e-001  9.238797e-001
    outer loop
      vertex  1.500000e+001  3.585786e+000  1.188579e+001
      vertex  1.500000e+001  5.000000e+000  1.130000e+001
      vertex -1.500000e+001  3.585786e+000  1.188579e+001
    endloop
  endfacet
  facet normal  0.000000e+000  3.826831e-001  9.238797e-001
    outer loop
      vertex -1.500000e+001  3.585786e+000  1.188579e+001
      vertex  1.500000e+001  5.000000e+000  1.130000e+001
      vertex -1.500000e+001  5.000000e+000  1.130000e+001
    endloop
  endfacet
  facet normal  0.000000e+000  0.000000e+000  1.000000e+000
    outer loop
      vertex -1.500000e+001  2.100000e+001 -8.300000e+000
      vertex -1.500000e+001  1.100000e+001 -8.300000e+000
      vertex  1.500000e+001  2.100000e+001 -8.300000e+000
    endloop
  endfacet
  facet normal  0.000000e+000  0.000000e+000  1.000000e+000
    outer loop
      vertex  1.500000e+001  2.100000e+001 -8.300000e+000
      vertex -1.500000e+001  1.100000e+001 -8.300000e+000
      vertex  1.500000e+001  1.100000e+001 -8.300000e+000
    endloop
  endfacet
  facet normal  0.000000e+000  1.000000e+000  0.000000e+000
    outer loop
      vertex  1.500000e+001  2.300000e+001 -1.130000e+001
      vertex -1.500000e+001  2.300000e+001 -1.130000e+001
      vertex  1.500000e+001  2.300000e+001 -1.030000e+001
    endloop
  endfacet
  facet normal  0.000000e+000  1.000000e+000  0.000000e+000
    outer loop
      vertex  1.500000e+001  2.300000e+001 -1.030000e+001
      vertex -1.500000e+001  2.300000e+001 -1.130000e+001
      vertex -1.500000e+001  2.300000e+001 -1.030000e+001
    endloop
  endfacet
  facet normal  0.000000e+000  3.826832e-001  9.238796e-001
    outer loop
      vertex -1.500000e+001  2.100000e+001 -8.300000e+000
      vertex  1.500000e+001  2.100000e+001 -8.300000e+000
      vertex -1.500000e+001  2.241421e+001 -8.885786e+000
    endloop
  endfacet
  facet normal  -0.000000e+000  3.826832e-001  9.238796e-001
    outer loop
      vertex -1.500000e+001  2.241421e+001 -8.885786e+000
      vertex  1.500000e+001  2.100000e+001 -8.300000e+000
      vertex  1.500000e+001  2.241421e+001 -8.885786e+000
    endloop
  endfacet
  facet normal  0.000000e+000  9.238796e-001  3.826836e-001
    outer loop
      vertex -1.500000e+001  2.241421e+001 -8.885786e+000
      vertex  1.500000e+001  2.241421e+001 -8.885786e+000
      vertex -1.500000e+001  2.300000e+001 -1.030000e+001
    endloop
  endfacet
  facet normal  -0.000000e+000  9.238796e-001  3.826836e-001
    outer loop
      vertex -1.500000e+001  2.300000e+001 -1.030000e+001
      vertex  1.500000e+001  2.241421e+001 -8.885786e+000
      vertex  1.500000e+001  2.300000e+001 -1.030000e+001
    endloop
  endfacet
  facet normal  -0.000000e+000  0.000000e+000  1.000000e+000
    outer loop
      vertex  1.500000e+001  1.000000e+000  2.130000e+001
      vertex -1.500000e+001  1.000000e+000  2.130000e+001
      vertex  1.500000e+001  0.000000e+000  2.130000e+001
    endloop
  endfacet
  facet normal  0.000000e+000  0.000000e+000  1.000000e+000
    outer loop
      vertex  1.500000e+001  0.000000e+000  2.130000e+001
      vertex -1.500000e+001  1.000000e+000  2.130000e+001
      vertex -1.500000e+001  0.000000e+000  2.130000e+001
    endloop
  endfacet
  facet normal  -0.000000e+000  9.238797e-001  3.826830e-001
    outer loop
      vertex  1.500000e+001  3.000000e+000  1.930000e+001
      vertex -1.500000e+001  3.000000e+000  1.930000e+001
      vertex  1.500000e+001  2.414214e+000  2.071421e+001
    endloop
  endfacet
  facet normal  0.000000e+000  9.238797e-001  3.826830e-001
    outer loop
      vertex  1.500000e+001  2.414214e+000  2.071421e+001
      vertex -1.500000e+001  3.000000e+000  1.930000e+001
      vertex -1.500000e+001  2.414214e+000  2.071421e+001
    endloop
  endfacet
  facet normal  -0.000000e+000  3.826826e-001  9.238799e-001
    outer loop
      vertex  1.500000e+001  2.414214e+000  2.071421e+001
      vertex -1.500000e+001  2.414214e+000  2.071421e+001
      vertex  1.500000e+001  1.000000e+000  2.130000e+001
    endloop
  endfacet
  facet normal  0.000000e+000  3.826826e-001  9.238799e-001
    outer loop
      vertex  1.500000e+001  1.000000e+000  2.130000e+001
      vertex -1.500000e+001  2.414214e+000  2.071421e+001
      vertex -1.500000e+001  1.000000e+000  2.130000e+001
    endloop
  endfacet
  facet normal  0.000000e+000  9.999999e-001  0.000000e+000
    outer loop
      vertex  1.500000e+001  9.000000e+000 -6.300000e+000
      vertex -1.500000e+001  9.000000e+000 -6.300000e+000
      vertex  1.500000e+001  9.000000e+000  6.300000e+000
    endloop
  endfacet
  facet normal  0.000000e+000  9.999999e-001  0.000000e+000
    outer loop
      vertex  1.500000e+001  9.000000e+000  6.300000e+000
      vertex -1.500000e+001  9.000000e+000 -6.300000e+000
      vertex -1.500000e+001  9.000000e+000  6.300000e+000
    endloop
  endfacet
  facet normal  0.000000e+000  9.238794e-001  3.826837e-001
    outer loop
      vertex  1.500000e+001  9.000000e+000 -6.300000e+000
      vertex  1.500000e+001  9.585787e+000 -7.714213e+000
      vertex -1.500000e+001  9.000000e+000 -6.300000e+000
    endloop
  endfacet
  facet normal  0.000000e+000  9.238794e-001  3.826837e-001
    outer loop
      vertex -1.500000e+001  9.000000e+000 -6.300000e+000
      vertex  1.500000e+001  9.585787e+000 -7.714213e+000
      vertex -1.500000e+001  9.585787e+000 -7.714213e+000
    endloop
  endfacet
  facet normal  0.000000e+000  3.826837e-001  9.238794e-001
    outer loop
      vertex  1.500000e+001  9.585787e+000 -7.714213e+000
      vertex  1.500000e+001  1.100000e+001 -8.300000e+000
      vertex -1.500000e+001  9.585787e+000 -7.714213e+000
    endloop
  endfacet
  facet normal  0.000000e+000  3.826837e-001  9.238794e-001
    outer loop
      vertex -1.500000e+001  9.585787e+000 -7.714213e+000
      vertex  1.500000e+001  1.100000e+001 -8.300000e+000
      vertex -1.500000e+001  1.100000e+001 -8.300000e+000
    endloop
  endfacet
  facet normal  0.000000e+000  0.000000e+000 -1.000000e+000
    outer loop
      vertex  1.500000e+001  1.000000e+000 -2.130000e+001
      vertex  1.500000e+001  0.000000e+000 -2.130000e+001
      vertex -1.500000e+001  1.000000e+000 -2.130000e+001
    endloop
  endfacet
  facet normal  0.000000e+000  0.000000e+000 -1.000000e+000
    outer loop
      vertex -1.500000e+001  1.000000e+000 -2.130000e+001
      vertex  1.500000e+001  0.000000e+000 -2.130000e+001
      vertex -1.500000e+001  0.000000e+000 -2.130000e+001
    endloop
  endfacet
  facet normal  0.000000e+000  3.826826e-001 -9.238799e-001
    outer loop
      vertex  1.500000e+001  1.000000e+000 -2.130000e+001
      vertex -1.500000e+001  1.000000e+000 -2.130000e+001
      vertex  1.500000e+001  2.414214e+000 -2.071421e+001
    endloop
  endfacet
  facet normal  0.000000e+000  3.826826e-001 -9.238799e-001
    outer loop
      vertex  1.500000e+001  2.414214e+000 -2.071421e+001
      vertex -1.500000e+001  1.000000e+000 -2.130000e+001
      vertex -1.500000e+001  2.414214e+000 -2.071421e+001
    endloop
  endfacet
  facet normal  0.000000e+000  9.238797e-001 -3.826830e-001
    outer loop
      vertex  1.500000e+001  2.414214e+000 -2.071421e+001
      vertex -1.500000e+001  2.414214e+000 -2.071421e+001
      vertex  1.500000e+001  3.000000e+000 -1.930000e+001
    endloop
  endfacet
  facet normal  0.000000e+000  9.238797e-001 -3.826830e-001
    outer loop
      vertex  1.500000e+001  3.000000e+000 -1.930000e+001
      vertex -1.500000e+001  2.414214e+000 -2.071421e+001
      vertex -1.500000e+001  3.000000e+000 -1.930000e+001
    endloop
  endfacet
  facet normal  0.000000e+000  0.000000e+000 -1.000000e+000
    outer loop
      vertex  6.577439e+000  1.522285e+001  8.300000e+000
      vertex  7.543624e+000  1.444457e+001  8.300000e+000
      vertex -5.444570e+000  1.554362e+001  8.300000e+000
    endloop
  endfacet
  facet normal  0.000000e+000  0.000000e+000 -1.000000e+000
    outer loop
      vertex  1.500000e+001  2.100000e+001  8.300000e+000
      vertex  1.500000e+001  1.100000e+001  8.300000e+000
      vertex  9.555430e+000  1.554362e+001  8.300000e+000
    endloop
  endfacet
  facet normal  0.000000e+000  0.000000e+000 -9.999999e-001
    outer loop
      vertex  1.500000e+001  2.100000e+001  8.300000e+000
      vertex  9.555430e+000  1.554362e+001  8.300000e+000
      vertex  9.422562e+000  1.677715e+001  8.300000e+000
    endloop
  endfacet
  facet normal  0.000000e+000  0.000000e+000 -1.000000e+000
    outer loop
      vertex  1.500000e+001  2.100000e+001  8.300000e+000
      vertex  9.422562e+000  1.677715e+001  8.300000e+000
      vertex  8.456375e+000  1.755543e+001  8.300000e+000
    endloop
  endfacet
  facet normal  -0.000000e+000  0.000000e+000 -1.000000e+000
    outer loop
      vertex  1.500000e+001  2.100000e+001  8.300000e+000
      vertex  8.456375e+000  1.755543e+001  8.300000e+000
      vertex  7.222851e+000  1.742256e+001  8.300000e+000
    endloop
  endfacet
  facet normal  -0.000000e+000  0.000000e+000 -1.000000e+000
    outer loop
      vertex  1.500000e+001  2.100000e+001  8.300000e+000
      vertex  7.222851e+000  1.742256e+001  8.300000e+000
      vertex -5.577439e+000  1.677715e+001  8.300000e+000
    endloop
  endfacet
  facet normal  0.000000e+000  0.000000e+000 -1.000000e+000
    outer loop
      vertex  1.500000e+001  2.100000e+001  8.300000e+000
      vertex -5.577439e+000  1.677715e+001  8.300000e+000
      vertex -6.543624e+000  1.755543e+001  8.300000e+000
    endloop
  endfacet
  facet normal  -0.000000e+000  0.000000e+000 -1.000000e+000
    outer loop
      vertex  1.500000e+001  2.100000e+001  8.300000e+000
      vertex -6.543624e+000  1.755543e+001  8.300000e+000
      vertex -7.777149e+000  1.742256e+001  8.300000e+000
    endloop
  endfacet
  facet normal  0.000000e+000  0.000000e+000 -1.000000e+000
    outer loop
      vertex  1.500000e+001  2.100000e+001  8.300000e+000
      vertex -7.777149e+000  1.742256e+001  8.300000e+000
      vertex -1.500000e+001  2.100000e+001  8.300000e+000
    endloop
  endfacet
  facet normal  0.000000e+000  0.000000e+000 -1.000000e+000
    outer loop
      vertex -1.500000e+001  1.100000e+001  8.300000e+000
      vertex -1.500000e+001  2.100000e+001  8.300000e+000
      vertex -7.777149e+000  1.742256e+001  8.300000e+000
    endloop
  endfacet
  facet normal  0.000000e+000  0.000000e+000 -9.999999e-001
    outer loop
      vertex -1.500000e+001  1.100000e+001  8.300000e+000
      vertex -7.777149e+000  1.742256e+001  8.300000e+000
      vertex -8.555430e+000  1.645638e+001  8.300000e+000
    endloop
  endfacet
  facet normal  0.000000e+000  -0.000000e+000 -1.000000e+000
    outer loop
      vertex -1.500000e+001  1.100000e+001  8.300000e+000
      vertex -8.555430e+000  1.645638e+001  8.300000e+000
      vertex -8.422562e+000  1.522285e+001  8.300000e+000
    endloop
  endfacet
  facet normal  0.000000e+000  -0.000000e+000 -1.000000e+000
    outer loop
      vertex -1.500000e+001  1.100000e+001  8.300000e+000
      vertex -8.422562e+000  1.522285e+001  8.300000e+000
      vertex -7.456376e+000  1.444457e+001  8.300000e+000
    endloop
  endfacet
  facet normal  0.000000e+000  -0.000000e+000 -1.000000e+000
    outer loop
      vertex -1.500000e+001  1.100000e+001  8.300000e+000
      vertex -7.456376e+000  1.444457e+001  8.300000e+000
      vertex  1.500000e+001  1.100000e+001  8.300000e+000
    endloop
  endfacet
  facet normal  0.000000e+000  0.000000e+000 -1.000000e+000
    outer loop
      vertex  1.500000e+001  1.100000e+001  8.300000e+000
      vertex -7.456376e+000  1.444457e+001  8.300000e+000
      vertex -6.222851e+000  1.457744e+001  8.300000e+000
    endloop
  endfacet
  facet normal  0.000000e+000  0.000000e+000 -1.000000e+000
    outer loop
      vertex  1.500000e+001  1.100000e+001  8.300000e+000
      vertex -6.222851e+000  1.457744e+001  8.300000e+000
      vertex -5.444570e+000  1.554362e+001  8.300000e+000
    endloop
  endfacet
  facet normal  0.000000e+000  0.000000e+000 -1.000000e+000
    outer loop
      vertex  1.500000e+001  1.100000e+001  8.300000e+000
      vertex -5.444570e+000  1.554362e+001  8.300000e+000
      vertex  7.543624e+000  1.444457e+001  8.300000e+000
    endloop
  endfacet
  facet normal  0.000000e+000  0.000000e+000 -1.000000e+000
    outer loop
      vertex  1.500000e+001  1.100000e+001  8.300000e+000
      vertex  7.543624e+000  1.444457e+001  8.300000e+000
      vertex  8.777149e+000  1.457744e+001  8.300000e+000
    endloop
  endfacet
  facet normal  0.000000e+000  0.000000e+000 -1.000000e+000
    outer loop
      vertex  1.500000e+001  1.100000e+001  8.300000e+000
      vertex  8.777149e+000  1.457744e+001  8.300000e+000
      vertex  9.555430e+000  1.554362e+001  8.300000e+000
    endloop
  endfacet
  facet normal  0.000000e+000  0.000000e+000 -1.000000e+000
    outer loop
      vertex -5.577439e+000  1.677715e+001  8.300000e+000
      vertex  7.222851e+000  1.742256e+001  8.300000e+000
      vertex -5.444570e+000  1.554362e+001  8.300000e+000
    endloop
  endfacet
  facet normal  0.000000e+000  0.000000e+000 -1.000000e+000
    outer loop
      vertex -5.444570e+000  1.554362e+001  8.300000e+000
      vertex  7.222851e+000  1.742256e+001  8.300000e+000
      vertex  6.444570e+000  1.645638e+001  8.300000e+000
    endloop
  endfacet
  facet normal  0.000000e+000  -0.000000e+000 -1.000000e+000
    outer loop
      vertex -5.444570e+000  1.554362e+001  8.300000e+000
      vertex  6.444570e+000  1.645638e+001  8.300000e+000
      vertex  6.577439e+000  1.522285e+001  8.300000e+000
    endloop
  endfacet
  facet normal  0.000000e+000  1.000000e+000  0.000000e+000
    outer loop
      vertex  1.500000e+001  2.300000e+001  1.030000e+001
      vertex -1.500000e+001  2.300000e+001  1.030000e+001
      vertex  1.500000e+001  2.300000e+001  1.130000e+001
    endloop
  endfacet
  facet normal  0.000000e+000  1.000000e+000  0.000000e+000
    outer loop
      vertex  1.500000e+001  2.300000e+001  1.130000e+001
      vertex -1.500000e+001  2.300000e+001  1.030000e+001
      vertex -1.500000e+001  2.300000e+001  1.130000e+001
    endloop
  endfacet
  facet normal  0.000000e+000  3.826832e-001 -9.238796e-001
    outer loop
      vertex  1.500000e+001  2.100000e+001  8.300000e+000
      vertex -1.500000e+001  2.100000e+001  8.300000e+000
      vertex  1.500000e+001  2.241421e+001  8.885786e+000
    endloop
  endfacet
  facet normal  0.000000e+000  3.826832e-001 -9.238796e-001
    outer loop
      vertex  1.500000e+001  2.241421e+001  8.885786e+000
      vertex -1.500000e+001  2.100000e+001  8.300000e+000
      vertex -1.500000e+001  2.241421e+001  8.885786e+000
    endloop
  endfacet
  facet normal  0.000000e+000  9.238796e-001 -3.826836e-001
    outer loop
      vertex  1.500000e+001  2.241421e+001  8.885786e+000
      vertex -1.500000e+001  2.241421e+001  8.885786e+000
      vertex  1.500000e+001  2.300000e+001  1.030000e+001
    endloop
  endfacet
  facet normal  0.000000e+000  9.238796e-001 -3.826836e-001
    outer loop
      vertex  1.500000e+001  2.300000e+001  1.030000e+001
      vertex -1.500000e+001  2.241421e+001  8.885786e+000
      vertex -1.500000e+001  2.300000e+001  1.030000e+001
    endloop
  endfacet
  facet normal  0.000000e+000  3.826837e-001 -9.238794e-001
    outer loop
      vertex  1.500000e+001  1.100000e+001  8.300000e+000
      vertex  1.500000e+001  9.585787e+000  7.714213e+000
      vertex -1.500000e+001  1.100000e+001  8.300000e+000
    endloop
  endfacet
  facet normal  0.000000e+000  3.826837e-001 -9.238794e-001
    outer loop
      vertex -1.500000e+001  1.100000e+001  8.300000e+000
      vertex  1.500000e+001  9.585787e+000  7.714213e+000
      vertex -1.500000e+001  9.585787e+000  7.714213e+000
    endloop
  endfacet
  facet normal  0.000000e+000  9.238794e-001 -3.826837e-001
    outer loop
      vertex  1.500000e+001  9.585787e+000  7.714213e+000
      vertex  1.500000e+001  9.000000e+000  6.300000e+000
      vertex -1.500000e+001  9.585787e+000  7.714213e+000
    endloop
  endfacet
  facet normal  0.000000e+000  9.238794e-001 -3.826837e-001
    outer loop
      vertex -1.500000e+001  9.585787e+000  7.714213e+000
      vertex  1.500000e+001  9.000000e+000  6.300000e+000
      vertex -1.500000e+001  9.000000e+000  6.300000e+000
    endloop
  endfacet
  facet normal  -0.000000e+000 -1.000000e+000  0.000000e+000
    outer loop
      vertex -9.367358e+000  0.000000e+000  1.670119e+001
      vertex -8.683182e+000  0.000000e+000  1.755055e+001
      vertex -1.500000e+001  0.000000e+000  2.130000e+001
    endloop
  endfacet
  facet normal  0.000000e+000 -9.999999e-001  0.000000e+000
    outer loop
      vertex  1.500000e+001  0.000000e+000  2.130000e+001
      vertex -1.500000e+001  0.000000e+000  2.130000e+001
      vertex -8.683182e+000  0.000000e+000  1.755055e+001
    endloop
  endfacet
  facet normal  0.000000e+000 -1.000000e+000  0.000000e+000
    outer loop
      vertex  1.500000e+001  0.000000e+000  2.130000e+001
      vertex -8.683182e+000  0.000000e+000  1.755055e+001
      vertex -7.598806e+000  0.000000e+000  1.766736e+001
    endloop
  endfacet
  facet normal -8.697984e-017 -1.000000e+000  5.411051e-016
    outer loop
      vertex  1.500000e+001  0.000000e+000  2.130000e+001
      vertex -7.598806e+000  0.000000e+000  1.766736e+001
      vertex -6.749445e+000 -4.440892e-016  1.698318e+001
    endloop
  endfacet
  facet normal  3.441584e-017 -1.000000e+000 -7.052327e-017
    outer loop
      vertex  1.500000e+001  0.000000e+000  2.130000e+001
      vertex -6.749445e+000 -4.440892e-016  1.698318e+001
      vertex  7.316819e+000  0.000000e+000  1.755055e+001
    endloop
  endfacet
  facet normal  0.000000e+000 -1.000000e+000  0.000000e+000
    outer loop
      vertex  1.500000e+001  0.000000e+000  2.130000e+001
      vertex  7.316819e+000  0.000000e+000  1.755055e+001
      vertex  8.401194e+000  0.000000e+000  1.766736e+001
    endloop
  endfacet
  facet normal -2.122603e-016 -9.999999e-001  3.855776e-016
    outer loop
      vertex  1.500000e+001  0.000000e+000  2.130000e+001
      vertex  8.401194e+000  0.000000e+000  1.766736e+001
      vertex  9.250555e+000 -4.440892e-016  1.698318e+001
    endloop
  endfacet
  facet normal  7.724036e-017 -1.000000e+000  0.000000e+000
    outer loop
      vertex  1.500000e+001  0.000000e+000  2.130000e+001
      vertex  9.250555e+000 -4.440892e-016  1.698318e+001
      vertex  1.500000e+001  0.000000e+000 -2.130000e+001
    endloop
  endfacet
  facet normal -9.370401e-015 -1.000000e+000 -1.418866e-015
    outer loop
      vertex  1.500000e+001  0.000000e+000 -2.130000e+001
      vertex  9.250555e+000 -4.440892e-016  1.698318e+001
      vertex  9.367358e+000  0.000000e+000  1.589881e+001
    endloop
  endfacet
  facet normal  0.000000e+000 -9.999999e-001  -0.000000e+000
    outer loop
      vertex  1.500000e+001  0.000000e+000 -2.130000e+001
      vertex  9.367358e+000  0.000000e+000  1.589881e+001
      vertex  8.683182e+000  0.000000e+000  1.504945e+001
    endloop
  endfacet
  facet normal  9.326040e-017 -1.000000e+000  1.620682e-017
    outer loop
      vertex  1.500000e+001  0.000000e+000 -2.130000e+001
      vertex  8.683182e+000  0.000000e+000  1.504945e+001
      vertex  9.250555e+000 -4.440892e-016 -1.561682e+001
    endloop
  endfacet
  facet normal -3.666077e-016 -1.000000e+000 -4.490232e-016
    outer loop
      vertex  1.500000e+001  0.000000e+000 -2.130000e+001
      vertex  9.250555e+000 -4.440892e-016 -1.561682e+001
      vertex  9.367358e+000  0.000000e+000 -1.670119e+001
    endloop
  endfacet
  facet normal  0.000000e+000 -1.000000e+000  -0.000000e+000
    outer loop
      vertex  1.500000e+001  0.000000e+000 -2.130000e+001
      vertex  9.367358e+000  0.000000e+000 -1.670119e+001
      vertex  8.683182e+000  0.000000e+000 -1.755055e+001
    endloop
  endfacet
  facet normal  0.000000e+000 -1.000000e+000  -0.000000e+000
    outer loop
      vertex  1.500000e+001  0.000000e+000 -2.130000e+001
      vertex  8.683182e+000  0.000000e+000 -1.755055e+001
      vertex  7.598806e+000  0.000000e+000 -1.766736e+001
    endloop
  endfacet
  facet normal  -0.000000e+000 -1.000000e+000  -0.000000e+000
    outer loop
      vertex  1.500000e+001  0.000000e+000 -2.130000e+001
      vertex  7.598806e+000  0.000000e+000 -1.766736e+001
      vertex -7.316819e+000  0.000000e+000 -1.755055e+001
    endloop
  endfacet
  facet normal  0.000000e+000 -9.999999e-001  -0.000000e+000
    outer loop
      vertex  1.500000e+001  0.000000e+000 -2.130000e+001
      vertex -7.316819e+000  0.000000e+000 -1.755055e+001
      vertex -8.401194e+000  0.000000e+000 -1.766736e+001
    endloop
  endfacet
  facet normal  0.000000e+000 -9.999999e-001  -0.000000e+000
    outer loop
      vertex  1.500000e+001  0.000000e+000 -2.130000e+001
      vertex -8.401194e+000  0.000000e+000 -1.766736e+001
      vertex -1.500000e+001  0.000000e+000 -2.130000e+001
    endloop
  endfacet
  facet normal  -0.000000e+000 -9.999999e-001  0.000000e+000
    outer loop
      vertex -1.500000e+001  0.000000e+000 -2.130000e+001
      vertex -8.401194e+000  0.000000e+000 -1.766736e+001
      vertex -9.250555e+000  0.000000e+000 -1.698318e+001
    endloop
  endfacet
  facet normal  -0.000000e+000 -1.000000e+000  0.000000e+000
    outer loop
      vertex -1.500000e+001  0.000000e+000 -2.130000e+001
      vertex -9.250555e+000  0.000000e+000 -1.698318e+001
      vertex -9.367358e+000  0.000000e+000 -1.589881e+001
    endloop
  endfacet
  facet normal  -0.000000e+000 -1.000000e+000  0.000000e+000
    outer loop
      vertex -1.500000e+001  0.000000e+000 -2.130000e+001
      vertex -9.367358e+000  0.000000e+000 -1.589881e+001
      vertex -8.683182e+000  0.000000e+000 -1.504945e+001
    endloop
  endfacet
  facet normal  -0.000000e+000 -1.000000e+000  0.000000e+000
    outer loop
      vertex -1.500000e+001  0.000000e+000 -2.130000e+001
      vertex -8.683182e+000  0.000000e+000 -1.504945e+001
      vertex -8.401194e+000  0.000000e+000  1.493264e+001
    endloop
  endfacet
  facet normal  -0.000000e+000 -1.000000e+000  0.000000e+000
    outer loop
      vertex -1.500000e+001  0.000000e+000 -2.130000e+001
      vertex -8.401194e+000  0.000000e+000  1.493264e+001
      vertex -9.250555e+000  0.000000e+000  1.561682e+001
    endloop
  endfacet
  facet normal  -0.000000e+000 -1.000000e+000  0.000000e+000
    outer loop
      vertex -1.500000e+001  0.000000e+000 -2.130000e+001
      vertex -9.250555e+000  0.000000e+000  1.561682e+001
      vertex -9.367358e+000  0.000000e+000  1.670119e+001
    endloop
  endfacet
  facet normal  -0.000000e+000 -1.000000e+000  0.000000e+000
    outer loop
      vertex -1.500000e+001  0.000000e+000 -2.130000e+001
      vertex -9.367358e+000  0.000000e+000  1.670119e+001
      vertex -1.500000e+001  0.000000e+000  2.130000e+001
    endloop
  endfacet
  facet normal  0.000000e+000 -1.000000e+000  -0.000000e+000
    outer loop
      vertex  7.598806e+000  0.000000e+000  1.493264e+001
      vertex -7.316819e+000  0.000000e+000  1.504945e+001
      vertex -7.598806e+000  0.000000e+000 -1.493264e+001
    endloop
  endfacet
  facet normal  0.000000e+000 -1.000000e+000  0.000000e+000
    outer loop
      vertex -7.598806e+000  0.000000e+000 -1.493264e+001
      vertex -7.316819e+000  0.000000e+000  1.504945e+001
      vertex -8.401194e+000  0.000000e+000  1.493264e+001
    endloop
  endfacet
  facet normal  0.000000e+000 -1.000000e+000  -0.000000e+000
    outer loop
      vertex -7.598806e+000  0.000000e+000 -1.493264e+001
      vertex -8.401194e+000  0.000000e+000  1.493264e+001
      vertex -8.683182e+000  0.000000e+000 -1.504945e+001
    endloop
  endfacet
  facet normal -5.189193e-016 -9.999999e-001  4.880550e-018
    outer loop
      vertex  9.250555e+000 -4.440892e-016 -1.561682e+001
      vertex  8.683182e+000  0.000000e+000  1.504945e+001
      vertex  8.401194e+000  0.000000e+000 -1.493264e+001
    endloop
  endfacet
  facet normal  0.000000e+000 -1.000000e+000  0.000000e+000
    outer loop
      vertex  8.401194e+000  0.000000e+000 -1.493264e+001
      vertex  8.683182e+000  0.000000e+000  1.504945e+001
      vertex  7.598806e+000  0.000000e+000  1.493264e+001
    endloop
  endfacet
  facet normal  0.000000e+000 -1.000000e+000  -0.000000e+000
    outer loop
      vertex  8.401194e+000  0.000000e+000 -1.493264e+001
      vertex  7.598806e+000  0.000000e+000  1.493264e+001
      vertex  7.316819e+000  0.000000e+000 -1.504945e+001
    endloop
  endfacet
  facet normal  0.000000e+000 -1.000000e+000  0.000000e+000
    outer loop
      vertex  7.316819e+000  0.000000e+000 -1.504945e+001
      vertex  7.598806e+000  0.000000e+000  1.493264e+001
      vertex -7.598806e+000  0.000000e+000 -1.493264e+001
    endloop
  endfacet
  facet normal  5.132843e-018 -1.000000e+000  6.554579e-016
    outer loop
      vertex  7.316819e+000  0.000000e+000 -1.504945e+001
      vertex -7.598806e+000  0.000000e+000 -1.493264e+001
      vertex -6.749445e+000 -4.440892e-016 -1.561682e+001
    endloop
  endfacet
  facet normal  3.263147e-017 -1.000000e+000 -2.628531e-017
    outer loop
      vertex  7.316819e+000  0.000000e+000  1.755055e+001
      vertex -6.749445e+000 -4.440892e-016  1.698318e+001
      vertex  6.632642e+000  0.000000e+000  1.670119e+001
    endloop
  endfacet
  facet normal  2.461152e-017 -9.999999e-001 -4.068839e-016
    outer loop
      vertex  6.632642e+000  0.000000e+000  1.670119e+001
      vertex -6.749445e+000 -4.440892e-016  1.698318e+001
      vertex -6.632642e+000  0.000000e+000  1.589881e+001
    endloop
  endfacet
  facet normal  0.000000e+000 -1.000000e+000  0.000000e+000
    outer loop
      vertex  6.632642e+000  0.000000e+000  1.670119e+001
      vertex -6.632642e+000  0.000000e+000  1.589881e+001
      vertex  6.749445e+000  0.000000e+000  1.561682e+001
    endloop
  endfacet
  facet normal  -0.000000e+000 -1.000000e+000  0.000000e+000
    outer loop
      vertex  6.749445e+000  0.000000e+000  1.561682e+001
      vertex -6.632642e+000  0.000000e+000  1.589881e+001
      vertex -7.316819e+000  0.000000e+000  1.504945e+001
    endloop
  endfacet
  facet normal  0.000000e+000 -1.000000e+000  0.000000e+000
    outer loop
      vertex  6.749445e+000  0.000000e+000  1.561682e+001
      vertex -7.316819e+000  0.000000e+000  1.504945e+001
      vertex  7.598806e+000  0.000000e+000  1.493264e+001
    endloop
  endfacet
  facet normal  3.263146e-017 -1.000000e+000 -2.628525e-017
    outer loop
      vertex  7.316819e+000  0.000000e+000 -1.504945e+001
      vertex -6.749445e+000 -4.440892e-016 -1.561682e+001
      vertex  6.632642e+000  0.000000e+000 -1.589881e+001
    endloop
  endfacet
  facet normal  2.461148e-017 -1.000000e+000 -4.068832e-016
    outer loop
      vertex  6.632642e+000  0.000000e+000 -1.589881e+001
      vertex -6.749445e+000 -4.440892e-016 -1.561682e+001
      vertex -6.632642e+000  0.000000e+000 -1.670119e+001
    endloop
  endfacet
  facet normal -2.461152e-017 -9.999999e-001  4.068839e-016
    outer loop
      vertex  6.632642e+000  0.000000e+000 -1.589881e+001
      vertex -6.632642e+000  0.000000e+000 -1.670119e+001
      vertex  6.749445e+000 -4.440892e-016 -1.698318e+001
    endloop
  endfacet
  facet normal -3.263147e-017 -1.000000e+000  2.628531e-017
    outer loop
      vertex  6.749445e+000 -4.440892e-016 -1.698318e+001
      vertex -6.632642e+000  0.000000e+000 -1.670119e+001
      vertex -7.316819e+000  0.000000e+000 -1.755055e+001
    endloop
  endfacet
  facet normal -5.132878e-018 -1.000000e+000 -6.554570e-016
    outer loop
      vertex  6.749445e+000 -4.440892e-016 -1.698318e+001
      vertex -7.316819e+000  0.000000e+000 -1.755055e+001
      vertex  7.598806e+000  0.000000e+000 -1.766736e+001
    endloop
  endfacet
  facet normal  7.787673e-001  0.000000e+000 -6.273130e-001
    outer loop
      vertex -8.683182e+000  3.000000e+000  1.755055e+001
      vertex -9.367358e+000  0.000000e+000  1.670119e+001
      vertex -9.367358e+000  3.000000e+000  1.670119e+001
    endloop
  endfacet
  facet normal  9.942487e-001  0.000000e+000  1.070951e-001
    outer loop
      vertex -9.367358e+000  3.000000e+000  1.670119e+001
      vertex -9.367358e+000  0.000000e+000  1.670119e+001
      vertex -9.250555e+000  0.000000e+000  1.561682e+001
    endloop
  endfacet
  facet normal  9.942487e-001  -0.000000e+000  1.070951e-001
    outer loop
      vertex -9.367358e+000  3.000000e+000  1.670119e+001
      vertex -9.250555e+000  0.000000e+000  1.561682e+001
      vertex -9.250555e+000  3.000000e+000  1.561682e+001
    endloop
  endfacet
  facet normal  7.787673e-001  0.000000e+000 -6.273130e-001
    outer loop
      vertex -9.367358e+000  0.000000e+000  1.670119e+001
      vertex -8.683182e+000  3.000000e+000  1.755055e+001
      vertex -8.683182e+000  0.000000e+000  1.755055e+001
    endloop
  endfacet
  facet normal  1.070961e-001  0.000000e+000 -9.942487e-001
    outer loop
      vertex -8.683182e+000  0.000000e+000  1.755055e+001
      vertex -8.683182e+000  3.000000e+000  1.755055e+001
      vertex -7.598806e+000  3.000000e+000  1.766736e+001
    endloop
  endfacet
  facet normal  1.070961e-001  0.000000e+000 -9.942487e-001
    outer loop
      vertex -8.683182e+000  0.000000e+000  1.755055e+001
      vertex -7.598806e+000  3.000000e+000  1.766736e+001
      vertex -7.598806e+000  0.000000e+000  1.766736e+001
    endloop
  endfacet
  facet normal -6.273127e-001  0.000000e+000 -7.787676e-001
    outer loop
      vertex -7.598806e+000  0.000000e+000  1.766736e+001
      vertex -7.598806e+000  3.000000e+000  1.766736e+001
      vertex -6.749445e+000  3.000000e+000  1.698318e+001
    endloop
  endfacet
  facet normal -6.273127e-001  -0.000000e+000 -7.787676e-001
    outer loop
      vertex -7.598806e+000  0.000000e+000  1.766736e+001
      vertex -6.749445e+000  3.000000e+000  1.698318e+001
      vertex -6.749445e+000 -4.440892e-016  1.698318e+001
    endloop
  endfacet
  facet normal -7.787677e-001  0.000000e+000  6.273124e-001
    outer loop
      vertex -7.316819e+000  3.000000e+000  1.504945e+001
      vertex -6.632642e+000  0.000000e+000  1.589881e+001
      vertex -6.632642e+000  3.000000e+000  1.589881e+001
    endloop
  endfacet
  facet normal -9.942487e-001  -0.000000e+000 -1.070953e-001
    outer loop
      vertex -6.632642e+000  3.000000e+000  1.589881e+001
      vertex -6.632642e+000  0.000000e+000  1.589881e+001
      vertex -6.749445e+000 -4.440892e-016  1.698318e+001
    endloop
  endfacet
  facet normal -9.942487e-001  0.000000e+000 -1.070953e-001
    outer loop
      vertex -6.632642e+000  3.000000e+000  1.589881e+001
      vertex -6.749445e+000 -4.440892e-016  1.698318e+001
      vertex -6.749445e+000  3.000000e+000  1.698318e+001
    endloop
  endfacet
  facet normal -7.787677e-001  0.000000e+000  6.273124e-001
    outer loop
      vertex -6.632642e+000  0.000000e+000  1.589881e+001
      vertex -7.316819e+000  3.000000e+000  1.504945e+001
      vertex -7.316819e+000  0.000000e+000  1.504945e+001
    endloop
  endfacet
  facet normal -1.070953e-001  0.000000e+000  9.942488e-001
    outer loop
      vertex -7.316819e+000  0.000000e+000  1.504945e+001
      vertex -7.316819e+000  3.000000e+000  1.504945e+001
      vertex -8.401194e+000  3.000000e+000  1.493264e+001
    endloop
  endfacet
  facet normal -1.070953e-001  0.000000e+000  9.942488e-001
    outer loop
      vertex -7.316819e+000  0.000000e+000  1.504945e+001
      vertex -8.401194e+000  3.000000e+000  1.493264e+001
      vertex -8.401194e+000  0.000000e+000  1.493264e+001
    endloop
  endfacet
  facet normal  6.273121e-001  -0.000000e+000  7.787679e-001
    outer loop
      vertex -8.401194e+000  0.000000e+000  1.493264e+001
      vertex -8.401194e+000  3.000000e+000  1.493264e+001
      vertex -9.250555e+000  3.000000e+000  1.561682e+001
    endloop
  endfacet
  facet normal  6.273121e-001  0.000000e+000  7.787679e-001
    outer loop
      vertex -8.401194e+000  0.000000e+000  1.493264e+001
      vertex -9.250555e+000  3.000000e+000  1.561682e+001
      vertex -9.250555e+000  0.000000e+000  1.561682e+001
    endloop
  endfacet
  facet normal  7.787670e-001  0.000000e+000 -6.273132e-001
    outer loop
      vertex  7.316819e+000  3.000000e+000  1.755055e+001
      vertex  6.632642e+000  0.000000e+000  1.670119e+001
      vertex  6.632642e+000  3.000000e+000  1.670119e+001
    endloop
  endfacet
  facet normal  9.942487e-001  0.000000e+000  1.070951e-001
    outer loop
      vertex  6.632642e+000  3.000000e+000  1.670119e+001
      vertex  6.632642e+000  0.000000e+000  1.670119e+001
      vertex  6.749445e+000  0.000000e+000  1.561682e+001
    endloop
  endfacet
  facet normal  9.942487e-001  -0.000000e+000  1.070951e-001
    outer loop
      vertex  6.632642e+000  3.000000e+000  1.670119e+001
      vertex  6.749445e+000  0.000000e+000  1.561682e+001
      vertex  6.749445e+000  3.000000e+000  1.561682e+001
    endloop
  endfacet
  facet normal  7.787670e-001  0.000000e+000 -6.273132e-001
    outer loop
      vertex  6.632642e+000  0.000000e+000  1.670119e+001
      vertex  7.316819e+000  3.000000e+000  1.755055e+001
      vertex  7.316819e+000  0.000000e+000  1.755055e+001
    endloop
  endfacet
  facet normal  1.070961e-001  0.000000e+000 -9.942486e-001
    outer loop
      vertex  7.316819e+000  0.000000e+000  1.755055e+001
      vertex  7.316819e+000  3.000000e+000  1.755055e+001
      vertex  8.401194e+000  3.000000e+000  1.766736e+001
    endloop
  endfacet
  facet normal  1.070961e-001  0.000000e+000 -9.942486e-001
    outer loop
      vertex  7.316819e+000  0.000000e+000  1.755055e+001
      vertex  8.401194e+000  3.000000e+000  1.766736e+001
      vertex  8.401194e+000  0.000000e+000  1.766736e+001
    endloop
  endfacet
  facet normal -6.273127e-001  0.000000e+000 -7.787676e-001
    outer loop
      vertex  8.401194e+000  0.000000e+000  1.766736e+001
      vertex  8.401194e+000  3.000000e+000  1.766736e+001
      vertex  9.250555e+000  3.000000e+000  1.698318e+001
    endloop
  endfacet
  facet normal -6.273127e-001  -0.000000e+000 -7.787676e-001
    outer loop
      vertex  8.401194e+000  0.000000e+000  1.766736e+001
      vertex  9.250555e+000  3.000000e+000  1.698318e+001
      vertex  9.250555e+000 -4.440892e-016  1.698318e+001
    endloop
  endfacet
  facet normal -7.787679e-001  0.000000e+000  6.273121e-001
    outer loop
      vertex  8.683182e+000  3.000000e+000  1.504945e+001
      vertex  9.367358e+000  0.000000e+000  1.589881e+001
      vertex  9.367358e+000  3.000000e+000  1.589881e+001
    endloop
  endfacet
  facet normal -9.942487e-001  -0.000000e+000 -1.070953e-001
    outer loop
      vertex  9.367358e+000  3.000000e+000  1.589881e+001
      vertex  9.367358e+000  0.000000e+000  1.589881e+001
      vertex  9.250555e+000 -4.440892e-016  1.698318e+001
    endloop
  endfacet
  facet normal -9.942487e-001  0.000000e+000 -1.070953e-001
    outer loop
      vertex  9.367358e+000  3.000000e+000  1.589881e+001
      vertex  9.250555e+000 -4.440892e-016  1.698318e+001
      vertex  9.250555e+000  3.000000e+000  1.698318e+001
    endloop
  endfacet
  facet normal -7.787679e-001  0.000000e+000  6.273121e-001
    outer loop
      vertex  9.367358e+000  0.000000e+000  1.589881e+001
      vertex  8.683182e+000  3.000000e+000  1.504945e+001
      vertex  8.683182e+000  0.000000e+000  1.504945e+001
    endloop
  endfacet
  facet normal -1.070952e-001  0.000000e+000  9.942487e-001
    outer loop
      vertex  8.683182e+000  0.000000e+000  1.504945e+001
      vertex  8.683182e+000  3.000000e+000  1.504945e+001
      vertex  7.598806e+000  3.000000e+000  1.493264e+001
    endloop
  endfacet
  facet normal -1.070952e-001  0.000000e+000  9.942487e-001
    outer loop
      vertex  8.683182e+000  0.000000e+000  1.504945e+001
      vertex  7.598806e+000  3.000000e+000  1.493264e+001
      vertex  7.598806e+000  0.000000e+000  1.493264e+001
    endloop
  endfacet
  facet normal  6.273121e-001  -0.000000e+000  7.787679e-001
    outer loop
      vertex  7.598806e+000  0.000000e+000  1.493264e+001
      vertex  7.598806e+000  3.000000e+000  1.493264e+001
      vertex  6.749445e+000  3.000000e+000  1.561682e+001
    endloop
  endfacet
  facet normal  6.273121e-001  0.000000e+000  7.787679e-001
    outer loop
      vertex  7.598806e+000  0.000000e+000  1.493264e+001
      vertex  6.749445e+000  3.000000e+000  1.561682e+001
      vertex  6.749445e+000  0.000000e+000  1.561682e+001
    endloop
  endfacet
  facet normal  7.787679e-001  0.000000e+000 -6.273121e-001
    outer loop
      vertex -8.683182e+000  3.000000e+000 -1.504945e+001
      vertex -9.367358e+000  0.000000e+000 -1.589881e+001
      vertex -9.367358e+000  3.000000e+000 -1.589881e+001
    endloop
  endfacet
  facet normal  9.942487e-001  0.000000e+000  1.070953e-001
    outer loop
      vertex -9.367358e+000  3.000000e+000 -1.589881e+001
      vertex -9.367358e+000  0.000000e+000 -1.589881e+001
      vertex -9.250555e+000  0.000000e+000 -1.698318e+001
    endloop
  endfacet
  facet normal  9.942487e-001  -0.000000e+000  1.070953e-001
    outer loop
      vertex -9.367358e+000  3.000000e+000 -1.589881e+001
      vertex -9.250555e+000  0.000000e+000 -1.698318e+001
      vertex -9.250555e+000  3.000000e+000 -1.698318e+001
    endloop
  endfacet
  facet normal  7.787679e-001  0.000000e+000 -6.273121e-001
    outer loop
      vertex -9.367358e+000  0.000000e+000 -1.589881e+001
      vertex -8.683182e+000  3.000000e+000 -1.504945e+001
      vertex -8.683182e+000  0.000000e+000 -1.504945e+001
    endloop
  endfacet
  facet normal  1.070952e-001  0.000000e+000 -9.942487e-001
    outer loop
      vertex -8.683182e+000  0.000000e+000 -1.504945e+001
      vertex -8.683182e+000  3.000000e+000 -1.504945e+001
      vertex -7.598806e+000  3.000000e+000 -1.493264e+001
    endloop
  endfacet
  facet normal  1.070952e-001  0.000000e+000 -9.942487e-001
    outer loop
      vertex -8.683182e+000  0.000000e+000 -1.504945e+001
      vertex -7.598806e+000  3.000000e+000 -1.493264e+001
      vertex -7.598806e+000  0.000000e+000 -1.493264e+001
    endloop
  endfacet
  facet normal -6.273121e-001  0.000000e+000 -7.787679e-001
    outer loop
      vertex -7.598806e+000  0.000000e+000 -1.493264e+001
      vertex -7.598806e+000  3.000000e+000 -1.493264e+001
      vertex -6.749445e+000  3.000000e+000 -1.561682e+001
    endloop
  endfacet
  facet normal -6.273121e-001  -0.000000e+000 -7.787679e-001
    outer loop
      vertex -7.598806e+000  0.000000e+000 -1.493264e+001
      vertex -6.749445e+000  3.000000e+000 -1.561682e+001
      vertex -6.749445e+000 -4.440892e-016 -1.561682e+001
    endloop
  endfacet
  facet normal -7.787670e-001  0.000000e+000  6.273132e-001
    outer loop
      vertex -7.316819e+000  3.000000e+000 -1.755055e+001
      vertex -6.632642e+000  0.000000e+000 -1.670119e+001
      vertex -6.632642e+000  3.000000e+000 -1.670119e+001
    endloop
  endfacet
  facet normal -9.942487e-001  -0.000000e+000 -1.070951e-001
    outer loop
      vertex -6.632642e+000  3.000000e+000 -1.670119e+001
      vertex -6.632642e+000  0.000000e+000 -1.670119e+001
      vertex -6.749445e+000 -4.440892e-016 -1.561682e+001
    endloop
  endfacet
  facet normal -9.942487e-001  0.000000e+000 -1.070951e-001
    outer loop
      vertex -6.632642e+000  3.000000e+000 -1.670119e+001
      vertex -6.749445e+000 -4.440892e-016 -1.561682e+001
      vertex -6.749445e+000  3.000000e+000 -1.561682e+001
    endloop
  endfacet
  facet normal -7.787670e-001  0.000000e+000  6.273132e-001
    outer loop
      vertex -6.632642e+000  0.000000e+000 -1.670119e+001
      vertex -7.316819e+000  3.000000e+000 -1.755055e+001
      vertex -7.316819e+000  0.000000e+000 -1.755055e+001
    endloop
  endfacet
  facet normal -1.070961e-001  0.000000e+000  9.942486e-001
    outer loop
      vertex -7.316819e+000  0.000000e+000 -1.755055e+001
      vertex -7.316819e+000  3.000000e+000 -1.755055e+001
      vertex -8.401194e+000  3.000000e+000 -1.766736e+001
    endloop
  endfacet
  facet normal -1.070961e-001  0.000000e+000  9.942486e-001
    outer loop
      vertex -7.316819e+000  0.000000e+000 -1.755055e+001
      vertex -8.401194e+000  3.000000e+000 -1.766736e+001
      vertex -8.401194e+000  0.000000e+000 -1.766736e+001
    endloop
  endfacet
  facet normal  6.273127e-001  -0.000000e+000  7.787676e-001
    outer loop
      vertex -8.401194e+000  0.000000e+000 -1.766736e+001
      vertex -8.401194e+000  3.000000e+000 -1.766736e+001
      vertex -9.250555e+000  3.000000e+000 -1.698318e+001
    endloop
  endfacet
  facet normal  6.273127e-001  0.000000e+000  7.787676e-001
    outer loop
      vertex -8.401194e+000  0.000000e+000 -1.766736e+001
      vertex -9.250555e+000  3.000000e+000 -1.698318e+001
      vertex -9.250555e+000  0.000000e+000 -1.698318e+001
    endloop
  endfacet
  facet normal  7.787677e-001  0.000000e+000 -6.273124e-001
    outer loop
      vertex  7.316819e+000  3.000000e+000 -1.504945e+001
      vertex  6.632642e+000  0.000000e+000 -1.589881e+001
      vertex  6.632642e+000  3.000000e+000 -1.589881e+001
    endloop
  endfacet
  facet normal  9.942487e-001  0.000000e+000  1.070953e-001
    outer loop
      vertex  6.632642e+000  3.000000e+000 -1.589881e+001
      vertex  6.632642e+000  0.000000e+000 -1.589881e+001
      vertex  6.749445e+000 -4.440892e-016 -1.698318e+001
    endloop
  endfacet
  facet normal  9.942487e-001  -0.000000e+000  1.070953e-001
    outer loop
      vertex  6.632642e+000  3.000000e+000 -1.589881e+001
      vertex  6.749445e+000 -4.440892e-016 -1.698318e+001
      vertex  6.749445e+000  3.000000e+000 -1.698318e+001
    endloop
  endfacet
  facet normal  7.787677e-001  0.000000e+000 -6.273124e-001
    outer loop
      vertex  6.632642e+000  0.000000e+000 -1.589881e+001
      vertex  7.316819e+000  3.000000e+000 -1.504945e+001
      vertex  7.316819e+000  0.000000e+000 -1.504945e+001
    endloop
  endfacet
  facet normal  1.070953e-001  0.000000e+000 -9.942488e-001
    outer loop
      vertex  7.316819e+000  0.000000e+000 -1.504945e+001
      vertex  7.316819e+000  3.000000e+000 -1.504945e+001
      vertex  8.401194e+000  3.000000e+000 -1.493264e+001
    endloop
  endfacet
  facet normal  1.070953e-001  0.000000e+000 -9.942488e-001
    outer loop
      vertex  7.316819e+000  0.000000e+000 -1.504945e+001
      vertex  8.401194e+000  3.000000e+000 -1.493264e+001
      vertex  8.401194e+000  0.000000e+000 -1.493264e+001
    endloop
  endfacet
  facet normal -6.273121e-001  0.000000e+000 -7.787679e-001
    outer loop
      vertex  8.401194e+000  0.000000e+000 -1.493264e+001
      vertex  8.401194e+000  3.000000e+000 -1.493264e+001
      vertex  9.250555e+000  3.000000e+000 -1.561682e+001
    endloop
  endfacet
  facet normal -6.273121e-001  -0.000000e+000 -7.787679e-001
    outer loop
      vertex  8.401194e+000  0.000000e+000 -1.493264e+001
      vertex  9.250555e+000  3.000000e+000 -1.561682e+001
      vertex  9.250555e+000 -4.440892e-016 -1.561682e+001
    endloop
  endfacet
  facet normal -7.787673e-001  0.000000e+000  6.273130e-001
    outer loop
      vertex  8.683182e+000  3.000000e+000 -1.755055e+001
      vertex  9.367358e+000  0.000000e+000 -1.670119e+001
      vertex  9.367358e+000  3.000000e+000 -1.670119e+001
    endloop
  endfacet
  facet normal -9.942487e-001  -0.000000e+000 -1.070951e-001
    outer loop
      vertex  9.367358e+000  3.000000e+000 -1.670119e+001
      vertex  9.367358e+000  0.000000e+000 -1.670119e+001
      vertex  9.250555e+000 -4.440892e-016 -1.561682e+001
    endloop
  endfacet
  facet normal -9.942487e-001  0.000000e+000 -1.070951e-001
    outer loop
      vertex  9.367358e+000  3.000000e+000 -1.670119e+001
      vertex  9.250555e+000 -4.440892e-016 -1.561682e+001
      vertex  9.250555e+000  3.000000e+000 -1.561682e+001
    endloop
  endfacet
  facet normal -7.787673e-001  0.000000e+000  6.273130e-001
    outer loop
      vertex  9.367358e+000  0.000000e+000 -1.670119e+001
      vertex  8.683182e+000  3.000000e+000 -1.755055e+001
      vertex  8.683182e+000  0.000000e+000 -1.755055e+001
    endloop
  endfacet
  facet normal -1.070961e-001  0.000000e+000  9.942487e-001
    outer loop
      vertex  8.683182e+000  0.000000e+000 -1.755055e+001
      vertex  8.683182e+000  3.000000e+000 -1.755055e+001
      vertex  7.598806e+000  3.000000e+000 -1.766736e+001
    endloop
  endfacet
  facet normal -1.070961e-001  0.000000e+000  9.942487e-001
    outer loop
      vertex  8.683182e+000  0.000000e+000 -1.755055e+001
      vertex  7.598806e+000  3.000000e+000 -1.766736e+001
      vertex  7.598806e+000  0.000000e+000 -1.766736e+001
    endloop
  endfacet
  facet normal  6.273127e-001  -0.000000e+000  7.787676e-001
    outer loop
      vertex  7.598806e+000  0.000000e+000 -1.766736e+001
      vertex  7.598806e+000  3.000000e+000 -1.766736e+001
      vertex  6.749445e+000  3.000000e+000 -1.698318e+001
    endloop
  endfacet
  facet normal  6.273127e-001  0.000000e+000  7.787676e-001
    outer loop
      vertex  7.598806e+000  0.000000e+000 -1.766736e+001
      vertex  6.749445e+000  3.000000e+000 -1.698318e+001
      vertex  6.749445e+000 -4.440892e-016 -1.698318e+001
    endloop
  endfacet
  facet normal  7.787677e-001 -6.273122e-001  0.000000e+000
    outer loop
      vertex -7.777149e+000  1.742256e+001  8.300000e+000
      vertex -8.555430e+000  1.645638e+001  1.130000e+001
      vertex -8.555430e+000  1.645638e+001  8.300000e+000
    endloop
  endfacet
  facet normal  9.942488e-001  1.070953e-001  -0.000000e+000
    outer loop
      vertex -8.555430e+000  1.645638e+001  8.300000e+000
      vertex -8.555430e+000  1.645638e+001  1.130000e+001
      vertex -8.422562e+000  1.522285e+001  1.130000e+001
    endloop
  endfacet
  facet normal  9.942488e-001  1.070953e-001  0.000000e+000
    outer loop
      vertex -8.555430e+000  1.645638e+001  8.300000e+000
      vertex -8.422562e+000  1.522285e+001  1.130000e+001
      vertex -8.422562e+000  1.522285e+001  8.300000e+000
    endloop
  endfacet
  facet normal  7.787677e-001 -6.273122e-001  0.000000e+000
    outer loop
      vertex -8.555430e+000  1.645638e+001  1.130000e+001
      vertex -7.777149e+000  1.742256e+001  8.300000e+000
      vertex -7.777149e+000  1.742256e+001  1.130000e+001
    endloop
  endfacet
  facet normal  1.070945e-001 -9.942488e-001  0.000000e+000
    outer loop
      vertex -7.777149e+000  1.742256e+001  1.130000e+001
      vertex -7.777149e+000  1.742256e+001  8.300000e+000
      vertex -6.543624e+000  1.755543e+001  8.300000e+000
    endloop
  endfacet
  facet normal  1.070945e-001 -9.942488e-001  0.000000e+000
    outer loop
      vertex -7.777149e+000  1.742256e+001  1.130000e+001
      vertex -6.543624e+000  1.755543e+001  8.300000e+000
      vertex -6.543624e+000  1.755543e+001  1.130000e+001
    endloop
  endfacet
  facet normal -6.273119e-001 -7.787680e-001  -0.000000e+000
    outer loop
      vertex -6.543624e+000  1.755543e+001  1.130000e+001
      vertex -6.543624e+000  1.755543e+001  8.300000e+000
      vertex -5.577439e+000  1.677715e+001  8.300000e+000
    endloop
  endfacet
  facet normal -6.273119e-001 -7.787680e-001  0.000000e+000
    outer loop
      vertex -6.543624e+000  1.755543e+001  1.130000e+001
      vertex -5.577439e+000  1.677715e+001  8.300000e+000
      vertex -5.577439e+000  1.677715e+001  1.130000e+001
    endloop
  endfacet
  facet normal -7.787680e-001  6.273121e-001  0.000000e+000
    outer loop
      vertex -6.222851e+000  1.457744e+001  8.300000e+000
      vertex -5.444570e+000  1.554362e+001  1.130000e+001
      vertex -5.444570e+000  1.554362e+001  8.300000e+000
    endloop
  endfacet
  facet normal -9.942488e-001 -1.070953e-001  0.000000e+000
    outer loop
      vertex -5.444570e+000  1.554362e+001  8.300000e+000
      vertex -5.444570e+000  1.554362e+001  1.130000e+001
      vertex -5.577439e+000  1.677715e+001  1.130000e+001
    endloop
  endfacet
  facet normal -9.942488e-001 -1.070953e-001  -0.000000e+000
    outer loop
      vertex -5.444570e+000  1.554362e+001  8.300000e+000
      vertex -5.577439e+000  1.677715e+001  1.130000e+001
      vertex -5.577439e+000  1.677715e+001  8.300000e+000
    endloop
  endfacet
  facet normal -7.787680e-001  6.273121e-001  0.000000e+000
    outer loop
      vertex -5.444570e+000  1.554362e+001  1.130000e+001
      vertex -6.222851e+000  1.457744e+001  8.300000e+000
      vertex -6.222851e+000  1.457744e+001  1.130000e+001
    endloop
  endfacet
  facet normal -1.070953e-001  9.942488e-001  0.000000e+000
    outer loop
      vertex -6.222851e+000  1.457744e+001  1.130000e+001
      vertex -6.222851e+000  1.457744e+001  8.300000e+000
      vertex -7.456376e+000  1.444457e+001  8.300000e+000
    endloop
  endfacet
  facet normal -1.070953e-001  9.942488e-001  0.000000e+000
    outer loop
      vertex -6.222851e+000  1.457744e+001  1.130000e+001
      vertex -7.456376e+000  1.444457e+001  8.300000e+000
      vertex -7.456376e+000  1.444457e+001  1.130000e+001
    endloop
  endfacet
  facet normal  6.273123e-001  7.787679e-001  0.000000e+000
    outer loop
      vertex -7.456376e+000  1.444457e+001  1.130000e+001
      vertex -7.456376e+000  1.444457e+001  8.300000e+000
      vertex -8.422562e+000  1.522285e+001  8.300000e+000
    endloop
  endfacet
  facet normal  6.273123e-001  7.787679e-001  -0.000000e+000
    outer loop
      vertex -7.456376e+000  1.444457e+001  1.130000e+001
      vertex -8.422562e+000  1.522285e+001  8.300000e+000
      vertex -8.422562e+000  1.522285e+001  1.130000e+001
    endloop
  endfacet
  facet normal  7.787680e-001 -6.273121e-001  0.000000e+000
    outer loop
      vertex  7.222851e+000  1.742256e+001  8.300000e+000
      vertex  6.444570e+000  1.645638e+001  1.130000e+001
      vertex  6.444570e+000  1.645638e+001  8.300000e+000
    endloop
  endfacet
  facet normal  9.942488e-001  1.070953e-001  -0.000000e+000
    outer loop
      vertex  6.444570e+000  1.645638e+001  8.300000e+000
      vertex  6.444570e+000  1.645638e+001  1.130000e+001
      vertex  6.577439e+000  1.522285e+001  1.130000e+001
    endloop
  endfacet
  facet normal  9.942488e-001  1.070953e-001  0.000000e+000
    outer loop
      vertex  6.444570e+000  1.645638e+001  8.300000e+000
      vertex  6.577439e+000  1.522285e+001  1.130000e+001
      vertex  6.577439e+000  1.522285e+001  8.300000e+000
    endloop
  endfacet
  facet normal  7.787680e-001 -6.273121e-001  0.000000e+000
    outer loop
      vertex  6.444570e+000  1.645638e+001  1.130000e+001
      vertex  7.222851e+000  1.742256e+001  8.300000e+000
      vertex  7.222851e+000  1.742256e+001  1.130000e+001
    endloop
  endfacet
  facet normal  1.070945e-001 -9.942489e-001  0.000000e+000
    outer loop
      vertex  7.222851e+000  1.742256e+001  1.130000e+001
      vertex  7.222851e+000  1.742256e+001  8.300000e+000
      vertex  8.456375e+000  1.755543e+001  8.300000e+000
    endloop
  endfacet
  facet normal  1.070945e-001 -9.942489e-001  0.000000e+000
    outer loop
      vertex  7.222851e+000  1.742256e+001  1.130000e+001
      vertex  8.456375e+000  1.755543e+001  8.300000e+000
      vertex  8.456375e+000  1.755543e+001  1.130000e+001
    endloop
  endfacet
  facet normal -6.273116e-001 -7.787684e-001  -0.000000e+000
    outer loop
      vertex  8.456375e+000  1.755543e+001  1.130000e+001
      vertex  8.456375e+000  1.755543e+001  8.300000e+000
      vertex  9.422562e+000  1.677715e+001  8.300000e+000
    endloop
  endfacet
  facet normal -6.273116e-001 -7.787684e-001  0.000000e+000
    outer loop
      vertex  8.456375e+000  1.755543e+001  1.130000e+001
      vertex  9.422562e+000  1.677715e+001  8.300000e+000
      vertex  9.422562e+000  1.677715e+001  1.130000e+001
    endloop
  endfacet
  facet normal -7.787680e-001  6.273121e-001  0.000000e+000
    outer loop
      vertex  8.777149e+000  1.457744e+001  8.300000e+000
      vertex  9.555430e+000  1.554362e+001  1.130000e+001
      vertex  9.555430e+000  1.554362e+001  8.300000e+000
    endloop
  endfacet
  facet normal -9.942488e-001 -1.070953e-001  0.000000e+000
    outer loop
      vertex  9.555430e+000  1.554362e+001  8.300000e+000
      vertex  9.555430e+000  1.554362e+001  1.130000e+001
      vertex  9.422562e+000  1.677715e+001  1.130000e+001
    endloop
  endfacet
  facet normal -9.942488e-001 -1.070953e-001  -0.000000e+000
    outer loop
      vertex  9.555430e+000  1.554362e+001  8.300000e+000
      vertex  9.422562e+000  1.677715e+001  1.130000e+001
      vertex  9.422562e+000  1.677715e+001  8.300000e+000
    endloop
  endfacet
  facet normal -7.787680e-001  6.273121e-001  0.000000e+000
    outer loop
      vertex  9.555430e+000  1.554362e+001  1.130000e+001
      vertex  8.777149e+000  1.457744e+001  8.300000e+000
      vertex  8.777149e+000  1.457744e+001  1.130000e+001
    endloop
  endfacet
  facet normal -1.070952e-001  9.942487e-001  0.000000e+000
    outer loop
      vertex  8.777149e+000  1.457744e+001  1.130000e+001
      vertex  8.777149e+000  1.457744e+001  8.300000e+000
      vertex  7.543624e+000  1.444457e+001  8.300000e+000
    endloop
  endfacet
  facet normal -1.070952e-001  9.942487e-001  0.000000e+000
    outer loop
      vertex  8.777149e+000  1.457744e+001  1.130000e+001
      vertex  7.543624e+000  1.444457e+001  8.300000e+000
      vertex  7.543624e+000  1.444457e+001  1.130000e+001
    endloop
  endfacet
  facet normal  6.273124e-001  7.787676e-001  0.000000e+000
    outer loop
      vertex  7.543624e+000  1.444457e+001  1.130000e+001
      vertex  7.543624e+000  1.444457e+001  8.300000e+000
      vertex  6.577439e+000  1.522285e+001  8.300000e+000
    endloop
  endfacet
  facet normal  6.273124e-001  7.787676e-001  -0.000000e+000
    outer loop
      vertex  7.543624e+000  1.444457e+001  1.130000e+001
      vertex  6.577439e+000  1.522285e+001  8.300000e+000
      vertex  6.577439e+000  1.522285e+001  1.130000e+001
    endloop
  endfacet
endsolid CATIA STL
