solid CATIA STL
  facet normal -6.218170e-001 -2.051834e-001 -7.558064e-001
    outer loop
      vertex -3.711206e+000  1.574536e+001 -2.237125e+000
      vertex -1.959474e+000  1.540825e+001 -3.586793e+000
      vertex -1.917702e+000  1.500000e+001 -3.510330e+000
    endloop
  endfacet
  facet normal -6.298087e-001 -4.998108e-001 -5.945841e-001
    outer loop
      vertex -3.614774e+000  1.500000e+001 -1.712720e+000
      vertex -3.711206e+000  1.574536e+001 -2.237125e+000
      vertex -1.917702e+000  1.500000e+001 -3.510330e+000
    endloop
  endfacet
  facet normal -5.655172e-001 -5.762069e-001 -5.900643e-001
    outer loop
      vertex -1.959474e+000  1.540825e+001 -3.586793e+000
      vertex -3.711206e+000  1.574536e+001 -2.237125e+000
      vertex -2.077511e+000  1.574536e+001 -3.802858e+000
    endloop
  endfacet
  facet normal -8.231663e-001 -5.577783e-001 -1.062110e-001
    outer loop
      vertex -3.614774e+000  1.500000e+001 -1.712720e+000
      vertex -3.931125e+000  1.500000e+001  7.390915e-001
      vertex -4.332899e+000  1.574536e+001 -6.135477e-002
    endloop
  endfacet
  facet normal -9.163848e-001 -3.027825e-001 -2.618429e-001
    outer loop
      vertex -3.711206e+000  1.574536e+001 -2.237125e+000
      vertex -3.614774e+000  1.500000e+001 -1.712720e+000
      vertex -4.332899e+000  1.574536e+001 -6.135477e-002
    endloop
  endfacet
  facet normal -9.385100e-001 -2.485382e-001  2.396410e-001
    outer loop
      vertex -3.931125e+000  1.500000e+001  7.390915e-001
      vertex -3.773062e+000  1.574536e+001  2.131146e+000
      vertex -4.332899e+000  1.574536e+001 -6.135477e-002
    endloop
  endfacet
  facet normal -6.909969e-001 -2.416166e-001  6.812815e-001
    outer loop
      vertex -2.745920e+000  1.500000e+001  2.908595e+000
      vertex -2.184355e+000  1.574536e+001  3.742509e+000
      vertex -3.773062e+000  1.574536e+001  2.131146e+000
    endloop
  endfacet
  facet normal -7.158059e-001 -5.785365e-001  3.910465e-001
    outer loop
      vertex -3.773062e+000  1.574536e+001  2.131146e+000
      vertex -3.931125e+000  1.500000e+001  7.390915e-001
      vertex -2.745920e+000  1.500000e+001  2.908595e+000
    endloop
  endfacet
  facet normal -2.504294e-001 -2.829321e-001  9.258696e-001
    outer loop
      vertex -2.184355e+000  1.574536e+001  3.742509e+000
      vertex -5.118667e-001  1.500000e+001  3.967114e+000
      vertex  5.840227e-015  1.574536e+001  4.333333e+000
    endloop
  endfacet
  facet normal -3.526792e-001 -5.670687e-001  7.443456e-001
    outer loop
      vertex -2.184355e+000  1.574536e+001  3.742509e+000
      vertex -2.745920e+000  1.500000e+001  2.908595e+000
      vertex -5.118667e-001  1.500000e+001  3.967114e+000
    endloop
  endfacet
  facet normal  1.810804e-001 -1.989201e-001  9.631410e-001
    outer loop
      vertex  1.917702e+000  1.500000e+001  3.510330e+000
      vertex  1.959474e+000  1.540825e+001  3.586793e+000
      vertex -5.118667e-001  1.500000e+001  3.967114e+000
    endloop
  endfacet
  facet normal  2.166321e-001 -5.794365e-001  7.856996e-001
    outer loop
      vertex -5.118667e-001  1.500000e+001  3.967114e+000
      vertex  1.959474e+000  1.540825e+001  3.586793e+000
      vertex  2.077511e+000  1.574536e+001  3.802858e+000
    endloop
  endfacet
  facet normal  2.078168e-001 -5.426026e-001  8.138763e-001
    outer loop
      vertex -5.118667e-001  1.500000e+001  3.967114e+000
      vertex  2.077511e+000  1.574536e+001  3.802858e+000
      vertex  5.840227e-015  1.574536e+001  4.333333e+000
    endloop
  endfacet
  facet normal  6.218170e-001 -2.051834e-001  7.558064e-001
    outer loop
      vertex  3.711206e+000  1.574536e+001  2.237125e+000
      vertex  1.959474e+000  1.540825e+001  3.586793e+000
      vertex  1.917702e+000  1.500000e+001  3.510330e+000
    endloop
  endfacet
  facet normal  6.298087e-001 -4.998108e-001  5.945841e-001
    outer loop
      vertex  3.614774e+000  1.500000e+001  1.712720e+000
      vertex  3.711206e+000  1.574536e+001  2.237125e+000
      vertex  1.917702e+000  1.500000e+001  3.510330e+000
    endloop
  endfacet
  facet normal  5.655172e-001 -5.762069e-001  5.900643e-001
    outer loop
      vertex  1.959474e+000  1.540825e+001  3.586793e+000
      vertex  3.711206e+000  1.574536e+001  2.237125e+000
      vertex  2.077511e+000  1.574536e+001  3.802858e+000
    endloop
  endfacet
  facet normal  8.231663e-001 -5.577783e-001  1.062110e-001
    outer loop
      vertex  3.614774e+000  1.500000e+001  1.712720e+000
      vertex  3.931125e+000  1.500000e+001 -7.390915e-001
      vertex  4.332899e+000  1.574536e+001  6.135477e-002
    endloop
  endfacet
  facet normal  9.163848e-001 -3.027825e-001  2.618429e-001
    outer loop
      vertex  3.711206e+000  1.574536e+001  2.237125e+000
      vertex  3.614774e+000  1.500000e+001  1.712720e+000
      vertex  4.332899e+000  1.574536e+001  6.135477e-002
    endloop
  endfacet
  facet normal  9.385100e-001 -2.485382e-001 -2.396410e-001
    outer loop
      vertex  3.931125e+000  1.500000e+001 -7.390915e-001
      vertex  3.773062e+000  1.574536e+001 -2.131146e+000
      vertex  4.332899e+000  1.574536e+001  6.135477e-002
    endloop
  endfacet
  facet normal  6.909969e-001 -2.416166e-001 -6.812815e-001
    outer loop
      vertex  2.745920e+000  1.500000e+001 -2.908595e+000
      vertex  2.184355e+000  1.574536e+001 -3.742509e+000
      vertex  3.773062e+000  1.574536e+001 -2.131146e+000
    endloop
  endfacet
  facet normal  7.158059e-001 -5.785365e-001 -3.910465e-001
    outer loop
      vertex  3.773062e+000  1.574536e+001 -2.131146e+000
      vertex  3.931125e+000  1.500000e+001 -7.390915e-001
      vertex  2.745920e+000  1.500000e+001 -2.908595e+000
    endloop
  endfacet
  facet normal  2.504294e-001 -2.829321e-001 -9.258696e-001
    outer loop
      vertex  2.184355e+000  1.574536e+001 -3.742509e+000
      vertex  5.118667e-001  1.500000e+001 -3.967114e+000
      vertex  2.441930e-014  1.574536e+001 -4.333333e+000
    endloop
  endfacet
  facet normal  3.526792e-001 -5.670687e-001 -7.443456e-001
    outer loop
      vertex  2.184355e+000  1.574536e+001 -3.742509e+000
      vertex  2.745920e+000  1.500000e+001 -2.908595e+000
      vertex  5.118667e-001  1.500000e+001 -3.967114e+000
    endloop
  endfacet
  facet normal -1.810804e-001 -1.989201e-001 -9.631410e-001
    outer loop
      vertex -1.917702e+000  1.500000e+001 -3.510330e+000
      vertex -1.959474e+000  1.540825e+001 -3.586793e+000
      vertex  5.118667e-001  1.500000e+001 -3.967114e+000
    endloop
  endfacet
  facet normal -2.166321e-001 -5.794365e-001 -7.856996e-001
    outer loop
      vertex  5.118667e-001  1.500000e+001 -3.967114e+000
      vertex -1.959474e+000  1.540825e+001 -3.586793e+000
      vertex -2.077511e+000  1.574536e+001 -3.802858e+000
    endloop
  endfacet
  facet normal -2.078168e-001 -5.426026e-001 -8.138763e-001
    outer loop
      vertex  5.118667e-001  1.500000e+001 -3.967114e+000
      vertex -2.077511e+000  1.574536e+001 -3.802858e+000
      vertex  2.441930e-014  1.574536e+001 -4.333333e+000
    endloop
  endfacet
  facet normal -9.175936e-001  2.387177e-002  3.968026e-001
    outer loop
      vertex -4.330127e+000  2.300000e+001  2.500000e+000
      vertex -4.824430e+000  2.372466e+001  1.313344e+000
      vertex -4.774215e+000  2.279233e+001  1.485555e+000
    endloop
  endfacet
  facet normal -9.711995e-001 -4.566945e-002 -2.338500e-001
    outer loop
      vertex -4.282161e+000  1.723607e+001 -2.581298e+000
      vertex -4.961657e+000  2.163324e+001 -6.180305e-001
      vertex -4.824430e+000  2.227534e+001 -1.313344e+000
    endloop
  endfacet
  facet normal -9.980810e-001  0.000000e+000  6.192150e-002
    outer loop
      vertex -5.000000e+000  2.450000e+001  0.000000e+000
      vertex -4.961657e+000  2.436676e+001  6.180305e-001
      vertex -5.000000e+000  2.800000e+001 -9.184548e-016
    endloop
  endfacet
  facet normal -2.588190e-001  0.000000e+000 -9.659259e-001
    outer loop
      vertex  6.123032e-016  2.800000e+001 -5.000000e+000
      vertex -2.500000e+000  2.300000e+001 -4.330127e+000
      vertex -2.500000e+000  2.800000e+001 -4.330127e+000
    endloop
  endfacet
  facet normal -9.689100e-001  2.175174e-003  2.474035e-001
    outer loop
      vertex -4.999499e+000  1.723607e+001 -7.079396e-002
      vertex -4.353532e+000  1.723607e+001  2.459015e+000
      vertex -4.330127e+000  2.300000e+001  2.500000e+000
    endloop
  endfacet
  facet normal -9.071658e-001 -7.898461e-002  4.132937e-001
    outer loop
      vertex -4.999499e+000  1.723607e+001 -7.079396e-002
      vertex -4.330127e+000  2.300000e+001  2.500000e+000
      vertex -4.774215e+000  2.279233e+001  1.485555e+000
    endloop
  endfacet
  facet normal -4.881854e-001 -2.169904e-001  8.453345e-001
    outer loop
      vertex -4.999499e+000  1.723607e+001 -7.079396e-002
      vertex -4.774215e+000  2.279233e+001  1.485555e+000
      vertex -4.816184e+000  2.233245e+001  1.343269e+000
    endloop
  endfacet
  facet normal -9.724668e-001 -2.917293e-002  2.312087e-001
    outer loop
      vertex -4.999499e+000  1.723607e+001 -7.079396e-002
      vertex -4.816184e+000  2.233245e+001  1.343269e+000
      vertex -4.953135e+000  2.166450e+001  6.829717e-001
    endloop
  endfacet
  facet normal -9.976325e-001 -1.258865e-003  6.875928e-002
    outer loop
      vertex -4.999499e+000  1.723607e+001 -7.079396e-002
      vertex -4.953135e+000  2.166450e+001  6.829717e-001
      vertex -5.000000e+000  2.150000e+001  1.836910e-016
    endloop
  endfacet
  facet normal -9.980928e-001  9.075355e-004 -6.172657e-002
    outer loop
      vertex -4.999499e+000  1.723607e+001 -7.079396e-002
      vertex -5.000000e+000  2.150000e+001  1.836910e-016
      vertex -4.961657e+000  2.163324e+001 -6.180305e-001
    endloop
  endfacet
  facet normal -9.611960e-001 -2.590837e-002 -2.746470e-001
    outer loop
      vertex -4.999499e+000  1.723607e+001 -7.079396e-002
      vertex -4.961657e+000  2.163324e+001 -6.180305e-001
      vertex -4.282161e+000  1.723607e+001 -2.581298e+000
    endloop
  endfacet
  facet normal -7.071068e-001  -0.000000e+000 -7.071068e-001
    outer loop
      vertex -4.330127e+000  2.800000e+001 -2.500000e+000
      vertex -2.500000e+000  2.800000e+001 -4.330127e+000
      vertex -2.500000e+000  2.300000e+001 -4.330127e+000
    endloop
  endfacet
  facet normal -7.071068e-001  0.000000e+000 -7.071068e-001
    outer loop
      vertex -4.330127e+000  2.800000e+001 -2.500000e+000
      vertex -2.500000e+000  2.300000e+001 -4.330127e+000
      vertex -4.330127e+000  2.300000e+001 -2.500000e+000
    endloop
  endfacet
  facet normal -9.160685e-001  0.000000e+000 -4.010218e-001
    outer loop
      vertex -4.330127e+000  2.800000e+001 -2.500000e+000
      vertex -4.330127e+000  2.300000e+001 -2.500000e+000
      vertex -4.774215e+000  2.320767e+001 -1.485555e+000
    endloop
  endfacet
  facet normal -9.428451e-001  1.692229e-002 -3.328012e-001
    outer loop
      vertex -4.330127e+000  2.800000e+001 -2.500000e+000
      vertex -4.774215e+000  2.320767e+001 -1.485555e+000
      vertex -4.816184e+000  2.366755e+001 -1.343269e+000
    endloop
  endfacet
  facet normal -9.686224e-001  4.332838e-002 -2.447308e-001
    outer loop
      vertex -4.330127e+000  2.800000e+001 -2.500000e+000
      vertex -4.816184e+000  2.366755e+001 -1.343269e+000
      vertex -4.953135e+000  2.433550e+001 -6.829717e-001
    endloop
  endfacet
  facet normal -9.880490e-001  1.200273e-001 -9.670867e-002
    outer loop
      vertex -4.330127e+000  2.800000e+001 -2.500000e+000
      vertex -4.953135e+000  2.433550e+001 -6.829717e-001
      vertex -5.000000e+000  2.450000e+001  0.000000e+000
    endloop
  endfacet
  facet normal -9.659259e-001 -6.791815e-017 -2.588190e-001
    outer loop
      vertex -4.330127e+000  2.800000e+001 -2.500000e+000
      vertex -5.000000e+000  2.450000e+001  0.000000e+000
      vertex -5.000000e+000  2.800000e+001 -9.184548e-016
    endloop
  endfacet
  facet normal -2.588190e-001  2.944568e-017  9.659258e-001
    outer loop
      vertex -1.224606e-015  1.723607e+001  5.000000e+000
      vertex  0.000000e+000  2.800000e+001  5.000000e+000
      vertex -2.500000e+000  2.300000e+001  4.330127e+000
    endloop
  endfacet
  facet normal -2.588190e-001  0.000000e+000  9.659259e-001
    outer loop
      vertex -2.500000e+000  2.300000e+001  4.330127e+000
      vertex  0.000000e+000  2.800000e+001  5.000000e+000
      vertex -2.500000e+000  2.800000e+001  4.330127e+000
    endloop
  endfacet
  facet normal -7.071068e-001  0.000000e+000  7.071068e-001
    outer loop
      vertex -2.500000e+000  2.300000e+001  4.330127e+000
      vertex -2.500000e+000  2.800000e+001  4.330127e+000
      vertex -4.330127e+000  2.300000e+001  2.500000e+000
    endloop
  endfacet
  facet normal -7.071068e-001  0.000000e+000  7.071068e-001
    outer loop
      vertex -4.330127e+000  2.300000e+001  2.500000e+000
      vertex -2.500000e+000  2.800000e+001  4.330127e+000
      vertex -4.330127e+000  2.800000e+001  2.500000e+000
    endloop
  endfacet
  facet normal -9.231147e-001  0.000000e+000  3.845246e-001
    outer loop
      vertex -4.330127e+000  2.300000e+001  2.500000e+000
      vertex -4.330127e+000  2.800000e+001  2.500000e+000
      vertex -4.824430e+000  2.372466e+001  1.313344e+000
    endloop
  endfacet
  facet normal -9.651602e-001  3.980875e-002  2.586138e-001
    outer loop
      vertex -4.824430e+000  2.372466e+001  1.313344e+000
      vertex -4.330127e+000  2.800000e+001  2.500000e+000
      vertex -5.000000e+000  2.800000e+001 -9.184548e-016
    endloop
  endfacet
  facet normal -9.757669e-001  2.664637e-002  2.171841e-001
    outer loop
      vertex -4.824430e+000  2.372466e+001  1.313344e+000
      vertex -5.000000e+000  2.800000e+001 -9.184548e-016
      vertex -4.961657e+000  2.436676e+001  6.180305e-001
    endloop
  endfacet
  facet normal -9.377551e-001 -1.359252e-002 -3.470311e-001
    outer loop
      vertex -4.824430e+000  2.227534e+001 -1.313344e+000
      vertex -4.774215e+000  2.320767e+001 -1.485555e+000
      vertex -4.282161e+000  1.723607e+001 -2.581298e+000
    endloop
  endfacet
  facet normal -9.162151e-001 -1.973119e-003 -4.006820e-001
    outer loop
      vertex -4.282161e+000  1.723607e+001 -2.581298e+000
      vertex -4.774215e+000  2.320767e+001 -1.485555e+000
      vertex -4.330127e+000  2.300000e+001 -2.500000e+000
    endloop
  endfacet
  facet normal -6.919234e-001  4.424868e-003 -7.219573e-001
    outer loop
      vertex -4.282161e+000  1.723607e+001 -2.581298e+000
      vertex -4.330127e+000  2.300000e+001 -2.500000e+000
      vertex -2.397128e+000  1.723607e+001 -4.387913e+000
    endloop
  endfacet
  facet normal -7.070960e-001 -5.531075e-003 -7.070960e-001
    outer loop
      vertex -2.397128e+000  1.723607e+001 -4.387913e+000
      vertex -4.330127e+000  2.300000e+001 -2.500000e+000
      vertex -2.500000e+000  2.300000e+001 -4.330127e+000
    endloop
  endfacet
  facet normal -2.474005e-001  5.298057e-003 -9.688988e-001
    outer loop
      vertex -2.397128e+000  1.723607e+001 -4.387913e+000
      vertex -2.500000e+000  2.300000e+001 -4.330127e+000
      vertex  6.123032e-016  1.723607e+001 -5.000000e+000
    endloop
  endfacet
  facet normal -2.588190e-001  0.000000e+000 -9.659258e-001
    outer loop
      vertex  6.123032e-016  1.723607e+001 -5.000000e+000
      vertex -2.500000e+000  2.300000e+001 -4.330127e+000
      vertex  6.123032e-016  2.800000e+001 -5.000000e+000
    endloop
  endfacet
  facet normal -7.071051e-001 -2.156676e-003  7.071051e-001
    outer loop
      vertex -4.330127e+000  2.300000e+001  2.500000e+000
      vertex -4.353532e+000  1.723607e+001  2.459015e+000
      vertex -2.500000e+000  2.300000e+001  4.330127e+000
    endloop
  endfacet
  facet normal -7.120947e-001  1.078250e-003  7.020826e-001
    outer loop
      vertex -2.500000e+000  2.300000e+001  4.330127e+000
      vertex -4.353532e+000  1.723607e+001  2.459015e+000
      vertex -2.520409e+000  1.723607e+001  4.318279e+000
    endloop
  endfacet
  facet normal -2.610977e-001 -1.059731e-003  9.653118e-001
    outer loop
      vertex -2.500000e+000  2.300000e+001  4.330127e+000
      vertex -2.520409e+000  1.723607e+001  4.318279e+000
      vertex -1.224606e-015  1.723607e+001  5.000000e+000
    endloop
  endfacet
  facet normal  9.175936e-001  2.387177e-002 -3.968026e-001
    outer loop
      vertex  4.330127e+000  2.300000e+001 -2.500000e+000
      vertex  4.824430e+000  2.372466e+001 -1.313344e+000
      vertex  4.774215e+000  2.279233e+001 -1.485555e+000
    endloop
  endfacet
  facet normal  9.711995e-001 -4.566945e-002  2.338500e-001
    outer loop
      vertex  4.282161e+000  1.723607e+001  2.581298e+000
      vertex  4.961657e+000  2.163324e+001  6.180305e-001
      vertex  4.824430e+000  2.227534e+001  1.313344e+000
    endloop
  endfacet
  facet normal  9.980810e-001  0.000000e+000 -6.192150e-002
    outer loop
      vertex  5.000000e+000  2.450000e+001  0.000000e+000
      vertex  4.961657e+000  2.436676e+001 -6.180305e-001
      vertex  5.000000e+000  2.800000e+001  3.061516e-016
    endloop
  endfacet
  facet normal  2.588190e-001  -0.000000e+000  9.659259e-001
    outer loop
      vertex  0.000000e+000  2.800000e+001  5.000000e+000
      vertex  2.500000e+000  2.300000e+001  4.330127e+000
      vertex  2.500000e+000  2.800000e+001  4.330127e+000
    endloop
  endfacet
  facet normal  9.689100e-001  2.175174e-003 -2.474035e-001
    outer loop
      vertex  4.999499e+000  1.723607e+001  7.079396e-002
      vertex  4.353532e+000  1.723607e+001 -2.459015e+000
      vertex  4.330127e+000  2.300000e+001 -2.500000e+000
    endloop
  endfacet
  facet normal  9.071658e-001 -7.898461e-002 -4.132937e-001
    outer loop
      vertex  4.999499e+000  1.723607e+001  7.079396e-002
      vertex  4.330127e+000  2.300000e+001 -2.500000e+000
      vertex  4.774215e+000  2.279233e+001 -1.485555e+000
    endloop
  endfacet
  facet normal  4.881854e-001 -2.169904e-001 -8.453345e-001
    outer loop
      vertex  4.999499e+000  1.723607e+001  7.079396e-002
      vertex  4.774215e+000  2.279233e+001 -1.485555e+000
      vertex  4.816184e+000  2.233245e+001 -1.343269e+000
    endloop
  endfacet
  facet normal  9.724668e-001 -2.917293e-002 -2.312087e-001
    outer loop
      vertex  4.999499e+000  1.723607e+001  7.079396e-002
      vertex  4.816184e+000  2.233245e+001 -1.343269e+000
      vertex  4.953135e+000  2.166450e+001 -6.829717e-001
    endloop
  endfacet
  facet normal  9.976325e-001 -1.258865e-003 -6.875928e-002
    outer loop
      vertex  4.999499e+000  1.723607e+001  7.079396e-002
      vertex  4.953135e+000  2.166450e+001 -6.829717e-001
      vertex  5.000000e+000  2.150000e+001  1.836910e-016
    endloop
  endfacet
  facet normal  9.980928e-001  9.075355e-004  6.172657e-002
    outer loop
      vertex  4.999499e+000  1.723607e+001  7.079396e-002
      vertex  5.000000e+000  2.150000e+001  1.836910e-016
      vertex  4.961657e+000  2.163324e+001  6.180305e-001
    endloop
  endfacet
  facet normal  9.611960e-001 -2.590837e-002  2.746470e-001
    outer loop
      vertex  4.999499e+000  1.723607e+001  7.079396e-002
      vertex  4.961657e+000  2.163324e+001  6.180305e-001
      vertex  4.282161e+000  1.723607e+001  2.581298e+000
    endloop
  endfacet
  facet normal  7.071068e-001  0.000000e+000  7.071068e-001
    outer loop
      vertex  4.330127e+000  2.800000e+001  2.500000e+000
      vertex  2.500000e+000  2.800000e+001  4.330127e+000
      vertex  2.500000e+000  2.300000e+001  4.330127e+000
    endloop
  endfacet
  facet normal  7.071068e-001  0.000000e+000  7.071068e-001
    outer loop
      vertex  4.330127e+000  2.800000e+001  2.500000e+000
      vertex  2.500000e+000  2.300000e+001  4.330127e+000
      vertex  4.330127e+000  2.300000e+001  2.500000e+000
    endloop
  endfacet
  facet normal  9.160685e-001  -0.000000e+000  4.010218e-001
    outer loop
      vertex  4.330127e+000  2.800000e+001  2.500000e+000
      vertex  4.330127e+000  2.300000e+001  2.500000e+000
      vertex  4.774215e+000  2.320767e+001  1.485555e+000
    endloop
  endfacet
  facet normal  9.428451e-001  1.692229e-002  3.328012e-001
    outer loop
      vertex  4.330127e+000  2.800000e+001  2.500000e+000
      vertex  4.774215e+000  2.320767e+001  1.485555e+000
      vertex  4.816184e+000  2.366755e+001  1.343269e+000
    endloop
  endfacet
  facet normal  9.686224e-001  4.332838e-002  2.447308e-001
    outer loop
      vertex  4.330127e+000  2.800000e+001  2.500000e+000
      vertex  4.816184e+000  2.366755e+001  1.343269e+000
      vertex  4.953135e+000  2.433550e+001  6.829717e-001
    endloop
  endfacet
  facet normal  9.880490e-001  1.200273e-001  9.670867e-002
    outer loop
      vertex  4.330127e+000  2.800000e+001  2.500000e+000
      vertex  4.953135e+000  2.433550e+001  6.829717e-001
      vertex  5.000000e+000  2.450000e+001  0.000000e+000
    endloop
  endfacet
  facet normal  9.659259e-001 -2.263938e-017  2.588190e-001
    outer loop
      vertex  4.330127e+000  2.800000e+001  2.500000e+000
      vertex  5.000000e+000  2.450000e+001  0.000000e+000
      vertex  5.000000e+000  2.800000e+001  3.061516e-016
    endloop
  endfacet
  facet normal  2.588190e-001  0.000000e+000 -9.659258e-001
    outer loop
      vertex  6.123032e-016  1.723607e+001 -5.000000e+000
      vertex  6.123032e-016  2.800000e+001 -5.000000e+000
      vertex  2.500000e+000  2.300000e+001 -4.330127e+000
    endloop
  endfacet
  facet normal  2.588190e-001  0.000000e+000 -9.659259e-001
    outer loop
      vertex  2.500000e+000  2.300000e+001 -4.330127e+000
      vertex  6.123032e-016  2.800000e+001 -5.000000e+000
      vertex  2.500000e+000  2.800000e+001 -4.330127e+000
    endloop
  endfacet
  facet normal  7.071068e-001  0.000000e+000 -7.071068e-001
    outer loop
      vertex  2.500000e+000  2.300000e+001 -4.330127e+000
      vertex  2.500000e+000  2.800000e+001 -4.330127e+000
      vertex  4.330127e+000  2.300000e+001 -2.500000e+000
    endloop
  endfacet
  facet normal  7.071068e-001  0.000000e+000 -7.071068e-001
    outer loop
      vertex  4.330127e+000  2.300000e+001 -2.500000e+000
      vertex  2.500000e+000  2.800000e+001 -4.330127e+000
      vertex  4.330127e+000  2.800000e+001 -2.500000e+000
    endloop
  endfacet
  facet normal  9.231147e-001  0.000000e+000 -3.845246e-001
    outer loop
      vertex  4.330127e+000  2.300000e+001 -2.500000e+000
      vertex  4.330127e+000  2.800000e+001 -2.500000e+000
      vertex  4.824430e+000  2.372466e+001 -1.313344e+000
    endloop
  endfacet
  facet normal  9.651602e-001  3.980875e-002 -2.586138e-001
    outer loop
      vertex  4.824430e+000  2.372466e+001 -1.313344e+000
      vertex  4.330127e+000  2.800000e+001 -2.500000e+000
      vertex  5.000000e+000  2.800000e+001  3.061516e-016
    endloop
  endfacet
  facet normal  9.757669e-001  2.664637e-002 -2.171841e-001
    outer loop
      vertex  4.824430e+000  2.372466e+001 -1.313344e+000
      vertex  5.000000e+000  2.800000e+001  3.061516e-016
      vertex  4.961657e+000  2.436676e+001 -6.180305e-001
    endloop
  endfacet
  facet normal  9.377551e-001 -1.359252e-002  3.470311e-001
    outer loop
      vertex  4.824430e+000  2.227534e+001  1.313344e+000
      vertex  4.774215e+000  2.320767e+001  1.485555e+000
      vertex  4.282161e+000  1.723607e+001  2.581298e+000
    endloop
  endfacet
  facet normal  9.162151e-001 -1.973119e-003  4.006820e-001
    outer loop
      vertex  4.282161e+000  1.723607e+001  2.581298e+000
      vertex  4.774215e+000  2.320767e+001  1.485555e+000
      vertex  4.330127e+000  2.300000e+001  2.500000e+000
    endloop
  endfacet
  facet normal  6.919234e-001  4.424868e-003  7.219573e-001
    outer loop
      vertex  4.282161e+000  1.723607e+001  2.581298e+000
      vertex  4.330127e+000  2.300000e+001  2.500000e+000
      vertex  2.397128e+000  1.723607e+001  4.387913e+000
    endloop
  endfacet
  facet normal  7.070960e-001 -5.531075e-003  7.070960e-001
    outer loop
      vertex  2.397128e+000  1.723607e+001  4.387913e+000
      vertex  4.330127e+000  2.300000e+001  2.500000e+000
      vertex  2.500000e+000  2.300000e+001  4.330127e+000
    endloop
  endfacet
  facet normal  2.474005e-001  5.298057e-003  9.688988e-001
    outer loop
      vertex  2.397128e+000  1.723607e+001  4.387913e+000
      vertex  2.500000e+000  2.300000e+001  4.330127e+000
      vertex -1.224606e-015  1.723607e+001  5.000000e+000
    endloop
  endfacet
  facet normal  2.588190e-001 -2.944568e-017  9.659258e-001
    outer loop
      vertex -1.224606e-015  1.723607e+001  5.000000e+000
      vertex  2.500000e+000  2.300000e+001  4.330127e+000
      vertex  0.000000e+000  2.800000e+001  5.000000e+000
    endloop
  endfacet
  facet normal  7.071051e-001 -2.156676e-003 -7.071051e-001
    outer loop
      vertex  4.330127e+000  2.300000e+001 -2.500000e+000
      vertex  4.353532e+000  1.723607e+001 -2.459015e+000
      vertex  2.500000e+000  2.300000e+001 -4.330127e+000
    endloop
  endfacet
  facet normal  7.120947e-001  1.078250e-003 -7.020826e-001
    outer loop
      vertex  2.500000e+000  2.300000e+001 -4.330127e+000
      vertex  4.353532e+000  1.723607e+001 -2.459015e+000
      vertex  2.520409e+000  1.723607e+001 -4.318279e+000
    endloop
  endfacet
  facet normal  2.610977e-001 -1.059731e-003 -9.653118e-001
    outer loop
      vertex  2.500000e+000  2.300000e+001 -4.330127e+000
      vertex  2.520409e+000  1.723607e+001 -4.318279e+000
      vertex  6.123032e-016  1.723607e+001 -5.000000e+000
    endloop
  endfacet
  facet normal -2.422782e-001 -2.025025e-001 -9.488382e-001
    outer loop
      vertex -2.397128e+000  1.723607e+001 -4.387913e+000
      vertex  6.123032e-016  1.723607e+001 -5.000000e+000
      vertex -2.313584e+000  1.641957e+001 -4.234987e+000
    endloop
  endfacet
  facet normal -2.422782e-001 -2.025025e-001 -9.488382e-001
    outer loop
      vertex -2.313584e+000  1.641957e+001 -4.234987e+000
      vertex  6.123032e-016  1.723607e+001 -5.000000e+000
      vertex  2.775558e-014  1.641957e+001 -4.825742e+000
    endloop
  endfacet
  facet normal -2.019539e-001 -5.776394e-001 -7.909155e-001
    outer loop
      vertex -2.313584e+000  1.641957e+001 -4.234987e+000
      vertex  2.775558e-014  1.641957e+001 -4.825742e+000
      vertex -2.077511e+000  1.574536e+001 -3.802858e+000
    endloop
  endfacet
  facet normal -2.019539e-001 -5.776394e-001 -7.909155e-001
    outer loop
      vertex -2.077511e+000  1.574536e+001 -3.802858e+000
      vertex  2.775558e-014  1.641957e+001 -4.825742e+000
      vertex  2.441930e-014  1.574536e+001 -4.333333e+000
    endloop
  endfacet
  facet normal  2.133963e-001 -5.762067e-001 -7.889537e-001
    outer loop
      vertex  2.441930e-014  1.574536e+001 -4.333333e+000
      vertex  2.775558e-014  1.641957e+001 -4.825742e+000
      vertex  2.184355e+000  1.574536e+001 -3.742509e+000
    endloop
  endfacet
  facet normal  5.655173e-001 -5.762067e-001  5.900643e-001
    outer loop
      vertex  2.077511e+000  1.574536e+001  3.802858e+000
      vertex  3.711206e+000  1.574536e+001  2.237125e+000
      vertex  2.313584e+000  1.641957e+001  4.234987e+000
    endloop
  endfacet
  facet normal  6.776977e-001 -2.017807e-001  7.071141e-001
    outer loop
      vertex  2.397128e+000  1.723607e+001  4.387913e+000
      vertex  2.313584e+000  1.641957e+001  4.234987e+000
      vertex  4.282161e+000  1.723607e+001  2.581298e+000
    endloop
  endfacet
  facet normal  6.809422e-001 -4.021177e-001  6.120613e-001
    outer loop
      vertex  4.282161e+000  1.723607e+001  2.581298e+000
      vertex  2.313584e+000  1.641957e+001  4.234987e+000
      vertex  3.711206e+000  1.574536e+001  2.237125e+000
    endloop
  endfacet
  facet normal  8.827720e-001 -3.963449e-001  2.522385e-001
    outer loop
      vertex  4.282161e+000  1.723607e+001  2.581298e+000
      vertex  3.711206e+000  1.574536e+001  2.237125e+000
      vertex  4.999499e+000  1.723607e+001  7.079396e-002
    endloop
  endfacet
  facet normal  8.827720e-001 -3.963449e-001  2.522386e-001
    outer loop
      vertex  4.999499e+000  1.723607e+001  7.079396e-002
      vertex  3.711206e+000  1.574536e+001  2.237125e+000
      vertex  4.332899e+000  1.574536e+001  6.135477e-002
    endloop
  endfacet
  facet normal  8.895602e-001 -3.963449e-001 -2.271421e-001
    outer loop
      vertex  4.999499e+000  1.723607e+001  7.079396e-002
      vertex  4.332899e+000  1.574536e+001  6.135477e-002
      vertex  4.353532e+000  1.723607e+001 -2.459015e+000
    endloop
  endfacet
  facet normal  8.895601e-001 -3.963448e-001 -2.271421e-001
    outer loop
      vertex  4.353532e+000  1.723607e+001 -2.459015e+000
      vertex  4.332899e+000  1.574536e+001  6.135477e-002
      vertex  3.773062e+000  1.574536e+001 -2.131146e+000
    endloop
  endfacet
  facet normal  6.537758e-001 -3.963449e-001 -6.445836e-001
    outer loop
      vertex  4.353532e+000  1.723607e+001 -2.459015e+000
      vertex  3.773062e+000  1.574536e+001 -2.131146e+000
      vertex  2.520409e+000  1.723607e+001 -4.318279e+000
    endloop
  endfacet
  facet normal  6.537757e-001 -3.963448e-001 -6.445836e-001
    outer loop
      vertex  2.520409e+000  1.723607e+001 -4.318279e+000
      vertex  3.773062e+000  1.574536e+001 -2.131146e+000
      vertex  2.184355e+000  1.574536e+001 -3.742509e+000
    endloop
  endfacet
  facet normal  2.397144e-001 -3.963448e-001 -8.862550e-001
    outer loop
      vertex  2.520409e+000  1.723607e+001 -4.318279e+000
      vertex  2.184355e+000  1.574536e+001 -3.742509e+000
      vertex  6.123032e-016  1.723607e+001 -5.000000e+000
    endloop
  endfacet
  facet normal  3.876712e-001 -1.923985e-001 -9.014953e-001
    outer loop
      vertex  6.123032e-016  1.723607e+001 -5.000000e+000
      vertex  2.184355e+000  1.574536e+001 -3.742509e+000
      vertex  2.775558e-014  1.641957e+001 -4.825742e+000
    endloop
  endfacet
  facet normal  2.422782e-001 -2.025025e-001  9.488382e-001
    outer loop
      vertex  2.397128e+000  1.723607e+001  4.387913e+000
      vertex -1.224606e-015  1.723607e+001  5.000000e+000
      vertex  2.313584e+000  1.641957e+001  4.234987e+000
    endloop
  endfacet
  facet normal  2.422782e-001 -2.025025e-001  9.488382e-001
    outer loop
      vertex  2.313584e+000  1.641957e+001  4.234987e+000
      vertex -1.224606e-015  1.723607e+001  5.000000e+000
      vertex  5.773160e-015  1.641957e+001  4.825742e+000
    endloop
  endfacet
  facet normal  2.019539e-001 -5.776394e-001  7.909155e-001
    outer loop
      vertex  2.313584e+000  1.641957e+001  4.234987e+000
      vertex  5.773160e-015  1.641957e+001  4.825742e+000
      vertex  2.077511e+000  1.574536e+001  3.802858e+000
    endloop
  endfacet
  facet normal  2.019539e-001 -5.776394e-001  7.909155e-001
    outer loop
      vertex  2.077511e+000  1.574536e+001  3.802858e+000
      vertex  5.773160e-015  1.641957e+001  4.825742e+000
      vertex  5.840227e-015  1.574536e+001  4.333333e+000
    endloop
  endfacet
  facet normal -2.133963e-001 -5.762067e-001  7.889537e-001
    outer loop
      vertex  5.840227e-015  1.574536e+001  4.333333e+000
      vertex  5.773160e-015  1.641957e+001  4.825742e+000
      vertex -2.184355e+000  1.574536e+001  3.742509e+000
    endloop
  endfacet
  facet normal -5.655173e-001 -5.762067e-001 -5.900643e-001
    outer loop
      vertex -2.077511e+000  1.574536e+001 -3.802858e+000
      vertex -3.711206e+000  1.574536e+001 -2.237125e+000
      vertex -2.313584e+000  1.641957e+001 -4.234987e+000
    endloop
  endfacet
  facet normal -6.776977e-001 -2.017807e-001 -7.071141e-001
    outer loop
      vertex -2.397128e+000  1.723607e+001 -4.387913e+000
      vertex -2.313584e+000  1.641957e+001 -4.234987e+000
      vertex -4.282161e+000  1.723607e+001 -2.581298e+000
    endloop
  endfacet
  facet normal -6.809422e-001 -4.021177e-001 -6.120613e-001
    outer loop
      vertex -4.282161e+000  1.723607e+001 -2.581298e+000
      vertex -2.313584e+000  1.641957e+001 -4.234987e+000
      vertex -3.711206e+000  1.574536e+001 -2.237125e+000
    endloop
  endfacet
  facet normal -8.827720e-001 -3.963449e-001 -2.522385e-001
    outer loop
      vertex -4.282161e+000  1.723607e+001 -2.581298e+000
      vertex -3.711206e+000  1.574536e+001 -2.237125e+000
      vertex -4.999499e+000  1.723607e+001 -7.079396e-002
    endloop
  endfacet
  facet normal -8.827720e-001 -3.963449e-001 -2.522386e-001
    outer loop
      vertex -4.999499e+000  1.723607e+001 -7.079396e-002
      vertex -3.711206e+000  1.574536e+001 -2.237125e+000
      vertex -4.332899e+000  1.574536e+001 -6.135477e-002
    endloop
  endfacet
  facet normal -8.895602e-001 -3.963449e-001  2.271421e-001
    outer loop
      vertex -4.999499e+000  1.723607e+001 -7.079396e-002
      vertex -4.332899e+000  1.574536e+001 -6.135477e-002
      vertex -4.353532e+000  1.723607e+001  2.459015e+000
    endloop
  endfacet
  facet normal -8.895601e-001 -3.963448e-001  2.271421e-001
    outer loop
      vertex -4.353532e+000  1.723607e+001  2.459015e+000
      vertex -4.332899e+000  1.574536e+001 -6.135477e-002
      vertex -3.773062e+000  1.574536e+001  2.131146e+000
    endloop
  endfacet
  facet normal -6.537758e-001 -3.963449e-001  6.445836e-001
    outer loop
      vertex -4.353532e+000  1.723607e+001  2.459015e+000
      vertex -3.773062e+000  1.574536e+001  2.131146e+000
      vertex -2.520409e+000  1.723607e+001  4.318279e+000
    endloop
  endfacet
  facet normal -6.537757e-001 -3.963448e-001  6.445836e-001
    outer loop
      vertex -2.520409e+000  1.723607e+001  4.318279e+000
      vertex -3.773062e+000  1.574536e+001  2.131146e+000
      vertex -2.184355e+000  1.574536e+001  3.742509e+000
    endloop
  endfacet
  facet normal -2.397144e-001 -3.963448e-001  8.862550e-001
    outer loop
      vertex -2.520409e+000  1.723607e+001  4.318279e+000
      vertex -2.184355e+000  1.574536e+001  3.742509e+000
      vertex -1.224606e-015  1.723607e+001  5.000000e+000
    endloop
  endfacet
  facet normal -3.876712e-001 -1.923985e-001  9.014953e-001
    outer loop
      vertex -1.224606e-015  1.723607e+001  5.000000e+000
      vertex -2.184355e+000  1.574536e+001  3.742509e+000
      vertex  5.773160e-015  1.641957e+001  4.825742e+000
    endloop
  endfacet
  facet normal  1.847729e-001  0.000000e+000  9.827812e-001
    outer loop
      vertex  1.917702e+000  2.000000e+000  3.510330e+000
      vertex  1.917702e+000  1.500000e+001  3.510330e+000
      vertex -5.118667e-001  2.000000e+000  3.967114e+000
    endloop
  endfacet
  facet normal  1.847729e-001  -0.000000e+000  9.827812e-001
    outer loop
      vertex -5.118667e-001  2.000000e+000  3.967114e+000
      vertex  1.917702e+000  1.500000e+001  3.510330e+000
      vertex -5.118667e-001  1.500000e+001  3.967114e+000
    endloop
  endfacet
  facet normal -4.281800e-001  0.000000e+000  9.036935e-001
    outer loop
      vertex -5.118667e-001  2.000000e+000  3.967114e+000
      vertex -5.118667e-001  1.500000e+001  3.967114e+000
      vertex -2.745920e+000  2.000000e+000  2.908595e+000
    endloop
  endfacet
  facet normal -4.281800e-001  0.000000e+000  9.036935e-001
    outer loop
      vertex -2.745920e+000  2.000000e+000  2.908595e+000
      vertex -5.118667e-001  1.500000e+001  3.967114e+000
      vertex -2.745920e+000  1.500000e+001  2.908595e+000
    endloop
  endfacet
  facet normal -8.775826e-001  0.000000e+000  4.794255e-001
    outer loop
      vertex -2.745920e+000  2.000000e+000  2.908595e+000
      vertex -2.745920e+000  1.500000e+001  2.908595e+000
      vertex -3.931125e+000  2.000000e+000  7.390915e-001
    endloop
  endfacet
  facet normal -8.775826e-001  0.000000e+000  4.794255e-001
    outer loop
      vertex -3.931125e+000  2.000000e+000  7.390915e-001
      vertex -2.745920e+000  1.500000e+001  2.908595e+000
      vertex -3.931125e+000  1.500000e+001  7.390915e-001
    endloop
  endfacet
  facet normal -9.917785e-001  -0.000000e+000 -1.279666e-001
    outer loop
      vertex -3.931125e+000  2.000000e+000  7.390915e-001
      vertex -3.931125e+000  1.500000e+001  7.390915e-001
      vertex -3.614774e+000  2.000000e+000 -1.712720e+000
    endloop
  endfacet
  facet normal -9.917785e-001  0.000000e+000 -1.279666e-001
    outer loop
      vertex -3.614774e+000  2.000000e+000 -1.712720e+000
      vertex -3.931125e+000  1.500000e+001  7.390915e-001
      vertex -3.614774e+000  1.500000e+001 -1.712720e+000
    endloop
  endfacet
  facet normal -7.271487e-001  -0.000000e+000 -6.864800e-001
    outer loop
      vertex -3.614774e+000  2.000000e+000 -1.712720e+000
      vertex -3.614774e+000  1.500000e+001 -1.712720e+000
      vertex -1.917702e+000  2.000000e+000 -3.510330e+000
    endloop
  endfacet
  facet normal -7.271487e-001  0.000000e+000 -6.864800e-001
    outer loop
      vertex -1.917702e+000  2.000000e+000 -3.510330e+000
      vertex -3.614774e+000  1.500000e+001 -1.712720e+000
      vertex -1.917702e+000  1.500000e+001 -3.510330e+000
    endloop
  endfacet
  facet normal -1.847729e-001  -0.000000e+000 -9.827812e-001
    outer loop
      vertex -1.917702e+000  2.000000e+000 -3.510330e+000
      vertex -1.917702e+000  1.500000e+001 -3.510330e+000
      vertex  5.118667e-001  2.000000e+000 -3.967114e+000
    endloop
  endfacet
  facet normal -1.847729e-001  0.000000e+000 -9.827812e-001
    outer loop
      vertex  5.118667e-001  2.000000e+000 -3.967114e+000
      vertex -1.917702e+000  1.500000e+001 -3.510330e+000
      vertex  5.118667e-001  1.500000e+001 -3.967114e+000
    endloop
  endfacet
  facet normal  4.281800e-001  0.000000e+000 -9.036935e-001
    outer loop
      vertex  5.118667e-001  2.000000e+000 -3.967114e+000
      vertex  5.118667e-001  1.500000e+001 -3.967114e+000
      vertex  2.745920e+000  2.000000e+000 -2.908595e+000
    endloop
  endfacet
  facet normal  4.281800e-001  0.000000e+000 -9.036935e-001
    outer loop
      vertex  2.745920e+000  2.000000e+000 -2.908595e+000
      vertex  5.118667e-001  1.500000e+001 -3.967114e+000
      vertex  2.745920e+000  1.500000e+001 -2.908595e+000
    endloop
  endfacet
  facet normal  8.775826e-001  0.000000e+000 -4.794255e-001
    outer loop
      vertex  2.745920e+000  2.000000e+000 -2.908595e+000
      vertex  2.745920e+000  1.500000e+001 -2.908595e+000
      vertex  3.931125e+000  2.000000e+000 -7.390915e-001
    endloop
  endfacet
  facet normal  8.775826e-001  0.000000e+000 -4.794255e-001
    outer loop
      vertex  3.931125e+000  2.000000e+000 -7.390915e-001
      vertex  2.745920e+000  1.500000e+001 -2.908595e+000
      vertex  3.931125e+000  1.500000e+001 -7.390915e-001
    endloop
  endfacet
  facet normal  9.917785e-001  0.000000e+000  1.279666e-001
    outer loop
      vertex  3.931125e+000  2.000000e+000 -7.390915e-001
      vertex  3.931125e+000  1.500000e+001 -7.390915e-001
      vertex  3.614774e+000  2.000000e+000  1.712720e+000
    endloop
  endfacet
  facet normal  9.917785e-001  -0.000000e+000  1.279666e-001
    outer loop
      vertex  3.614774e+000  2.000000e+000  1.712720e+000
      vertex  3.931125e+000  1.500000e+001 -7.390915e-001
      vertex  3.614774e+000  1.500000e+001  1.712720e+000
    endloop
  endfacet
  facet normal  7.271487e-001  0.000000e+000  6.864800e-001
    outer loop
      vertex  3.614774e+000  2.000000e+000  1.712720e+000
      vertex  3.614774e+000  1.500000e+001  1.712720e+000
      vertex  1.917702e+000  2.000000e+000  3.510330e+000
    endloop
  endfacet
  facet normal  7.271487e-001  -0.000000e+000  6.864800e-001
    outer loop
      vertex  1.917702e+000  2.000000e+000  3.510330e+000
      vertex  3.614774e+000  1.500000e+001  1.712720e+000
      vertex  1.917702e+000  1.500000e+001  3.510330e+000
    endloop
  endfacet
  facet normal  0.000000e+000 -1.000000e+000  0.000000e+000
    outer loop
      vertex -1.372960e+000  0.000000e+000  1.454297e+000
      vertex -9.588507e-001  0.000000e+000 -1.755165e+000
      vertex -2.559337e-001  0.000000e+000  1.983557e+000
    endloop
  endfacet
  facet normal  0.000000e+000 -9.999999e-001  -0.000000e+000
    outer loop
      vertex -2.559337e-001  0.000000e+000  1.983557e+000
      vertex -9.588507e-001  0.000000e+000 -1.755165e+000
      vertex  5.630793e-001  0.000000e+000 -1.919099e+000
    endloop
  endfacet
  facet normal  0.000000e+000 -1.000000e+000  0.000000e+000
    outer loop
      vertex -2.559337e-001  0.000000e+000  1.983557e+000
      vertex  5.630793e-001  0.000000e+000 -1.919099e+000
      vertex  9.588511e-001  0.000000e+000  1.755165e+000
    endloop
  endfacet
  facet normal  0.000000e+000 -1.000000e+000  -0.000000e+000
    outer loop
      vertex  9.588511e-001  0.000000e+000  1.755165e+000
      vertex  5.630793e-001  0.000000e+000 -1.919099e+000
      vertex  1.755165e+000  0.000000e+000 -9.588509e-001
    endloop
  endfacet
  facet normal  0.000000e+000 -9.999999e-001  0.000000e+000
    outer loop
      vertex  9.588511e-001  0.000000e+000  1.755165e+000
      vertex  1.755165e+000  0.000000e+000 -9.588509e-001
      vertex  1.919099e+000  0.000000e+000  5.630791e-001
    endloop
  endfacet
  facet normal  0.000000e+000 -1.000000e+000  0.000000e+000
    outer loop
      vertex -1.807386e+000  0.000000e+000 -8.563611e-001
      vertex -9.588507e-001  0.000000e+000 -1.755165e+000
      vertex -1.965563e+000  0.000000e+000  3.695447e-001
    endloop
  endfacet
  facet normal  0.000000e+000 -1.000000e+000  0.000000e+000
    outer loop
      vertex -1.965563e+000  0.000000e+000  3.695447e-001
      vertex -9.588507e-001  0.000000e+000 -1.755165e+000
      vertex -1.372960e+000  0.000000e+000  1.454297e+000
    endloop
  endfacet
  facet normal  2.879294e-001 -9.291415e-001  2.319327e-001
    outer loop
      vertex  9.588511e-001  0.000000e+000  1.755165e+000
      vertex  1.919099e+000  0.000000e+000  5.630791e-001
      vertex  3.085402e+000  5.857865e-001  1.461898e+000
    endloop
  endfacet
  facet normal  2.903521e-001 -9.168193e-001  2.741130e-001
    outer loop
      vertex  9.588511e-001  0.000000e+000  1.755165e+000
      vertex  3.085402e+000  5.857865e-001  1.461898e+000
      vertex  1.636861e+000  5.857865e-001  2.996254e+000
    endloop
  endfacet
  facet normal -7.378001e-002 -9.168194e-001 -3.924267e-001
    outer loop
      vertex -9.588507e-001  0.000000e+000 -1.755165e+000
      vertex -1.636859e+000  5.857865e-001 -2.996256e+000
      vertex  4.369060e-001  5.857865e-001 -3.386143e+000
    endloop
  endfacet
  facet normal -3.959562e-002 -9.291415e-001 -3.675980e-001
    outer loop
      vertex -9.588507e-001  0.000000e+000 -1.755165e+000
      vertex  4.369060e-001  5.857865e-001 -3.386143e+000
      vertex  5.630793e-001  0.000000e+000 -1.919099e+000
    endloop
  endfacet
  facet normal  4.149311e-001 -9.082763e-001  5.353754e-002
    outer loop
      vertex  1.919099e+000  0.000000e+000  5.630791e-001
      vertex  3.355425e+000  5.857865e-001 -6.308538e-001
      vertex  3.085402e+000  5.857865e-001  1.461898e+000
    endloop
  endfacet
  facet normal  3.731042e-001 -9.051229e-001 -2.038277e-001
    outer loop
      vertex  1.755165e+000  0.000000e+000 -9.588509e-001
      vertex  2.343790e+000  5.857865e-001 -2.482641e+000
      vertex  3.355425e+000  5.857865e-001 -6.308538e-001
    endloop
  endfacet
  facet normal  3.503164e-001 -9.358710e-001 -3.773417e-002
    outer loop
      vertex  1.755165e+000  0.000000e+000 -9.588509e-001
      vertex  3.355425e+000  5.857865e-001 -6.308538e-001
      vertex  1.919099e+000  0.000000e+000  5.630791e-001
    endloop
  endfacet
  facet normal  1.791380e-001 -9.082764e-001 -3.780789e-001
    outer loop
      vertex  5.630793e-001  0.000000e+000 -1.919099e+000
      vertex  4.369060e-001  5.857865e-001 -3.386143e+000
      vertex  2.343790e+000  5.857865e-001 -2.482641e+000
    endloop
  endfacet
  facet normal  2.210290e-001 -9.358709e-001 -2.743931e-001
    outer loop
      vertex  5.630793e-001  0.000000e+000 -1.919099e+000
      vertex  2.343790e+000  5.857865e-001 -2.482641e+000
      vertex  1.755165e+000  0.000000e+000 -9.588509e-001
    endloop
  endfacet
  facet normal  6.765450e-001 -3.665254e-001  6.387065e-001
    outer loop
      vertex  1.917702e+000  2.000000e+000  3.510330e+000
      vertex  1.636861e+000  5.857865e-001  2.996254e+000
      vertex  3.614774e+000  2.000000e+000  1.712720e+000
    endloop
  endfacet
  facet normal  6.765450e-001 -3.665254e-001  6.387065e-001
    outer loop
      vertex  3.614774e+000  2.000000e+000  1.712720e+000
      vertex  1.636861e+000  5.857865e-001  2.996254e+000
      vertex  3.085402e+000  5.857865e-001  1.461898e+000
    endloop
  endfacet
  facet normal  9.227586e-001 -3.665255e-001  1.190612e-001
    outer loop
      vertex  3.614774e+000  2.000000e+000  1.712720e+000
      vertex  3.085402e+000  5.857865e-001  1.461898e+000
      vertex  3.931125e+000  2.000000e+000 -7.390915e-001
    endloop
  endfacet
  facet normal  9.227587e-001 -3.665253e-001  1.190613e-001
    outer loop
      vertex  3.931125e+000  2.000000e+000 -7.390915e-001
      vertex  3.085402e+000  5.857865e-001  1.461898e+000
      vertex  3.355425e+000  5.857865e-001 -6.308538e-001
    endloop
  endfacet
  facet normal  8.165099e-001 -3.665254e-001 -4.460614e-001
    outer loop
      vertex  3.931125e+000  2.000000e+000 -7.390915e-001
      vertex  3.355425e+000  5.857865e-001 -6.308538e-001
      vertex  2.745920e+000  2.000000e+000 -2.908595e+000
    endloop
  endfacet
  facet normal  8.165100e-001 -3.665253e-001 -4.460613e-001
    outer loop
      vertex  2.745920e+000  2.000000e+000 -2.908595e+000
      vertex  3.355425e+000  5.857865e-001 -6.308538e-001
      vertex  2.343790e+000  5.857865e-001 -2.482641e+000
    endloop
  endfacet
  facet normal  3.983821e-001 -3.665255e-001 -8.408037e-001
    outer loop
      vertex  2.745920e+000  2.000000e+000 -2.908595e+000
      vertex  2.343790e+000  5.857865e-001 -2.482641e+000
      vertex  5.118667e-001  2.000000e+000 -3.967114e+000
    endloop
  endfacet
  facet normal  3.983822e-001 -3.665254e-001 -8.408037e-001
    outer loop
      vertex  5.118667e-001  2.000000e+000 -3.967114e+000
      vertex  2.343790e+000  5.857865e-001 -2.482641e+000
      vertex  4.369060e-001  5.857865e-001 -3.386143e+000
    endloop
  endfacet
  facet normal -1.719142e-001 -3.665256e-001 -9.143876e-001
    outer loop
      vertex  5.118667e-001  2.000000e+000 -3.967114e+000
      vertex  4.369060e-001  5.857865e-001 -3.386143e+000
      vertex -1.917702e+000  2.000000e+000 -3.510330e+000
    endloop
  endfacet
  facet normal -1.719138e-001 -3.665248e-001 -9.143879e-001
    outer loop
      vertex -1.917702e+000  2.000000e+000 -3.510330e+000
      vertex  4.369060e-001  5.857865e-001 -3.386143e+000
      vertex -1.636859e+000  5.857865e-001 -2.996256e+000
    endloop
  endfacet
  facet normal  1.719142e-001 -3.665254e-001  9.143875e-001
    outer loop
      vertex  1.917702e+000  2.000000e+000  3.510330e+000
      vertex -5.118667e-001  2.000000e+000  3.967114e+000
      vertex  1.636861e+000  5.857865e-001  2.996254e+000
    endloop
  endfacet
  facet normal  1.719141e-001 -3.665256e-001  9.143876e-001
    outer loop
      vertex  1.636861e+000  5.857865e-001  2.996254e+000
      vertex -5.118667e-001  2.000000e+000  3.967114e+000
      vertex -4.369062e-001  5.857865e-001  3.386143e+000
    endloop
  endfacet
  facet normal  7.378021e-002 -9.168193e-001  3.924268e-001
    outer loop
      vertex  1.636861e+000  5.857865e-001  2.996254e+000
      vertex -4.369062e-001  5.857865e-001  3.386143e+000
      vertex  9.588511e-001  0.000000e+000  1.755165e+000
    endloop
  endfacet
  facet normal  7.378019e-002 -9.168194e-001  3.924268e-001
    outer loop
      vertex  9.588511e-001  0.000000e+000  1.755165e+000
      vertex -4.369062e-001  5.857865e-001  3.386143e+000
      vertex -2.559337e-001  0.000000e+000  1.983557e+000
    endloop
  endfacet
  facet normal -6.765451e-001 -3.665251e-001 -6.387066e-001
    outer loop
      vertex -3.614774e+000  2.000000e+000 -1.712720e+000
      vertex -1.917702e+000  2.000000e+000 -3.510330e+000
      vertex -3.085402e+000  5.857865e-001 -1.461900e+000
    endloop
  endfacet
  facet normal -6.765444e-001 -3.665260e-001 -6.387069e-001
    outer loop
      vertex -3.085402e+000  5.857865e-001 -1.461900e+000
      vertex -1.917702e+000  2.000000e+000 -3.510330e+000
      vertex -1.636859e+000  5.857865e-001 -2.996256e+000
    endloop
  endfacet
  facet normal -2.903519e-001 -9.168193e-001 -2.741132e-001
    outer loop
      vertex -3.085402e+000  5.857865e-001 -1.461900e+000
      vertex -1.636859e+000  5.857865e-001 -2.996256e+000
      vertex -1.807386e+000  0.000000e+000 -8.563611e-001
    endloop
  endfacet
  facet normal -2.903521e-001 -9.168192e-001 -2.741132e-001
    outer loop
      vertex -1.807386e+000  0.000000e+000 -8.563611e-001
      vertex -1.636859e+000  5.857865e-001 -2.996256e+000
      vertex -9.588507e-001  0.000000e+000 -1.755165e+000
    endloop
  endfacet
  facet normal -9.227588e-001 -3.665251e-001 -1.190612e-001
    outer loop
      vertex -3.931125e+000  2.000000e+000  7.390915e-001
      vertex -3.614774e+000  2.000000e+000 -1.712720e+000
      vertex -3.355425e+000  5.857865e-001  6.308523e-001
    endloop
  endfacet
  facet normal -9.227584e-001 -3.665259e-001 -1.190618e-001
    outer loop
      vertex -3.355425e+000  5.857865e-001  6.308523e-001
      vertex -3.614774e+000  2.000000e+000 -1.712720e+000
      vertex -3.085402e+000  5.857865e-001 -1.461900e+000
    endloop
  endfacet
  facet normal -3.960193e-001 -9.168193e-001 -5.109762e-002
    outer loop
      vertex -3.355425e+000  5.857865e-001  6.308523e-001
      vertex -3.085402e+000  5.857865e-001 -1.461900e+000
      vertex -1.965563e+000  0.000000e+000  3.695447e-001
    endloop
  endfacet
  facet normal -3.960194e-001 -9.168193e-001 -5.109763e-002
    outer loop
      vertex -1.965563e+000  0.000000e+000  3.695447e-001
      vertex -3.085402e+000  5.857865e-001 -1.461900e+000
      vertex -1.807386e+000  0.000000e+000 -8.563611e-001
    endloop
  endfacet
  facet normal -8.165100e-001 -3.665252e-001  4.460614e-001
    outer loop
      vertex -2.745920e+000  2.000000e+000  2.908595e+000
      vertex -3.931125e+000  2.000000e+000  7.390915e-001
      vertex -2.343790e+000  5.857865e-001  2.482640e+000
    endloop
  endfacet
  facet normal -8.165100e-001 -3.665258e-001  4.460610e-001
    outer loop
      vertex -2.343790e+000  5.857865e-001  2.482640e+000
      vertex -3.931125e+000  2.000000e+000  7.390915e-001
      vertex -3.355425e+000  5.857865e-001  6.308523e-001
    endloop
  endfacet
  facet normal -3.504208e-001 -9.168194e-001  1.914355e-001
    outer loop
      vertex -2.343790e+000  5.857865e-001  2.482640e+000
      vertex -3.355425e+000  5.857865e-001  6.308523e-001
      vertex -1.372960e+000  0.000000e+000  1.454297e+000
    endloop
  endfacet
  facet normal -3.504208e-001 -9.168193e-001  1.914356e-001
    outer loop
      vertex -1.372960e+000  0.000000e+000  1.454297e+000
      vertex -3.355425e+000  5.857865e-001  6.308523e-001
      vertex -1.965563e+000  0.000000e+000  3.695447e-001
    endloop
  endfacet
  facet normal -3.983821e-001 -3.665254e-001  8.408037e-001
    outer loop
      vertex -5.118667e-001  2.000000e+000  3.967114e+000
      vertex -2.745920e+000  2.000000e+000  2.908595e+000
      vertex -4.369062e-001  5.857865e-001  3.386143e+000
    endloop
  endfacet
  facet normal -3.983822e-001 -3.665256e-001  8.408036e-001
    outer loop
      vertex -4.369062e-001  5.857865e-001  3.386143e+000
      vertex -2.745920e+000  2.000000e+000  2.908595e+000
      vertex -2.343790e+000  5.857865e-001  2.482640e+000
    endloop
  endfacet
  facet normal -1.709733e-001 -9.168193e-001  3.608468e-001
    outer loop
      vertex -4.369062e-001  5.857865e-001  3.386143e+000
      vertex -2.343790e+000  5.857865e-001  2.482640e+000
      vertex -2.559337e-001  0.000000e+000  1.983557e+000
    endloop
  endfacet
  facet normal -1.709733e-001 -9.168193e-001  3.608468e-001
    outer loop
      vertex -2.559337e-001  0.000000e+000  1.983557e+000
      vertex -2.343790e+000  5.857865e-001  2.482640e+000
      vertex -1.372960e+000  0.000000e+000  1.454297e+000
    endloop
  endfacet
  facet normal -9.953281e-001  1.495215e-002 -9.538547e-002
    outer loop
      vertex  3.272869e+000  1.700000e+001 -4.222900e-001
      vertex  3.243814e+000  2.162802e+001  6.063595e-001
      vertex  3.300000e+000  2.150000e+001  1.836910e-016
    endloop
  endfacet
  facet normal -9.945477e-001 -3.783434e-003  1.042142e-001
    outer loop
      vertex  3.227059e+000  2.166812e+001 -6.899909e-001
      vertex  3.272869e+000  1.700000e+001 -4.222900e-001
      vertex  3.300000e+000  2.150000e+001  1.836910e-016
    endloop
  endfacet
  facet normal -9.936920e-001 -2.099422e-002 -1.101609e-001
    outer loop
      vertex  3.227059e+000  2.433188e+001  6.899909e-001
      vertex  3.272869e+000  2.800000e+001 -4.222900e-001
      vertex  3.300000e+000  2.450000e+001  0.000000e+000
    endloop
  endfacet
  facet normal -9.338834e-001  7.198698e-002 -3.502567e-001
    outer loop
      vertex  3.272869e+000  1.700000e+001 -4.222900e-001
      vertex  3.029953e+000  2.226473e+001  1.307435e+000
      vertex  3.243814e+000  2.162802e+001  6.063595e-001
    endloop
  endfacet
  facet normal -8.852857e-001  -0.000000e+000 -4.650475e-001
    outer loop
      vertex  2.896023e+000  1.700000e+001  1.582104e+000
      vertex  2.896023e+000  2.800000e+001  1.582104e+000
      vertex  2.946084e+000  2.319853e+001  1.486804e+000
    endloop
  endfacet
  facet normal -9.043778e-001  7.432806e-004 -4.267322e-001
    outer loop
      vertex  2.896023e+000  1.700000e+001  1.582104e+000
      vertex  2.946084e+000  2.319853e+001  1.486804e+000
      vertex  3.029953e+000  2.226473e+001  1.307435e+000
    endloop
  endfacet
  facet normal -9.826654e-001  1.535939e-002 -1.847510e-001
    outer loop
      vertex  2.896023e+000  1.700000e+001  1.582104e+000
      vertex  3.029953e+000  2.226473e+001  1.307435e+000
      vertex  3.272869e+000  1.700000e+001 -4.222900e-001
    endloop
  endfacet
  facet normal -9.035824e-001  1.568456e-002  4.281273e-001
    outer loop
      vertex  2.399591e+000  1.700000e+001 -2.265384e+000
      vertex  3.272869e+000  1.700000e+001 -4.222900e-001
      vertex  3.227059e+000  2.166812e+001 -6.899909e-001
    endloop
  endfacet
  facet normal -9.346110e-001  4.667497e-002  3.525959e-001
    outer loop
      vertex  2.399591e+000  1.700000e+001 -2.265384e+000
      vertex  3.227059e+000  2.166812e+001 -6.899909e-001
      vertex  3.013029e+000  2.233792e+001 -1.345977e+000
    endloop
  endfacet
  facet normal -8.779937e-001  1.851469e-002  4.783140e-001
    outer loop
      vertex  2.399591e+000  1.700000e+001 -2.265384e+000
      vertex  3.013029e+000  2.233792e+001 -1.345977e+000
      vertex  2.946084e+000  2.280147e+001 -1.486804e+000
    endloop
  endfacet
  facet normal -8.184964e-001  0.000000e+000  5.745116e-001
    outer loop
      vertex  2.399591e+000  1.700000e+001 -2.265384e+000
      vertex  2.946084e+000  2.280147e+001 -1.486804e+000
      vertex  2.399591e+000  2.300000e+001 -2.265384e+000
    endloop
  endfacet
  facet normal -4.794255e-001  0.000000e+000  8.775826e-001
    outer loop
      vertex  6.097504e-001  2.800000e+001 -3.243178e+000
      vertex  2.399591e+000  2.300000e+001 -2.265384e+000
      vertex  2.399591e+000  2.800000e+001 -2.265384e+000
    endloop
  endfacet
  facet normal -8.184964e-001  0.000000e+000  5.745117e-001
    outer loop
      vertex  2.399591e+000  2.800000e+001 -2.265384e+000
      vertex  2.399591e+000  2.300000e+001 -2.265384e+000
      vertex  2.946084e+000  2.280147e+001 -1.486804e+000
    endloop
  endfacet
  facet normal -8.685609e-001 -1.712851e-002  4.952864e-001
    outer loop
      vertex  2.399591e+000  2.800000e+001 -2.265384e+000
      vertex  2.946084e+000  2.280147e+001 -1.486804e+000
      vertex  3.029953e+000  2.373527e+001 -1.307435e+000
    endloop
  endfacet
  facet normal -4.794255e-001  0.000000e+000  8.775826e-001
    outer loop
      vertex  2.399591e+000  2.300000e+001 -2.265384e+000
      vertex  6.097504e-001  2.800000e+001 -3.243178e+000
      vertex  6.097504e-001  2.300000e+001 -3.243178e+000
    endloop
  endfacet
  facet normal  1.279667e-001  -0.000000e+000  9.917785e-001
    outer loop
      vertex  6.097504e-001  2.300000e+001 -3.243178e+000
      vertex  6.097504e-001  2.800000e+001 -3.243178e+000
      vertex -1.412994e+000  2.800000e+001 -2.982188e+000
    endloop
  endfacet
  facet normal  1.279667e-001  0.000000e+000  9.917785e-001
    outer loop
      vertex  6.097504e-001  2.300000e+001 -3.243178e+000
      vertex -1.412994e+000  2.800000e+001 -2.982188e+000
      vertex -1.412994e+000  2.300000e+001 -2.982188e+000
    endloop
  endfacet
  facet normal  6.864799e-001  -0.000000e+000  7.271488e-001
    outer loop
      vertex -1.412994e+000  2.300000e+001 -2.982188e+000
      vertex -1.412994e+000  2.800000e+001 -2.982188e+000
      vertex -2.896023e+000  2.800000e+001 -1.582104e+000
    endloop
  endfacet
  facet normal  6.864799e-001  0.000000e+000  7.271488e-001
    outer loop
      vertex -1.412994e+000  2.300000e+001 -2.982188e+000
      vertex -2.896023e+000  2.800000e+001 -1.582104e+000
      vertex -2.896023e+000  1.700000e+001 -1.582104e+000
    endloop
  endfacet
  facet normal -9.020740e-001 -8.393001e-004 -4.315804e-001
    outer loop
      vertex  2.946084e+000  2.319853e+001  1.486804e+000
      vertex  2.896023e+000  2.800000e+001  1.582104e+000
      vertex  3.013029e+000  2.366208e+001  1.345977e+000
    endloop
  endfacet
  facet normal -9.826484e-001 -1.644854e-002 -1.847478e-001
    outer loop
      vertex  3.013029e+000  2.366208e+001  1.345977e+000
      vertex  2.896023e+000  2.800000e+001  1.582104e+000
      vertex  3.272869e+000  2.800000e+001 -4.222900e-001
    endloop
  endfacet
  facet normal -9.046499e-001 -1.132764e-001 -4.108249e-001
    outer loop
      vertex  3.013029e+000  2.366208e+001  1.345977e+000
      vertex  3.272869e+000  2.800000e+001 -4.222900e-001
      vertex  3.227059e+000  2.433188e+001  6.899909e-001
    endloop
  endfacet
  facet normal -9.957932e-001  3.329047e-003  9.156884e-002
    outer loop
      vertex  3.300000e+000  2.450000e+001  0.000000e+000
      vertex  3.272869e+000  2.800000e+001 -4.222900e-001
      vertex  3.243814e+000  2.437198e+001 -6.063595e-001
    endloop
  endfacet
  facet normal -9.035987e-001 -1.448515e-002  4.281350e-001
    outer loop
      vertex  3.243814e+000  2.437198e+001 -6.063595e-001
      vertex  3.272869e+000  2.800000e+001 -4.222900e-001
      vertex  2.399591e+000  2.800000e+001 -2.265384e+000
    endloop
  endfacet
  facet normal -9.376325e-001 -6.174673e-002  3.421001e-001
    outer loop
      vertex  3.243814e+000  2.437198e+001 -6.063595e-001
      vertex  2.399591e+000  2.800000e+001 -2.265384e+000
      vertex  3.029953e+000  2.373527e+001 -1.307435e+000
    endloop
  endfacet
  facet normal  6.864800e-001  -0.000000e+000  7.271488e-001
    outer loop
      vertex -2.896023e+000  1.700000e+001 -1.582104e+000
      vertex -1.412994e+000  1.700000e+001 -2.982188e+000
      vertex -1.412994e+000  2.300000e+001 -2.982188e+000
    endloop
  endfacet
  facet normal  1.279667e-001  0.000000e+000  9.917785e-001
    outer loop
      vertex -1.412994e+000  2.300000e+001 -2.982188e+000
      vertex -1.412994e+000  1.700000e+001 -2.982188e+000
      vertex  6.097504e-001  1.700000e+001 -3.243178e+000
    endloop
  endfacet
  facet normal  1.279667e-001  -0.000000e+000  9.917785e-001
    outer loop
      vertex -1.412994e+000  2.300000e+001 -2.982188e+000
      vertex  6.097504e-001  1.700000e+001 -3.243178e+000
      vertex  6.097504e-001  2.300000e+001 -3.243178e+000
    endloop
  endfacet
  facet normal -4.794255e-001  0.000000e+000  8.775826e-001
    outer loop
      vertex  6.097504e-001  2.300000e+001 -3.243178e+000
      vertex  6.097504e-001  1.700000e+001 -3.243178e+000
      vertex  2.399591e+000  1.700000e+001 -2.265384e+000
    endloop
  endfacet
  facet normal -4.794255e-001  0.000000e+000  8.775826e-001
    outer loop
      vertex  6.097504e-001  2.300000e+001 -3.243178e+000
      vertex  2.399591e+000  1.700000e+001 -2.265384e+000
      vertex  2.399591e+000  2.300000e+001 -2.265384e+000
    endloop
  endfacet
  facet normal  9.936920e-001 -2.099422e-002  1.101609e-001
    outer loop
      vertex -3.227059e+000  2.433188e+001 -6.899909e-001
      vertex -3.272869e+000  2.800000e+001  4.222900e-001
      vertex -3.300000e+000  2.450000e+001  0.000000e+000
    endloop
  endfacet
  facet normal  9.953281e-001  1.495215e-002  9.538547e-002
    outer loop
      vertex -3.272869e+000  1.700000e+001  4.222900e-001
      vertex -3.243814e+000  2.162802e+001 -6.063595e-001
      vertex -3.300000e+000  2.150000e+001  1.836910e-016
    endloop
  endfacet
  facet normal  9.945477e-001 -3.783434e-003 -1.042142e-001
    outer loop
      vertex -3.227059e+000  2.166812e+001  6.899909e-001
      vertex -3.272869e+000  1.700000e+001  4.222900e-001
      vertex -3.300000e+000  2.150000e+001  1.836910e-016
    endloop
  endfacet
  facet normal  9.338834e-001  7.198698e-002  3.502567e-001
    outer loop
      vertex -3.272869e+000  1.700000e+001  4.222900e-001
      vertex -3.029953e+000  2.226473e+001 -1.307435e+000
      vertex -3.243814e+000  2.162802e+001 -6.063595e-001
    endloop
  endfacet
  facet normal  8.852857e-001  0.000000e+000  4.650475e-001
    outer loop
      vertex -2.896023e+000  1.700000e+001 -1.582104e+000
      vertex -2.896023e+000  2.800000e+001 -1.582104e+000
      vertex -2.946084e+000  2.319853e+001 -1.486804e+000
    endloop
  endfacet
  facet normal  9.043778e-001  7.432806e-004  4.267322e-001
    outer loop
      vertex -2.896023e+000  1.700000e+001 -1.582104e+000
      vertex -2.946084e+000  2.319853e+001 -1.486804e+000
      vertex -3.029953e+000  2.226473e+001 -1.307435e+000
    endloop
  endfacet
  facet normal  9.826654e-001  1.535939e-002  1.847510e-001
    outer loop
      vertex -2.896023e+000  1.700000e+001 -1.582104e+000
      vertex -3.029953e+000  2.226473e+001 -1.307435e+000
      vertex -3.272869e+000  1.700000e+001  4.222900e-001
    endloop
  endfacet
  facet normal  9.035824e-001  1.568456e-002 -4.281273e-001
    outer loop
      vertex -2.399591e+000  1.700000e+001  2.265384e+000
      vertex -3.272869e+000  1.700000e+001  4.222900e-001
      vertex -3.227059e+000  2.166812e+001  6.899909e-001
    endloop
  endfacet
  facet normal  9.346110e-001  4.667497e-002 -3.525959e-001
    outer loop
      vertex -2.399591e+000  1.700000e+001  2.265384e+000
      vertex -3.227059e+000  2.166812e+001  6.899909e-001
      vertex -3.013029e+000  2.233792e+001  1.345977e+000
    endloop
  endfacet
  facet normal  8.779937e-001  1.851469e-002 -4.783140e-001
    outer loop
      vertex -2.399591e+000  1.700000e+001  2.265384e+000
      vertex -3.013029e+000  2.233792e+001  1.345977e+000
      vertex -2.946084e+000  2.280147e+001  1.486804e+000
    endloop
  endfacet
  facet normal  8.184964e-001  0.000000e+000 -5.745116e-001
    outer loop
      vertex -2.399591e+000  1.700000e+001  2.265384e+000
      vertex -2.946084e+000  2.280147e+001  1.486804e+000
      vertex -2.399591e+000  2.300000e+001  2.265384e+000
    endloop
  endfacet
  facet normal  4.794255e-001  0.000000e+000 -8.775826e-001
    outer loop
      vertex -6.097504e-001  2.800000e+001  3.243178e+000
      vertex -2.399591e+000  2.300000e+001  2.265384e+000
      vertex -2.399591e+000  2.800000e+001  2.265384e+000
    endloop
  endfacet
  facet normal  8.184964e-001  0.000000e+000 -5.745117e-001
    outer loop
      vertex -2.399591e+000  2.800000e+001  2.265384e+000
      vertex -2.399591e+000  2.300000e+001  2.265384e+000
      vertex -2.946084e+000  2.280147e+001  1.486804e+000
    endloop
  endfacet
  facet normal  8.685609e-001 -1.712851e-002 -4.952864e-001
    outer loop
      vertex -2.399591e+000  2.800000e+001  2.265384e+000
      vertex -2.946084e+000  2.280147e+001  1.486804e+000
      vertex -3.029953e+000  2.373527e+001  1.307435e+000
    endloop
  endfacet
  facet normal  4.794255e-001  0.000000e+000 -8.775826e-001
    outer loop
      vertex -2.399591e+000  2.300000e+001  2.265384e+000
      vertex -6.097504e-001  2.800000e+001  3.243178e+000
      vertex -6.097504e-001  2.300000e+001  3.243178e+000
    endloop
  endfacet
  facet normal -1.279667e-001  0.000000e+000 -9.917785e-001
    outer loop
      vertex -6.097504e-001  2.300000e+001  3.243178e+000
      vertex -6.097504e-001  2.800000e+001  3.243178e+000
      vertex  1.412994e+000  2.800000e+001  2.982188e+000
    endloop
  endfacet
  facet normal -1.279667e-001  -0.000000e+000 -9.917785e-001
    outer loop
      vertex -6.097504e-001  2.300000e+001  3.243178e+000
      vertex  1.412994e+000  2.800000e+001  2.982188e+000
      vertex  1.412994e+000  2.300000e+001  2.982188e+000
    endloop
  endfacet
  facet normal -6.864799e-001  0.000000e+000 -7.271488e-001
    outer loop
      vertex  1.412994e+000  2.300000e+001  2.982188e+000
      vertex  1.412994e+000  2.800000e+001  2.982188e+000
      vertex  2.896023e+000  2.800000e+001  1.582104e+000
    endloop
  endfacet
  facet normal -6.864799e-001  -0.000000e+000 -7.271488e-001
    outer loop
      vertex  1.412994e+000  2.300000e+001  2.982188e+000
      vertex  2.896023e+000  2.800000e+001  1.582104e+000
      vertex  2.896023e+000  1.700000e+001  1.582104e+000
    endloop
  endfacet
  facet normal  9.020740e-001 -8.393001e-004  4.315804e-001
    outer loop
      vertex -2.946084e+000  2.319853e+001 -1.486804e+000
      vertex -2.896023e+000  2.800000e+001 -1.582104e+000
      vertex -3.013029e+000  2.366208e+001 -1.345977e+000
    endloop
  endfacet
  facet normal  9.826484e-001 -1.644854e-002  1.847478e-001
    outer loop
      vertex -3.013029e+000  2.366208e+001 -1.345977e+000
      vertex -2.896023e+000  2.800000e+001 -1.582104e+000
      vertex -3.272869e+000  2.800000e+001  4.222900e-001
    endloop
  endfacet
  facet normal  9.046499e-001 -1.132764e-001  4.108249e-001
    outer loop
      vertex -3.013029e+000  2.366208e+001 -1.345977e+000
      vertex -3.272869e+000  2.800000e+001  4.222900e-001
      vertex -3.227059e+000  2.433188e+001 -6.899909e-001
    endloop
  endfacet
  facet normal  9.957932e-001  3.329047e-003 -9.156884e-002
    outer loop
      vertex -3.300000e+000  2.450000e+001  0.000000e+000
      vertex -3.272869e+000  2.800000e+001  4.222900e-001
      vertex -3.243814e+000  2.437198e+001  6.063595e-001
    endloop
  endfacet
  facet normal  9.035987e-001 -1.448515e-002 -4.281350e-001
    outer loop
      vertex -3.243814e+000  2.437198e+001  6.063595e-001
      vertex -3.272869e+000  2.800000e+001  4.222900e-001
      vertex -2.399591e+000  2.800000e+001  2.265384e+000
    endloop
  endfacet
  facet normal  9.376325e-001 -6.174673e-002 -3.421001e-001
    outer loop
      vertex -3.243814e+000  2.437198e+001  6.063595e-001
      vertex -2.399591e+000  2.800000e+001  2.265384e+000
      vertex -3.029953e+000  2.373527e+001  1.307435e+000
    endloop
  endfacet
  facet normal -6.864800e-001  0.000000e+000 -7.271488e-001
    outer loop
      vertex  2.896023e+000  1.700000e+001  1.582104e+000
      vertex  1.412994e+000  1.700000e+001  2.982188e+000
      vertex  1.412994e+000  2.300000e+001  2.982188e+000
    endloop
  endfacet
  facet normal -1.279667e-001  -0.000000e+000 -9.917785e-001
    outer loop
      vertex  1.412994e+000  2.300000e+001  2.982188e+000
      vertex  1.412994e+000  1.700000e+001  2.982188e+000
      vertex -6.097504e-001  1.700000e+001  3.243178e+000
    endloop
  endfacet
  facet normal -1.279667e-001  0.000000e+000 -9.917785e-001
    outer loop
      vertex  1.412994e+000  2.300000e+001  2.982188e+000
      vertex -6.097504e-001  1.700000e+001  3.243178e+000
      vertex -6.097504e-001  2.300000e+001  3.243178e+000
    endloop
  endfacet
  facet normal  4.794255e-001  0.000000e+000 -8.775826e-001
    outer loop
      vertex -6.097504e-001  2.300000e+001  3.243178e+000
      vertex -6.097504e-001  1.700000e+001  3.243178e+000
      vertex -2.399591e+000  1.700000e+001  2.265384e+000
    endloop
  endfacet
  facet normal  4.794255e-001  0.000000e+000 -8.775826e-001
    outer loop
      vertex -6.097504e-001  2.300000e+001  3.243178e+000
      vertex -2.399591e+000  1.700000e+001  2.265384e+000
      vertex -2.399591e+000  2.300000e+001  2.265384e+000
    endloop
  endfacet
  facet normal  2.117210e-003  1.888210e-001 -9.820093e-001
    outer loop
      vertex  2.946084e+000  2.319853e+001  1.486804e+000
      vertex  4.824430e+000  2.227534e+001  1.313344e+000
      vertex  3.029953e+000  2.226473e+001  1.307435e+000
    endloop
  endfacet
  facet normal -2.107296e-003  7.344483e-001 -6.786615e-001
    outer loop
      vertex  3.029953e+000  2.226473e+001  1.307435e+000
      vertex  4.824430e+000  2.227534e+001  1.313344e+000
      vertex  4.961657e+000  2.163324e+001  6.180305e-001
    endloop
  endfacet
  facet normal  2.315947e-003  7.406197e-001 -6.719206e-001
    outer loop
      vertex  3.029953e+000  2.226473e+001  1.307435e+000
      vertex  4.961657e+000  2.163324e+001  6.180305e-001
      vertex  3.243814e+000  2.162802e+001  6.063595e-001
    endloop
  endfacet
  facet normal -1.536057e-003  9.775208e-001 -2.108337e-001
    outer loop
      vertex  3.243814e+000  2.162802e+001  6.063595e-001
      vertex  4.961657e+000  2.163324e+001  6.180305e-001
      vertex  5.000000e+000  2.150000e+001  1.836910e-016
    endloop
  endfacet
  facet normal  0.000000e+000  9.784303e-001 -2.065769e-001
    outer loop
      vertex  3.243814e+000  2.162802e+001  6.063595e-001
      vertex  5.000000e+000  2.150000e+001  1.836910e-016
      vertex  3.300000e+000  2.150000e+001  1.836910e-016
    endloop
  endfacet
  facet normal -1.579868e-003  1.815562e-001 -9.833792e-001
    outer loop
      vertex  4.824430e+000  2.227534e+001  1.313344e+000
      vertex  2.946084e+000  2.319853e+001  1.486804e+000
      vertex  4.774215e+000  2.320767e+001  1.485555e+000
    endloop
  endfacet
  facet normal  8.003609e-004 -2.907896e-001 -9.567866e-001
    outer loop
      vertex  4.774215e+000  2.320767e+001  1.485555e+000
      vertex  2.946084e+000  2.319853e+001  1.486804e+000
      vertex  3.013029e+000  2.366208e+001  1.345977e+000
    endloop
  endfacet
  facet normal -5.370357e-004 -2.955270e-001 -9.553342e-001
    outer loop
      vertex  4.774215e+000  2.320767e+001  1.485555e+000
      vertex  3.013029e+000  2.366208e+001  1.345977e+000
      vertex  4.816184e+000  2.366755e+001  1.343269e+000
    endloop
  endfacet
  facet normal  1.052891e-003 -6.998695e-001 -7.142699e-001
    outer loop
      vertex  4.816184e+000  2.366755e+001  1.343269e+000
      vertex  3.013029e+000  2.366208e+001  1.345977e+000
      vertex  3.227059e+000  2.433188e+001  6.899909e-001
    endloop
  endfacet
  facet normal -1.420767e-003 -7.028764e-001 -7.113104e-001
    outer loop
      vertex  4.816184e+000  2.366755e+001  1.343269e+000
      vertex  3.227059e+000  2.433188e+001  6.899909e-001
      vertex  4.953135e+000  2.433550e+001  6.829717e-001
    endloop
  endfacet
  facet normal  1.072317e-003 -9.716019e-001 -2.366192e-001
    outer loop
      vertex  4.953135e+000  2.433550e+001  6.829717e-001
      vertex  3.227059e+000  2.433188e+001  6.899909e-001
      vertex  3.300000e+000  2.450000e+001  0.000000e+000
    endloop
  endfacet
  facet normal  0.000000e+000 -9.721965e-001 -2.341669e-001
    outer loop
      vertex  4.953135e+000  2.433550e+001  6.829717e-001
      vertex  3.300000e+000  2.450000e+001  0.000000e+000
      vertex  5.000000e+000  2.450000e+001  0.000000e+000
    endloop
  endfacet
  facet normal  5.370357e-004  2.955270e-001 -9.553342e-001
    outer loop
      vertex -4.774215e+000  2.279233e+001  1.485555e+000
      vertex -3.013029e+000  2.233792e+001  1.345977e+000
      vertex -4.816184e+000  2.233245e+001  1.343269e+000
    endloop
  endfacet
  facet normal -1.052891e-003  6.998695e-001 -7.142699e-001
    outer loop
      vertex -4.816184e+000  2.233245e+001  1.343269e+000
      vertex -3.013029e+000  2.233792e+001  1.345977e+000
      vertex -3.227059e+000  2.166812e+001  6.899909e-001
    endloop
  endfacet
  facet normal  1.420767e-003  7.028764e-001 -7.113104e-001
    outer loop
      vertex -4.816184e+000  2.233245e+001  1.343269e+000
      vertex -3.227059e+000  2.166812e+001  6.899909e-001
      vertex -4.953135e+000  2.166450e+001  6.829717e-001
    endloop
  endfacet
  facet normal -1.072317e-003  9.716019e-001 -2.366192e-001
    outer loop
      vertex -4.953135e+000  2.166450e+001  6.829717e-001
      vertex -3.227059e+000  2.166812e+001  6.899909e-001
      vertex -3.300000e+000  2.150000e+001  1.836910e-016
    endloop
  endfacet
  facet normal  0.000000e+000  9.721965e-001 -2.341669e-001
    outer loop
      vertex -4.953135e+000  2.166450e+001  6.829717e-001
      vertex -3.300000e+000  2.150000e+001  1.836910e-016
      vertex -5.000000e+000  2.150000e+001  1.836910e-016
    endloop
  endfacet
  facet normal -8.003609e-004  2.907896e-001 -9.567866e-001
    outer loop
      vertex -3.013029e+000  2.233792e+001  1.345977e+000
      vertex -4.774215e+000  2.279233e+001  1.485555e+000
      vertex -2.946084e+000  2.280147e+001  1.486804e+000
    endloop
  endfacet
  facet normal  1.579868e-003 -1.815562e-001 -9.833792e-001
    outer loop
      vertex -2.946084e+000  2.280147e+001  1.486804e+000
      vertex -4.774215e+000  2.279233e+001  1.485555e+000
      vertex -4.824430e+000  2.372466e+001  1.313344e+000
    endloop
  endfacet
  facet normal -2.117210e-003 -1.888210e-001 -9.820093e-001
    outer loop
      vertex -2.946084e+000  2.280147e+001  1.486804e+000
      vertex -4.824430e+000  2.372466e+001  1.313344e+000
      vertex -3.029953e+000  2.373527e+001  1.307435e+000
    endloop
  endfacet
  facet normal  2.107296e-003 -7.344483e-001 -6.786615e-001
    outer loop
      vertex -3.029953e+000  2.373527e+001  1.307435e+000
      vertex -4.824430e+000  2.372466e+001  1.313344e+000
      vertex -4.961657e+000  2.436676e+001  6.180305e-001
    endloop
  endfacet
  facet normal -2.315947e-003 -7.406197e-001 -6.719206e-001
    outer loop
      vertex -3.029953e+000  2.373527e+001  1.307435e+000
      vertex -4.961657e+000  2.436676e+001  6.180305e-001
      vertex -3.243814e+000  2.437198e+001  6.063595e-001
    endloop
  endfacet
  facet normal  1.536057e-003 -9.775208e-001 -2.108337e-001
    outer loop
      vertex -3.243814e+000  2.437198e+001  6.063595e-001
      vertex -4.961657e+000  2.436676e+001  6.180305e-001
      vertex -5.000000e+000  2.450000e+001  0.000000e+000
    endloop
  endfacet
  facet normal  0.000000e+000 -9.784303e-001 -2.065769e-001
    outer loop
      vertex -3.243814e+000  2.437198e+001  6.063595e-001
      vertex -5.000000e+000  2.450000e+001  0.000000e+000
      vertex -3.300000e+000  2.450000e+001  0.000000e+000
    endloop
  endfacet
  facet normal  2.117210e-003 -1.888210e-001  9.820093e-001
    outer loop
      vertex  2.946084e+000  2.280147e+001 -1.486804e+000
      vertex  4.824430e+000  2.372466e+001 -1.313344e+000
      vertex  3.029953e+000  2.373527e+001 -1.307435e+000
    endloop
  endfacet
  facet normal -2.107296e-003 -7.344483e-001  6.786615e-001
    outer loop
      vertex  3.029953e+000  2.373527e+001 -1.307435e+000
      vertex  4.824430e+000  2.372466e+001 -1.313344e+000
      vertex  4.961657e+000  2.436676e+001 -6.180305e-001
    endloop
  endfacet
  facet normal  2.315947e-003 -7.406197e-001  6.719206e-001
    outer loop
      vertex  3.029953e+000  2.373527e+001 -1.307435e+000
      vertex  4.961657e+000  2.436676e+001 -6.180305e-001
      vertex  3.243814e+000  2.437198e+001 -6.063595e-001
    endloop
  endfacet
  facet normal -1.536057e-003 -9.775208e-001  2.108337e-001
    outer loop
      vertex  3.243814e+000  2.437198e+001 -6.063595e-001
      vertex  4.961657e+000  2.436676e+001 -6.180305e-001
      vertex  5.000000e+000  2.450000e+001  0.000000e+000
    endloop
  endfacet
  facet normal  0.000000e+000 -9.784303e-001  2.065769e-001
    outer loop
      vertex  3.243814e+000  2.437198e+001 -6.063595e-001
      vertex  5.000000e+000  2.450000e+001  0.000000e+000
      vertex  3.300000e+000  2.450000e+001  0.000000e+000
    endloop
  endfacet
  facet normal -1.579868e-003 -1.815562e-001  9.833792e-001
    outer loop
      vertex  4.824430e+000  2.372466e+001 -1.313344e+000
      vertex  2.946084e+000  2.280147e+001 -1.486804e+000
      vertex  4.774215e+000  2.279233e+001 -1.485555e+000
    endloop
  endfacet
  facet normal  8.003609e-004  2.907896e-001  9.567866e-001
    outer loop
      vertex  4.774215e+000  2.279233e+001 -1.485555e+000
      vertex  2.946084e+000  2.280147e+001 -1.486804e+000
      vertex  3.013029e+000  2.233792e+001 -1.345977e+000
    endloop
  endfacet
  facet normal -5.370357e-004  2.955270e-001  9.553342e-001
    outer loop
      vertex  4.774215e+000  2.279233e+001 -1.485555e+000
      vertex  3.013029e+000  2.233792e+001 -1.345977e+000
      vertex  4.816184e+000  2.233245e+001 -1.343269e+000
    endloop
  endfacet
  facet normal  1.052891e-003  6.998695e-001  7.142699e-001
    outer loop
      vertex  4.816184e+000  2.233245e+001 -1.343269e+000
      vertex  3.013029e+000  2.233792e+001 -1.345977e+000
      vertex  3.227059e+000  2.166812e+001 -6.899909e-001
    endloop
  endfacet
  facet normal -1.420767e-003  7.028764e-001  7.113104e-001
    outer loop
      vertex  4.816184e+000  2.233245e+001 -1.343269e+000
      vertex  3.227059e+000  2.166812e+001 -6.899909e-001
      vertex  4.953135e+000  2.166450e+001 -6.829717e-001
    endloop
  endfacet
  facet normal  1.072317e-003  9.716019e-001  2.366192e-001
    outer loop
      vertex  4.953135e+000  2.166450e+001 -6.829717e-001
      vertex  3.227059e+000  2.166812e+001 -6.899909e-001
      vertex  3.300000e+000  2.150000e+001  1.836910e-016
    endloop
  endfacet
  facet normal  -0.000000e+000  9.721965e-001  2.341669e-001
    outer loop
      vertex  4.953135e+000  2.166450e+001 -6.829717e-001
      vertex  3.300000e+000  2.150000e+001  1.836910e-016
      vertex  5.000000e+000  2.150000e+001  1.836910e-016
    endloop
  endfacet
  facet normal  5.370357e-004 -2.955270e-001  9.553342e-001
    outer loop
      vertex -4.774215e+000  2.320767e+001 -1.485555e+000
      vertex -3.013029e+000  2.366208e+001 -1.345977e+000
      vertex -4.816184e+000  2.366755e+001 -1.343269e+000
    endloop
  endfacet
  facet normal -1.052891e-003 -6.998695e-001  7.142699e-001
    outer loop
      vertex -4.816184e+000  2.366755e+001 -1.343269e+000
      vertex -3.013029e+000  2.366208e+001 -1.345977e+000
      vertex -3.227059e+000  2.433188e+001 -6.899909e-001
    endloop
  endfacet
  facet normal  1.420767e-003 -7.028764e-001  7.113104e-001
    outer loop
      vertex -4.816184e+000  2.366755e+001 -1.343269e+000
      vertex -3.227059e+000  2.433188e+001 -6.899909e-001
      vertex -4.953135e+000  2.433550e+001 -6.829717e-001
    endloop
  endfacet
  facet normal -1.072317e-003 -9.716019e-001  2.366192e-001
    outer loop
      vertex -4.953135e+000  2.433550e+001 -6.829717e-001
      vertex -3.227059e+000  2.433188e+001 -6.899909e-001
      vertex -3.300000e+000  2.450000e+001  0.000000e+000
    endloop
  endfacet
  facet normal  0.000000e+000 -9.721965e-001  2.341669e-001
    outer loop
      vertex -4.953135e+000  2.433550e+001 -6.829717e-001
      vertex -3.300000e+000  2.450000e+001  0.000000e+000
      vertex -5.000000e+000  2.450000e+001  0.000000e+000
    endloop
  endfacet
  facet normal -8.003609e-004 -2.907896e-001  9.567866e-001
    outer loop
      vertex -3.013029e+000  2.366208e+001 -1.345977e+000
      vertex -4.774215e+000  2.320767e+001 -1.485555e+000
      vertex -2.946084e+000  2.319853e+001 -1.486804e+000
    endloop
  endfacet
  facet normal  1.579868e-003  1.815562e-001  9.833792e-001
    outer loop
      vertex -2.946084e+000  2.319853e+001 -1.486804e+000
      vertex -4.774215e+000  2.320767e+001 -1.485555e+000
      vertex -4.824430e+000  2.227534e+001 -1.313344e+000
    endloop
  endfacet
  facet normal -2.117210e-003  1.888210e-001  9.820093e-001
    outer loop
      vertex -2.946084e+000  2.319853e+001 -1.486804e+000
      vertex -4.824430e+000  2.227534e+001 -1.313344e+000
      vertex -3.029953e+000  2.226473e+001 -1.307435e+000
    endloop
  endfacet
  facet normal  2.107296e-003  7.344483e-001  6.786615e-001
    outer loop
      vertex -3.029953e+000  2.226473e+001 -1.307435e+000
      vertex -4.824430e+000  2.227534e+001 -1.313344e+000
      vertex -4.961657e+000  2.163324e+001 -6.180305e-001
    endloop
  endfacet
  facet normal -2.315947e-003  7.406197e-001  6.719206e-001
    outer loop
      vertex -3.029953e+000  2.226473e+001 -1.307435e+000
      vertex -4.961657e+000  2.163324e+001 -6.180305e-001
      vertex -3.243814e+000  2.162802e+001 -6.063595e-001
    endloop
  endfacet
  facet normal  1.536057e-003  9.775208e-001  2.108337e-001
    outer loop
      vertex -3.243814e+000  2.162802e+001 -6.063595e-001
      vertex -4.961657e+000  2.163324e+001 -6.180305e-001
      vertex -5.000000e+000  2.150000e+001  1.836910e-016
    endloop
  endfacet
  facet normal  -0.000000e+000  9.784303e-001  2.065769e-001
    outer loop
      vertex -3.243814e+000  2.162802e+001 -6.063595e-001
      vertex -5.000000e+000  2.150000e+001  1.836910e-016
      vertex -3.300000e+000  2.150000e+001  1.836910e-016
    endloop
  endfacet
  facet normal  0.000000e+000  1.000000e+000  0.000000e+000
    outer loop
      vertex  2.896023e+000  2.800000e+001  1.582104e+000
      vertex  5.000000e+000  2.800000e+001  3.061516e-016
      vertex  3.272869e+000  2.800000e+001 -4.222900e-001
    endloop
  endfacet
  facet normal  0.000000e+000  1.000000e+000  0.000000e+000
    outer loop
      vertex -2.896023e+000  2.800000e+001 -1.582104e+000
      vertex -1.412994e+000  2.800000e+001 -2.982188e+000
      vertex -2.500000e+000  2.800000e+001 -4.330127e+000
    endloop
  endfacet
  facet normal  0.000000e+000  1.000000e+000  0.000000e+000
    outer loop
      vertex -2.896023e+000  2.800000e+001 -1.582104e+000
      vertex -2.500000e+000  2.800000e+001 -4.330127e+000
      vertex -4.330127e+000  2.800000e+001 -2.500000e+000
    endloop
  endfacet
  facet normal  0.000000e+000  1.000000e+000  -0.000000e+000
    outer loop
      vertex -2.896023e+000  2.800000e+001 -1.582104e+000
      vertex -4.330127e+000  2.800000e+001 -2.500000e+000
      vertex -5.000000e+000  2.800000e+001 -9.184548e-016
    endloop
  endfacet
  facet normal  -0.000000e+000  1.000000e+000  0.000000e+000
    outer loop
      vertex -2.896023e+000  2.800000e+001 -1.582104e+000
      vertex -5.000000e+000  2.800000e+001 -9.184548e-016
      vertex -3.272869e+000  2.800000e+001  4.222900e-001
    endloop
  endfacet
  facet normal  0.000000e+000  1.000000e+000  0.000000e+000
    outer loop
      vertex  4.330127e+000  2.800000e+001  2.500000e+000
      vertex  5.000000e+000  2.800000e+001  3.061516e-016
      vertex  2.500000e+000  2.800000e+001  4.330127e+000
    endloop
  endfacet
  facet normal  0.000000e+000  1.000000e+000  0.000000e+000
    outer loop
      vertex  2.500000e+000  2.800000e+001  4.330127e+000
      vertex  5.000000e+000  2.800000e+001  3.061516e-016
      vertex  2.896023e+000  2.800000e+001  1.582104e+000
    endloop
  endfacet
  facet normal  0.000000e+000  1.000000e+000  0.000000e+000
    outer loop
      vertex  2.500000e+000  2.800000e+001  4.330127e+000
      vertex  2.896023e+000  2.800000e+001  1.582104e+000
      vertex  0.000000e+000  2.800000e+001  5.000000e+000
    endloop
  endfacet
  facet normal  0.000000e+000  1.000000e+000  0.000000e+000
    outer loop
      vertex  0.000000e+000  2.800000e+001  5.000000e+000
      vertex  2.896023e+000  2.800000e+001  1.582104e+000
      vertex  1.412994e+000  2.800000e+001  2.982188e+000
    endloop
  endfacet
  facet normal  0.000000e+000  9.999999e-001  0.000000e+000
    outer loop
      vertex  0.000000e+000  2.800000e+001  5.000000e+000
      vertex  1.412994e+000  2.800000e+001  2.982188e+000
      vertex -6.097504e-001  2.800000e+001  3.243178e+000
    endloop
  endfacet
  facet normal  0.000000e+000  1.000000e+000  -0.000000e+000
    outer loop
      vertex  5.000000e+000  2.800000e+001  3.061516e-016
      vertex  4.330127e+000  2.800000e+001 -2.500000e+000
      vertex  3.272869e+000  2.800000e+001 -4.222900e-001
    endloop
  endfacet
  facet normal  0.000000e+000  1.000000e+000  0.000000e+000
    outer loop
      vertex  3.272869e+000  2.800000e+001 -4.222900e-001
      vertex  4.330127e+000  2.800000e+001 -2.500000e+000
      vertex  2.500000e+000  2.800000e+001 -4.330127e+000
    endloop
  endfacet
  facet normal  0.000000e+000  1.000000e+000  -0.000000e+000
    outer loop
      vertex  3.272869e+000  2.800000e+001 -4.222900e-001
      vertex  2.500000e+000  2.800000e+001 -4.330127e+000
      vertex  2.399591e+000  2.800000e+001 -2.265384e+000
    endloop
  endfacet
  facet normal  0.000000e+000  1.000000e+000  0.000000e+000
    outer loop
      vertex  2.399591e+000  2.800000e+001 -2.265384e+000
      vertex  2.500000e+000  2.800000e+001 -4.330127e+000
      vertex  6.097504e-001  2.800000e+001 -3.243178e+000
    endloop
  endfacet
  facet normal  0.000000e+000  1.000000e+000  0.000000e+000
    outer loop
      vertex  6.097504e-001  2.800000e+001 -3.243178e+000
      vertex  2.500000e+000  2.800000e+001 -4.330127e+000
      vertex  6.123032e-016  2.800000e+001 -5.000000e+000
    endloop
  endfacet
  facet normal  0.000000e+000  1.000000e+000  -0.000000e+000
    outer loop
      vertex  6.097504e-001  2.800000e+001 -3.243178e+000
      vertex  6.123032e-016  2.800000e+001 -5.000000e+000
      vertex -1.412994e+000  2.800000e+001 -2.982188e+000
    endloop
  endfacet
  facet normal  0.000000e+000  1.000000e+000  0.000000e+000
    outer loop
      vertex -1.412994e+000  2.800000e+001 -2.982188e+000
      vertex  6.123032e-016  2.800000e+001 -5.000000e+000
      vertex -2.500000e+000  2.800000e+001 -4.330127e+000
    endloop
  endfacet
  facet normal  0.000000e+000  1.000000e+000  -0.000000e+000
    outer loop
      vertex  0.000000e+000  2.800000e+001  5.000000e+000
      vertex -6.097504e-001  2.800000e+001  3.243178e+000
      vertex -2.500000e+000  2.800000e+001  4.330127e+000
    endloop
  endfacet
  facet normal  0.000000e+000  1.000000e+000  0.000000e+000
    outer loop
      vertex -2.500000e+000  2.800000e+001  4.330127e+000
      vertex -6.097504e-001  2.800000e+001  3.243178e+000
      vertex -2.399591e+000  2.800000e+001  2.265384e+000
    endloop
  endfacet
  facet normal  0.000000e+000  1.000000e+000  0.000000e+000
    outer loop
      vertex -2.500000e+000  2.800000e+001  4.330127e+000
      vertex -2.399591e+000  2.800000e+001  2.265384e+000
      vertex -4.330127e+000  2.800000e+001  2.500000e+000
    endloop
  endfacet
  facet normal  0.000000e+000  1.000000e+000  0.000000e+000
    outer loop
      vertex -4.330127e+000  2.800000e+001  2.500000e+000
      vertex -2.399591e+000  2.800000e+001  2.265384e+000
      vertex -3.272869e+000  2.800000e+001  4.222900e-001
    endloop
  endfacet
  facet normal  0.000000e+000  1.000000e+000  0.000000e+000
    outer loop
      vertex -4.330127e+000  2.800000e+001  2.500000e+000
      vertex -3.272869e+000  2.800000e+001  4.222900e-001
      vertex -5.000000e+000  2.800000e+001 -9.184548e-016
    endloop
  endfacet
  facet normal  0.000000e+000  1.000000e+000  0.000000e+000
    outer loop
      vertex  3.272869e+000  1.700000e+001 -4.222900e-001
      vertex -2.399591e+000  1.700000e+001  2.265384e+000
      vertex  2.896023e+000  1.700000e+001  1.582104e+000
    endloop
  endfacet
  facet normal  0.000000e+000  1.000000e+000  0.000000e+000
    outer loop
      vertex  2.896023e+000  1.700000e+001  1.582104e+000
      vertex -2.399591e+000  1.700000e+001  2.265384e+000
      vertex -6.097504e-001  1.700000e+001  3.243178e+000
    endloop
  endfacet
  facet normal  0.000000e+000  1.000000e+000  0.000000e+000
    outer loop
      vertex  2.896023e+000  1.700000e+001  1.582104e+000
      vertex -6.097504e-001  1.700000e+001  3.243178e+000
      vertex  1.412994e+000  1.700000e+001  2.982188e+000
    endloop
  endfacet
  facet normal  0.000000e+000  1.000000e+000  0.000000e+000
    outer loop
      vertex -2.399591e+000  1.700000e+001  2.265384e+000
      vertex  3.272869e+000  1.700000e+001 -4.222900e-001
      vertex -3.272869e+000  1.700000e+001  4.222900e-001
    endloop
  endfacet
  facet normal  0.000000e+000  1.000000e+000  0.000000e+000
    outer loop
      vertex -3.272869e+000  1.700000e+001  4.222900e-001
      vertex  3.272869e+000  1.700000e+001 -4.222900e-001
      vertex  2.399591e+000  1.700000e+001 -2.265384e+000
    endloop
  endfacet
  facet normal  0.000000e+000  1.000000e+000  0.000000e+000
    outer loop
      vertex -3.272869e+000  1.700000e+001  4.222900e-001
      vertex  2.399591e+000  1.700000e+001 -2.265384e+000
      vertex -2.896023e+000  1.700000e+001 -1.582104e+000
    endloop
  endfacet
  facet normal  0.000000e+000  1.000000e+000  0.000000e+000
    outer loop
      vertex -2.896023e+000  1.700000e+001 -1.582104e+000
      vertex  2.399591e+000  1.700000e+001 -2.265384e+000
      vertex  6.097504e-001  1.700000e+001 -3.243178e+000
    endloop
  endfacet
  facet normal  0.000000e+000  1.000000e+000  0.000000e+000
    outer loop
      vertex -2.896023e+000  1.700000e+001 -1.582104e+000
      vertex  6.097504e-001  1.700000e+001 -3.243178e+000
      vertex -1.412994e+000  1.700000e+001 -2.982188e+000
    endloop
  endfacet
endsolid CATIA STL
